<svg width="1016" height="587" viewBox="0 0 1016 587" fill="none" xmlns="http://www.w3.org/2000/svg">
<path d="M217.077 450.463L203.073 458.548L192.88 452.663L179.162 460.583L189.355 466.468L175.352 474.553L99.1414 430.553L140.866 406.463L217.077 450.463ZM180.686 445.623L139.533 421.863L125.815 429.783L166.968 453.543L180.686 445.623ZM242.612 410.421L214.89 426.426L236.801 439.076L222.797 447.161L146.587 403.161L188.312 379.071L242.612 410.421ZM215.938 411.191L186.978 394.471L173.26 402.391L202.22 419.111L215.938 411.191ZM268.909 395.238L262.145 399.143L284.055 411.793L270.242 419.768L194.032 375.768L235.757 351.678L290.057 383.028L282.531 387.373L312.444 395.403L298.345 403.543L268.909 395.238ZM249.475 391.828L263.383 383.798L234.423 367.078L220.515 375.108L249.475 391.828ZM241.943 348.107L255.946 340.022L332.156 384.022L318.153 392.107L241.943 348.107ZM356.928 355.09L369.598 362.405L337.875 380.72L261.665 336.72L275.669 328.635L339.209 365.32L356.928 355.09ZM399.492 330.515L421.498 317.81L434.168 325.125L398.159 345.915L350.527 318.415L372.533 305.71L356.624 296.525L334.618 309.23L321.948 301.915L357.958 281.125L400.159 305.49L378.153 318.195L399.492 330.515ZM412.017 260.474L454.695 313.274L440.215 321.634L399.824 271.584L376.389 285.114L363.719 277.799L402.872 255.194L412.017 260.474ZM470.088 284.477L487.331 294.432L495.047 303.947L486.187 309.062L478.471 299.547L473.327 302.517L456.084 292.562L470.088 284.477ZM488.953 216.055L531.631 268.855L517.151 277.215L476.759 227.165L453.325 240.695L440.655 233.38L479.808 210.775L488.953 216.055ZM581.52 214.752L553.799 230.757L575.709 243.407L561.706 251.492L485.495 207.492L527.22 183.402L581.52 214.752ZM554.847 215.522L525.887 198.802L512.169 206.722L541.129 223.442L554.847 215.522ZM588.479 148.034L664.689 192.034L650.685 200.119L593.909 167.339L595.719 184.114L566.283 183.179L623.154 216.014L609.151 224.099L532.941 180.099L546.944 172.014L576.857 173.334L574.475 156.119L588.479 148.034ZM671.127 129.687L658.362 122.317L644.644 130.237L695.514 159.607L709.232 151.687L694.752 143.327L708.756 135.242L735.905 150.917L694.18 175.007L617.97 131.007L659.695 106.917L685.13 121.602L671.127 129.687ZM692.946 103.34L707.045 111.48L727.622 99.5996L739.625 106.53L719.048 118.41L742.102 131.72L764.775 118.63L778.302 126.44L741.626 147.615L665.415 103.615L702.092 82.4396L715.619 90.2496L692.946 103.34ZM758.993 64.2175L746.8 71.2575L810.34 107.942L796.336 116.027L732.796 79.3425L720.507 86.4375L707.837 79.1225L746.323 56.9025L758.993 64.2175ZM600.08 314.036L572.358 330.041L594.269 342.691L580.265 350.776L504.055 306.776L545.78 282.686L600.08 314.036ZM573.406 314.806L544.446 298.086L530.728 306.006L559.688 322.726L573.406 314.806ZM592.273 255.844L668.483 299.844L627.71 323.384L551.5 279.384L565.504 271.299L629.044 307.984L641.809 300.614L578.269 263.929L592.273 255.844ZM718.808 270.788L674.225 296.528L598.015 252.528L643.646 226.183L669.748 258.633L683.752 250.548L718.808 270.788ZM624.212 252.033L652.696 268.478L656.792 266.113L638.121 244.003L624.212 252.033ZM692.611 271.283L681.942 265.123L664.413 275.243L675.083 281.403L692.611 271.283ZM743.7 241.787L756.37 249.102L724.648 267.417L648.437 223.417L662.441 215.332L725.981 252.017L743.7 241.787ZM684.905 202.362L698.909 194.277L775.119 238.277L761.115 246.362L684.905 202.362ZM757.784 189.655L745.019 182.285L731.301 190.205L782.172 219.575L795.889 211.655L781.409 203.295L795.413 195.21L822.563 210.885L780.838 234.975L704.628 190.975L746.353 166.885L771.788 181.57L757.784 189.655ZM801.895 149.448L808.278 153.133L832.38 139.218L889.537 172.218L852.099 193.833L817.042 173.593L830.76 165.673L853.147 178.598L863.149 172.823L830.855 154.178L807.23 167.818L775.984 149.778L813.327 128.218L825.997 135.533L801.895 149.448ZM936.99 144.821L922.986 152.906L912.793 147.021L899.075 154.941L909.268 160.826L895.265 168.911L819.055 124.911L860.78 100.821L936.99 144.821ZM900.6 139.981L859.446 116.221L845.728 124.141L886.882 147.901L900.6 139.981ZM961.763 115.888L974.433 123.203L942.71 141.518L866.5 97.5185L880.504 89.4335L944.044 126.118L961.763 115.888ZM930.499 76.1888L944.598 84.3288L965.174 72.4488L977.177 79.3788L956.601 91.2588L979.654 104.569L1002.33 91.4788L1015.85 99.2888L979.178 120.464L902.968 76.4638L939.644 55.2888L953.171 63.0988L930.499 76.1888Z" fill="white"/>
<path d="M170.25 562.198L163.487 566.103L185.397 578.753L171.584 586.728L95.3737 542.728L137.099 518.638L191.399 549.988L183.873 554.333L213.785 562.363L199.686 570.503L170.25 562.198ZM150.817 558.788L164.725 550.758L135.765 534.038L121.857 542.068L150.817 558.788ZM261.219 534.977L247.216 543.062L237.023 537.177L223.305 545.097L233.498 550.982L219.494 559.067L143.284 515.067L185.009 490.977L261.219 534.977ZM224.829 530.137L183.676 506.377L169.958 514.297L211.111 538.057L224.829 530.137ZM260.176 480.91L307.522 508.245L266.94 531.675L190.729 487.675L230.359 464.795L243.029 472.11L217.403 486.905L268.273 516.275L281.801 508.465L260.081 495.925L252.65 500.215L239.695 492.735L260.176 480.91ZM278.784 436.837L354.994 480.837L340.99 488.922L295.359 462.577L267.638 462.412L327.272 496.842L313.269 504.927L237.058 460.927L251.062 452.842L278.307 452.732L264.78 444.922L278.784 436.837ZM402.439 453.444L388.436 461.529L378.242 455.644L364.525 463.564L374.718 469.449L360.714 477.534L284.504 433.534L326.229 409.444L402.439 453.444ZM366.049 448.604L324.895 424.844L311.177 432.764L352.331 456.524L366.049 448.604ZM406.826 425.612L400.062 429.517L421.972 442.167L408.159 450.142L331.949 406.142L373.674 382.052L427.974 413.402L420.448 417.747L450.361 425.777L436.262 433.917L406.826 425.612ZM387.392 422.202L401.3 414.172L372.341 397.452L358.432 405.482L387.392 422.202ZM499.7 397.29L456.07 422.48L379.86 378.48L423.49 353.29L499.7 397.29ZM473.027 398.06L422.156 368.69L406.533 377.71L457.404 407.08L473.027 398.06ZM538.908 374.654L499.946 364.149L515.569 388.129L505.376 394.014L429.166 350.014L443.169 341.929L486.704 367.064L461.46 331.369L475.749 323.119L493.182 349.904L553.579 366.184L538.908 374.654Z" fill="#E84A89"/>
</svg>
