<svg width="377" height="294" viewBox="0 0 377 294" fill="none" xmlns="http://www.w3.org/2000/svg">
<path fill-rule="evenodd" clip-rule="evenodd" d="M10.0908 291.362V277.335H4.4808V274.529H1.6748V4.4808H4.4808V1.6748H372.204V4.4808H375.009V274.529H372.204V277.335H27.4678V280.14H24.6628V282.945H21.8568V285.751H19.0518V288.556H16.2458V291.362H10.0908Z" fill="#D9DFE5"/>
<path fill-rule="evenodd" clip-rule="evenodd" d="M2.805 0V2.805H0V6.155V272.854V276.204H2.805V279.01H6.155H8.416V281.271V284.076V286.881V289.687V293.037H11.765H14.572H17.921V290.232H20.727V287.426H23.532V284.62H26.338V281.815H29.144V279.01H370.529H373.879V276.204H376.685V2.805H373.879V0H2.805ZM3.349 6.155H6.155V3.35H370.529V6.155H373.335V272.854H370.529V275.659H25.794V278.465H22.987V281.271H20.182V284.076H17.377V286.881H14.572V289.687H11.765V286.881V284.076V281.271V278.465V275.659H6.155V272.854H3.349V6.155Z" fill="#231F20"/>
<path fill-rule="evenodd" clip-rule="evenodd" d="M370.506 8.98666H373.312V6.18066H370.506V8.98666Z" fill="#FEFEFE"/>
<path fill-rule="evenodd" clip-rule="evenodd" d="M367.697 6.15561H370.503V3.34961H367.697V6.15561Z" fill="#FEFEFE"/>
<path fill-rule="evenodd" clip-rule="evenodd" d="M8.93652 6.15561H367.697V3.34961H8.93652V6.15561Z" fill="#FEFEFE"/>
</svg>
