<svg width="86" height="75" viewBox="0 0 86 75" fill="none" xmlns="http://www.w3.org/2000/svg">
<path fill-rule="evenodd" clip-rule="evenodd" d="M75.1641 73.2678V59.2398H80.7741V56.4338H83.5801V4.48178H80.7741V1.67578H4.48008V4.48178H1.67508V56.4338H4.48008V59.2398H57.7871V62.0448H60.5921V64.8508H63.3971V67.6568H66.2031V70.4618H69.0091V73.2678H75.1641Z" fill="#D9DFE5"/>
<path fill-rule="evenodd" clip-rule="evenodd" d="M82.4499 0V2.805H85.2549V6.156V54.759V58.109H82.4499V60.915H79.0999H76.8389V63.176V65.981V68.787V71.592V74.942H73.4899H70.6829H67.3339V72.137H64.5279V69.331H61.7229V66.525H58.9169V63.72H56.1109V60.915H6.15588H2.80489V58.109H-0.000114441V2.805H2.80489V0H82.4499ZM81.9059 6.156H79.0999V3.35H6.15588V6.156H3.34988V54.759H6.15588V57.564H59.4609V60.37H62.2679V63.176H65.0729V65.981H67.8779V68.787H70.6829V71.592H73.4899V68.787V65.981V63.176V60.37V57.564H79.0999V54.759H81.9059V6.156Z" fill="#231F20"/>
<path fill-rule="evenodd" clip-rule="evenodd" d="M6.1792 8.98569H3.3732V6.17969H6.1792V8.98569Z" fill="#FEFEFE"/>
<path fill-rule="evenodd" clip-rule="evenodd" d="M8.98828 6.15659H6.18228V3.35059H8.98828V6.15659Z" fill="#FEFEFE"/>
<path fill-rule="evenodd" clip-rule="evenodd" d="M79.124 6.15659H76.318V3.35059H79.124V6.15659Z" fill="#FEFEFE"/>
<path fill-rule="evenodd" clip-rule="evenodd" d="M70.6841 68.7865H67.8781V65.9805H70.6841V68.7865Z" fill="#FEFEFE"/>
<path fill-rule="evenodd" clip-rule="evenodd" d="M67.8794 65.9808H65.0734V63.1748H67.8794V65.9808Z" fill="#FEFEFE"/>
<path fill-rule="evenodd" clip-rule="evenodd" d="M65.0732 63.1751H62.2672V60.3691H65.0732V63.1751Z" fill="#FEFEFE"/>
<path fill-rule="evenodd" clip-rule="evenodd" d="M62.2681 60.3705H59.4621V57.5645H62.2681V60.3705Z" fill="#FEFEFE"/>
<path fill-rule="evenodd" clip-rule="evenodd" d="M76.3184 6.15659H73.5124V3.35059H76.3184V6.15659Z" fill="#FEFEFE"/>
<path fill-rule="evenodd" clip-rule="evenodd" d="M76.3184 6.15659H8.98836V3.35059H76.3184V6.15659Z" fill="#FEFEFE"/>
<path fill-rule="evenodd" clip-rule="evenodd" d="M81.9282 8.96127H79.1222V6.15527H81.9282V8.96127Z" fill="#FEFEFE"/>
<path fill-rule="evenodd" clip-rule="evenodd" d="M79.124 8.96127H76.318V6.15527H79.124V8.96127Z" fill="#BECAD7"/>
<path fill-rule="evenodd" clip-rule="evenodd" d="M76.3184 8.96127H73.5124V6.15527H76.3184V8.96127Z" fill="#BECAD7"/>
<path fill-rule="evenodd" clip-rule="evenodd" d="M81.9282 11.7669H79.1222V8.96094H81.9282V11.7669Z" fill="#BECAD7"/>
<path fill-rule="evenodd" clip-rule="evenodd" d="M79.124 11.7669H76.318V8.96094H79.124V11.7669Z" fill="#BECAD7"/>
<path fill-rule="evenodd" clip-rule="evenodd" d="M81.9282 14.5716H79.1222V11.7656H81.9282V14.5716Z" fill="#BECAD7"/>
<path fill-rule="evenodd" clip-rule="evenodd" d="M79.124 57.5648H76.318V54.7588H79.124V57.5648Z" fill="#BECAD7"/>
<path fill-rule="evenodd" clip-rule="evenodd" d="M76.3184 57.5648H73.5124V54.7588H76.3184V57.5648Z" fill="#BECAD7"/>
<path fill-rule="evenodd" clip-rule="evenodd" d="M73.5132 57.5648H70.7072V54.7588H73.5132V57.5648Z" fill="#BECAD7"/>
<path fill-rule="evenodd" clip-rule="evenodd" d="M73.4902 60.3705H70.6842V57.5645H73.4902V60.3705Z" fill="#BECAD7"/>
<path fill-rule="evenodd" clip-rule="evenodd" d="M73.4902 63.1761H70.6842V60.3701H73.4902V63.1761Z" fill="#BECAD7"/>
<path fill-rule="evenodd" clip-rule="evenodd" d="M56.6557 31.1549V28.7999H59.0107V26.4639H61.3667H61.3857H63.7407V28.8189H66.0767V31.1739V31.1929V33.5489H63.7217V35.8849H61.3667H61.3467H58.9917V33.5299H56.6557V31.1739V31.1549Z" fill="#231F20"/>
<path fill-rule="evenodd" clip-rule="evenodd" d="M37.9428 31.1549V28.7999H40.2978V26.4639H42.6538H42.6728H45.0278V28.8189H47.3638V31.1739V31.1929V33.5489H45.0088V35.8849H42.6538H42.6338H40.2788V33.5299H37.9428V31.1739V31.1549Z" fill="#231F20"/>
<path fill-rule="evenodd" clip-rule="evenodd" d="M19.2294 31.1549V28.7999H21.5844V26.4639H23.9404H23.9594H26.3144V28.8189H28.6504V31.1739V31.1929V33.5489H26.2954V35.8849H23.9404H23.9204H21.5654V33.5299H19.2294V31.1739V31.1549Z" fill="#231F20"/>
<path fill-rule="evenodd" clip-rule="evenodd" d="M73.4902 65.9808H70.6842V63.1748H73.4902V65.9808Z" fill="#BECAD7"/>
<path fill-rule="evenodd" clip-rule="evenodd" d="M73.4902 68.7874H70.6842V65.9814H73.4902V68.7874Z" fill="#BECAD7"/>
<path fill-rule="evenodd" clip-rule="evenodd" d="M73.4902 71.5921H70.6842V68.7861H73.4902V71.5921Z" fill="#BECAD7"/>
<path fill-rule="evenodd" clip-rule="evenodd" d="M81.9282 54.7591H79.1222V51.9531H81.9282V54.7591Z" fill="#BECAD7"/>
<path fill-rule="evenodd" clip-rule="evenodd" d="M79.124 54.7591H76.318V51.9531H79.124V54.7591Z" fill="#BECAD7"/>
<path fill-rule="evenodd" clip-rule="evenodd" d="M81.9282 51.9544H79.1222V49.1484H81.9282V51.9544Z" fill="#BECAD7"/>
</svg>
