<svg width="1920" height="3245" viewBox="0 0 1920 3245" fill="none" xmlns="http://www.w3.org/2000/svg">
<g opacity="0.25">
<path d="M623.664 421.249L684.921 385.948L746.179 421.249L684.921 456.55L623.664 421.249Z" stroke="#393254"/>
<path d="M501.132 421.249L562.39 385.948L623.648 421.249L562.39 456.55L501.132 421.249Z" stroke="#393254"/>
<path d="M378.601 421.249L439.859 385.948L501.117 421.249L439.859 456.55L378.601 421.249Z" stroke="#393254"/>
<path d="M256.078 421.249L317.335 385.948L378.593 421.249L317.335 456.55L256.078 421.249Z" stroke="#393254"/>
<path d="M133.546 421.249L194.804 385.948L256.062 421.249L194.804 456.55L133.546 421.249Z" stroke="#393254"/>
<path d="M11.023 421.249L72.2808 385.948L133.539 421.249L72.2808 456.55L11.023 421.249Z" stroke="#393254"/>
<path d="M746.187 421.249L807.445 385.948L868.703 421.249L807.445 456.55L746.187 421.249Z" stroke="#393254"/>
<path d="M868.71 421.249L929.968 385.948L991.226 421.249L929.968 456.55L868.71 421.249Z" stroke="#393254"/>
<path d="M991.242 421.249L1052.5 385.948L1113.76 421.249L1052.5 456.55L991.242 421.249Z" stroke="#393254"/>
<path d="M1113.77 421.249L1175.02 385.948L1236.28 421.249L1175.02 456.55L1113.77 421.249Z" stroke="#393254"/>
<path d="M1236.3 421.249L1297.55 385.948L1358.81 421.249L1297.55 456.55L1236.3 421.249Z" stroke="#393254"/>
<path d="M1358.82 421.249L1420.08 385.948L1481.34 421.249L1420.08 456.55L1358.82 421.249Z" stroke="#393254"/>
<path d="M1481.35 421.249L1542.61 385.948L1603.87 421.249L1542.61 456.55L1481.35 421.249Z" stroke="#393254"/>
<path d="M1603.88 421.249L1665.14 385.948L1726.4 421.249L1665.14 456.55L1603.88 421.249Z" stroke="#393254"/>
<path d="M1726.41 421.249L1787.66 385.948L1848.92 421.249L1787.66 456.55L1726.41 421.249Z" stroke="#393254"/>
<path d="M1848.93 421.249L1910.19 385.948L1971.44 421.249L1910.19 456.55L1848.93 421.249Z" stroke="#393254"/>
<path d="M623.664 491.888L684.921 456.587L746.179 491.888L684.921 527.189L623.664 491.888Z" stroke="#393254"/>
<path d="M501.132 491.888L562.39 456.587L623.648 491.888L562.39 527.189L501.132 491.888Z" stroke="#393254"/>
<path d="M378.601 491.888L439.859 456.587L501.117 491.888L439.859 527.189L378.601 491.888Z" stroke="#393254"/>
<path d="M256.078 491.888L317.335 456.587L378.593 491.888L317.335 527.189L256.078 491.888Z" stroke="#393254"/>
<path d="M133.546 491.888L194.804 456.587L256.062 491.888L194.804 527.189L133.546 491.888Z" stroke="#393254"/>
<path d="M11.023 491.888L72.2808 456.587L133.539 491.888L72.2808 527.189L11.023 491.888Z" stroke="#393254"/>
<path d="M746.187 491.888L807.445 456.587L868.703 491.888L807.445 527.189L746.187 491.888Z" stroke="#393254"/>
<path d="M868.71 491.888L929.968 456.587L991.226 491.888L929.968 527.189L868.71 491.888Z" stroke="#393254"/>
<path d="M991.242 491.888L1052.5 456.587L1113.76 491.888L1052.5 527.189L991.242 491.888Z" stroke="#393254"/>
<path d="M1113.77 491.888L1175.02 456.587L1236.28 491.888L1175.02 527.189L1113.77 491.888Z" stroke="#393254"/>
<path d="M1236.3 491.888L1297.55 456.587L1358.81 491.888L1297.55 527.189L1236.3 491.888Z" stroke="#393254"/>
<path d="M1358.82 491.888L1420.08 456.587L1481.34 491.888L1420.08 527.189L1358.82 491.888Z" stroke="#393254"/>
<path d="M1481.35 491.888L1542.61 456.587L1603.87 491.888L1542.61 527.189L1481.35 491.888Z" stroke="#393254"/>
<path d="M1603.88 491.888L1665.14 456.587L1726.4 491.888L1665.14 527.189L1603.88 491.888Z" stroke="#393254"/>
<path d="M1726.41 491.888L1787.66 456.587L1848.92 491.888L1787.66 527.189L1726.41 491.888Z" stroke="#393254"/>
<path d="M1848.93 491.888L1910.19 456.587L1971.44 491.888L1910.19 527.189L1848.93 491.888Z" stroke="#393254"/>
<path d="M623.664 562.575L684.921 527.274L746.179 562.575L684.921 597.877L623.664 562.575Z" stroke="#393254"/>
<path d="M501.132 562.575L562.39 527.274L623.648 562.575L562.39 597.877L501.132 562.575Z" stroke="#393254"/>
<path d="M378.601 562.575L439.859 527.274L501.117 562.575L439.859 597.877L378.601 562.575Z" stroke="#393254"/>
<path d="M256.078 562.575L317.335 527.274L378.593 562.575L317.335 597.877L256.078 562.575Z" stroke="#393254"/>
<path d="M133.546 562.575L194.804 527.274L256.062 562.575L194.804 597.877L133.546 562.575Z" stroke="#393254"/>
<path d="M11.023 562.575L72.2808 527.274L133.539 562.575L72.2808 597.877L11.023 562.575Z" stroke="#393254"/>
<path d="M746.187 562.575L807.445 527.274L868.703 562.575L807.445 597.877L746.187 562.575Z" stroke="#393254"/>
<path d="M868.71 562.575L929.968 527.274L991.226 562.575L929.968 597.877L868.71 562.575Z" stroke="#393254"/>
<path d="M991.242 562.575L1052.5 527.274L1113.76 562.575L1052.5 597.877L991.242 562.575Z" stroke="#393254"/>
<path d="M1113.77 562.575L1175.02 527.274L1236.28 562.575L1175.02 597.877L1113.77 562.575Z" stroke="#393254"/>
<path d="M1236.3 562.575L1297.55 527.274L1358.81 562.575L1297.55 597.877L1236.3 562.575Z" stroke="#393254"/>
<path d="M1358.83 562.575L1420.09 527.274L1481.34 562.575L1420.09 597.877L1358.83 562.575Z" stroke="#393254"/>
<path d="M1481.35 562.575L1542.61 527.274L1603.87 562.575L1542.61 597.877L1481.35 562.575Z" stroke="#393254"/>
<path d="M1603.88 562.575L1665.14 527.274L1726.4 562.575L1665.14 597.877L1603.88 562.575Z" stroke="#393254"/>
<path d="M1726.41 562.575L1787.66 527.274L1848.92 562.575L1787.66 597.877L1726.41 562.575Z" stroke="#393254"/>
<path d="M1848.93 562.575L1910.19 527.274L1971.44 562.575L1910.19 597.877L1848.93 562.575Z" stroke="#393254"/>
<path d="M623.664 633.216L684.921 597.915L746.179 633.216L684.921 668.517L623.664 633.216Z" stroke="#393254"/>
<path d="M501.132 633.216L562.39 597.915L623.648 633.216L562.39 668.517L501.132 633.216Z" stroke="#393254"/>
<path d="M378.601 633.216L439.859 597.915L501.117 633.216L439.859 668.517L378.601 633.216Z" stroke="#393254"/>
<path d="M256.078 633.216L317.335 597.915L378.593 633.216L317.335 668.517L256.078 633.216Z" stroke="#393254"/>
<path d="M133.546 633.216L194.804 597.915L256.062 633.216L194.804 668.517L133.546 633.216Z" stroke="#393254"/>
<path d="M11.023 633.216L72.2808 597.915L133.539 633.216L72.2808 668.517L11.023 633.216Z" stroke="#393254"/>
<path d="M746.187 633.216L807.445 597.915L868.703 633.216L807.445 668.517L746.187 633.216Z" stroke="#393254"/>
<path d="M868.71 633.216L929.968 597.915L991.226 633.216L929.968 668.517L868.71 633.216Z" stroke="#393254"/>
<path d="M991.242 633.216L1052.5 597.915L1113.76 633.216L1052.5 668.517L991.242 633.216Z" stroke="#393254"/>
<path d="M1113.77 633.216L1175.02 597.915L1236.28 633.216L1175.02 668.517L1113.77 633.216Z" stroke="#393254"/>
<path d="M1236.3 633.216L1297.55 597.915L1358.81 633.216L1297.55 668.517L1236.3 633.216Z" stroke="#393254"/>
<path d="M1358.82 633.216L1420.08 597.915L1481.34 633.216L1420.08 668.517L1358.82 633.216Z" stroke="#393254"/>
<path d="M1481.35 633.216L1542.61 597.915L1603.87 633.216L1542.61 668.517L1481.35 633.216Z" stroke="#393254"/>
<path d="M1603.88 633.216L1665.14 597.915L1726.4 633.216L1665.14 668.517L1603.88 633.216Z" stroke="#393254"/>
<path d="M1726.41 633.216L1787.66 597.915L1848.92 633.216L1787.66 668.517L1726.41 633.216Z" stroke="#393254"/>
<path d="M1848.93 633.216L1910.19 597.915L1971.44 633.216L1910.19 668.517L1848.93 633.216Z" stroke="#393254"/>
<path d="M623.664 703.905L684.921 668.603L746.179 703.905L684.921 739.206L623.664 703.905Z" stroke="#393254"/>
<path d="M501.132 703.905L562.39 668.603L623.648 703.905L562.39 739.206L501.132 703.905Z" stroke="#393254"/>
<path d="M378.601 703.905L439.859 668.603L501.117 703.905L439.859 739.206L378.601 703.905Z" stroke="#393254"/>
<path d="M256.078 703.905L317.335 668.603L378.593 703.905L317.335 739.206L256.078 703.905Z" stroke="#393254"/>
<path d="M133.546 703.905L194.804 668.603L256.062 703.905L194.804 739.206L133.546 703.905Z" stroke="#393254"/>
<path d="M11.023 703.905L72.2808 668.603L133.539 703.905L72.2808 739.206L11.023 703.905Z" stroke="#393254"/>
<path d="M746.187 703.905L807.445 668.603L868.703 703.905L807.445 739.206L746.187 703.905Z" stroke="#393254"/>
<path d="M868.71 703.905L929.968 668.603L991.226 703.905L929.968 739.206L868.71 703.905Z" stroke="#393254"/>
<path d="M991.242 703.905L1052.5 668.603L1113.76 703.905L1052.5 739.206L991.242 703.905Z" stroke="#393254"/>
<path d="M1113.77 703.905L1175.02 668.603L1236.28 703.905L1175.02 739.206L1113.77 703.905Z" stroke="#393254"/>
<path d="M1236.3 703.905L1297.55 668.603L1358.81 703.905L1297.55 739.206L1236.3 703.905Z" stroke="#393254"/>
<path d="M1358.82 703.905L1420.08 668.603L1481.34 703.905L1420.08 739.206L1358.82 703.905Z" stroke="#393254"/>
<path d="M1481.35 703.905L1542.61 668.603L1603.87 703.905L1542.61 739.206L1481.35 703.905Z" stroke="#393254"/>
<path d="M1603.88 703.905L1665.14 668.603L1726.4 703.905L1665.14 739.206L1603.88 703.905Z" stroke="#393254"/>
<path d="M1726.41 703.905L1787.66 668.603L1848.92 703.905L1787.66 739.206L1726.41 703.905Z" stroke="#393254"/>
<path d="M1848.93 703.905L1910.19 668.603L1971.44 703.905L1910.19 739.206L1848.93 703.905Z" stroke="#393254"/>
<path d="M623.664 774.541L684.921 739.24L746.179 774.541L684.921 809.842L623.664 774.541Z" stroke="#393254"/>
<path d="M501.132 774.541L562.39 739.24L623.648 774.541L562.39 809.842L501.132 774.541Z" stroke="#393254"/>
<path d="M378.601 774.541L439.859 739.24L501.117 774.541L439.859 809.842L378.601 774.541Z" stroke="#393254"/>
<path d="M256.078 774.541L317.335 739.24L378.593 774.541L317.335 809.842L256.078 774.541Z" stroke="#393254"/>
<path d="M133.546 774.541L194.804 739.24L256.062 774.541L194.804 809.842L133.546 774.541Z" stroke="#393254"/>
<path d="M11.023 774.541L72.2808 739.24L133.539 774.541L72.2808 809.842L11.023 774.541Z" stroke="#393254"/>
<path d="M746.187 774.541L807.445 739.24L868.703 774.541L807.445 809.842L746.187 774.541Z" stroke="#393254"/>
<path d="M868.71 774.541L929.968 739.24L991.226 774.541L929.968 809.842L868.71 774.541Z" stroke="#393254"/>
<path d="M991.242 774.541L1052.5 739.24L1113.76 774.541L1052.5 809.842L991.242 774.541Z" stroke="#393254"/>
<path d="M1113.77 774.541L1175.02 739.24L1236.28 774.541L1175.02 809.842L1113.77 774.541Z" stroke="#393254"/>
<path d="M1236.3 774.541L1297.55 739.24L1358.81 774.541L1297.55 809.842L1236.3 774.541Z" stroke="#393254"/>
<path d="M1358.82 774.541L1420.08 739.24L1481.34 774.541L1420.08 809.842L1358.82 774.541Z" stroke="#393254"/>
<path d="M1481.35 774.541L1542.61 739.24L1603.87 774.541L1542.61 809.842L1481.35 774.541Z" stroke="#393254"/>
<path d="M1603.88 774.541L1665.14 739.24L1726.4 774.541L1665.14 809.842L1603.88 774.541Z" stroke="#393254"/>
<path d="M1726.41 774.541L1787.66 739.24L1848.92 774.541L1787.66 809.842L1726.41 774.541Z" stroke="#393254"/>
<path d="M1848.93 774.541L1910.19 739.24L1971.44 774.541L1910.19 809.842L1848.93 774.541Z" stroke="#393254"/>
<path d="M623.664 845.227L684.921 809.926L746.179 845.227L684.921 880.528L623.664 845.227Z" stroke="#393254"/>
<path d="M501.132 845.227L562.39 809.926L623.648 845.227L562.39 880.528L501.132 845.227Z" stroke="#393254"/>
<path d="M378.601 845.227L439.859 809.926L501.117 845.227L439.859 880.528L378.601 845.227Z" stroke="#393254"/>
<path d="M256.078 845.227L317.335 809.926L378.593 845.227L317.335 880.528L256.078 845.227Z" stroke="#393254"/>
<path d="M133.546 845.227L194.804 809.926L256.062 845.227L194.804 880.528L133.546 845.227Z" stroke="#393254"/>
<path d="M11.023 845.227L72.2808 809.926L133.539 845.227L72.2808 880.528L11.023 845.227Z" stroke="#393254"/>
<path d="M746.187 845.227L807.445 809.926L868.703 845.227L807.445 880.528L746.187 845.227Z" stroke="#393254"/>
<path d="M868.71 845.227L929.968 809.926L991.226 845.227L929.968 880.528L868.71 845.227Z" stroke="#393254"/>
<path d="M991.242 845.227L1052.5 809.926L1113.76 845.227L1052.5 880.528L991.242 845.227Z" stroke="#393254"/>
<path d="M1113.77 845.227L1175.02 809.926L1236.28 845.227L1175.02 880.528L1113.77 845.227Z" stroke="#393254"/>
<path d="M1236.3 845.227L1297.55 809.926L1358.81 845.227L1297.55 880.528L1236.3 845.227Z" stroke="#393254"/>
<path d="M1358.82 845.227L1420.08 809.926L1481.34 845.227L1420.08 880.528L1358.82 845.227Z" stroke="#393254"/>
<path d="M1481.35 845.227L1542.61 809.926L1603.87 845.227L1542.61 880.528L1481.35 845.227Z" stroke="#393254"/>
<path d="M1603.88 845.227L1665.14 809.926L1726.4 845.227L1665.14 880.528L1603.88 845.227Z" stroke="#393254"/>
<path d="M1726.41 845.227L1787.66 809.926L1848.92 845.227L1787.66 880.528L1726.41 845.227Z" stroke="#393254"/>
<path d="M1848.93 845.227L1910.19 809.926L1971.44 845.227L1910.19 880.528L1848.93 845.227Z" stroke="#393254"/>
<path d="M623.664 915.864L684.921 880.562L746.179 915.864L684.921 951.165L623.664 915.864Z" stroke="#393254"/>
<path d="M501.132 915.864L562.39 880.562L623.648 915.864L562.39 951.165L501.132 915.864Z" stroke="#393254"/>
<path d="M378.601 915.864L439.859 880.562L501.117 915.864L439.859 951.165L378.601 915.864Z" stroke="#393254"/>
<path d="M256.078 915.864L317.335 880.562L378.593 915.864L317.335 951.165L256.078 915.864Z" stroke="#393254"/>
<path d="M133.546 915.864L194.804 880.562L256.062 915.864L194.804 951.165L133.546 915.864Z" stroke="#393254"/>
<path d="M11.023 915.864L72.2808 880.562L133.539 915.864L72.2808 951.165L11.023 915.864Z" stroke="#393254"/>
<path d="M746.187 915.864L807.445 880.562L868.703 915.864L807.445 951.165L746.187 915.864Z" stroke="#393254"/>
<path d="M868.71 915.864L929.968 880.562L991.226 915.864L929.968 951.165L868.71 915.864Z" stroke="#393254"/>
<path d="M991.242 915.864L1052.5 880.562L1113.76 915.864L1052.5 951.165L991.242 915.864Z" stroke="#393254"/>
<path d="M1113.77 915.864L1175.02 880.562L1236.28 915.864L1175.02 951.165L1113.77 915.864Z" stroke="#393254"/>
<path d="M1236.3 915.864L1297.55 880.562L1358.81 915.864L1297.55 951.165L1236.3 915.864Z" stroke="#393254"/>
<path d="M1358.82 915.864L1420.08 880.562L1481.34 915.864L1420.08 951.165L1358.82 915.864Z" stroke="#393254"/>
<path d="M1481.35 915.864L1542.61 880.562L1603.87 915.864L1542.61 951.165L1481.35 915.864Z" stroke="#393254"/>
<path d="M1603.88 915.864L1665.14 880.562L1726.4 915.864L1665.14 951.165L1603.88 915.864Z" stroke="#393254"/>
<path d="M1726.41 915.864L1787.66 880.562L1848.92 915.864L1787.66 951.165L1726.41 915.864Z" stroke="#393254"/>
<path d="M1848.93 915.864L1910.19 880.562L1971.44 915.864L1910.19 951.165L1848.93 915.864Z" stroke="#393254"/>
<path d="M623.664 986.551L684.921 951.25L746.179 986.551L684.921 1021.85L623.664 986.551Z" stroke="#393254"/>
<path d="M501.132 986.551L562.39 951.25L623.648 986.551L562.39 1021.85L501.132 986.551Z" stroke="#393254"/>
<path d="M378.601 986.551L439.859 951.25L501.117 986.551L439.859 1021.85L378.601 986.551Z" stroke="#393254"/>
<path d="M256.078 986.551L317.335 951.25L378.593 986.551L317.335 1021.85L256.078 986.551Z" stroke="#393254"/>
<path d="M133.546 986.551L194.804 951.25L256.062 986.551L194.804 1021.85L133.546 986.551Z" stroke="#393254"/>
<path d="M11.023 986.551L72.2808 951.25L133.539 986.551L72.2808 1021.85L11.023 986.551Z" stroke="#393254"/>
<path d="M746.187 986.551L807.445 951.25L868.703 986.551L807.445 1021.85L746.187 986.551Z" stroke="#393254"/>
<path d="M868.71 986.551L929.968 951.25L991.226 986.551L929.968 1021.85L868.71 986.551Z" stroke="#393254"/>
<path d="M991.242 986.551L1052.5 951.25L1113.76 986.551L1052.5 1021.85L991.242 986.551Z" stroke="#393254"/>
<path d="M1113.77 986.551L1175.02 951.25L1236.28 986.551L1175.02 1021.85L1113.77 986.551Z" stroke="#393254"/>
<path d="M1236.3 986.551L1297.55 951.25L1358.81 986.551L1297.55 1021.85L1236.3 986.551Z" stroke="#393254"/>
<path d="M1358.82 986.551L1420.08 951.25L1481.34 986.551L1420.08 1021.85L1358.82 986.551Z" stroke="#393254"/>
<path d="M1481.35 986.551L1542.61 951.25L1603.87 986.551L1542.61 1021.85L1481.35 986.551Z" stroke="#393254"/>
<path d="M1603.88 986.551L1665.14 951.25L1726.4 986.551L1665.14 1021.85L1603.88 986.551Z" stroke="#393254"/>
<path d="M1726.41 986.551L1787.66 951.25L1848.92 986.551L1787.66 1021.85L1726.41 986.551Z" stroke="#393254"/>
<path d="M1848.93 986.551L1910.19 951.25L1971.44 986.551L1910.19 1021.85L1848.93 986.551Z" stroke="#393254"/>
<path d="M623.664 1057.18L684.921 1021.88L746.179 1057.18L684.921 1092.48L623.664 1057.18Z" stroke="#393254"/>
<path d="M501.132 1057.18L562.39 1021.88L623.648 1057.18L562.39 1092.48L501.132 1057.18Z" stroke="#393254"/>
<path d="M378.601 1057.18L439.859 1021.88L501.117 1057.18L439.859 1092.48L378.601 1057.18Z" stroke="#393254"/>
<path d="M256.078 1057.18L317.335 1021.88L378.593 1057.18L317.335 1092.48L256.078 1057.18Z" stroke="#393254"/>
<path d="M133.546 1057.18L194.804 1021.88L256.062 1057.18L194.804 1092.48L133.546 1057.18Z" stroke="#393254"/>
<path d="M11.023 1057.18L72.2808 1021.88L133.539 1057.18L72.2808 1092.48L11.023 1057.18Z" stroke="#393254"/>
<path d="M746.187 1057.18L807.445 1021.88L868.703 1057.18L807.445 1092.48L746.187 1057.18Z" stroke="#393254"/>
<path d="M868.71 1057.18L929.968 1021.88L991.226 1057.18L929.968 1092.48L868.71 1057.18Z" stroke="#393254"/>
<path d="M991.242 1057.18L1052.5 1021.88L1113.76 1057.18L1052.5 1092.48L991.242 1057.18Z" stroke="#393254"/>
<path d="M1113.77 1057.18L1175.02 1021.88L1236.28 1057.18L1175.02 1092.48L1113.77 1057.18Z" stroke="#393254"/>
<path d="M1236.3 1057.18L1297.55 1021.88L1358.81 1057.18L1297.55 1092.48L1236.3 1057.18Z" stroke="#393254"/>
<path d="M1358.82 1057.18L1420.08 1021.88L1481.34 1057.18L1420.08 1092.48L1358.82 1057.18Z" stroke="#393254"/>
<path d="M1481.35 1057.18L1542.61 1021.88L1603.87 1057.18L1542.61 1092.48L1481.35 1057.18Z" stroke="#393254"/>
<path d="M1603.88 1057.18L1665.14 1021.88L1726.4 1057.18L1665.14 1092.48L1603.88 1057.18Z" stroke="#393254"/>
<path d="M1726.41 1057.18L1787.66 1021.88L1848.92 1057.18L1787.66 1092.48L1726.41 1057.18Z" stroke="#393254"/>
<path d="M1848.93 1057.18L1910.19 1021.88L1971.44 1057.18L1910.19 1092.48L1848.93 1057.18Z" stroke="#393254"/>
<path d="M623.664 1127.87L684.921 1092.57L746.179 1127.87L684.921 1163.17L623.664 1127.87Z" stroke="#393254"/>
<path d="M501.132 1127.87L562.39 1092.57L623.648 1127.87L562.39 1163.17L501.132 1127.87Z" stroke="#393254"/>
<path d="M378.601 1127.87L439.859 1092.57L501.117 1127.87L439.859 1163.17L378.601 1127.87Z" stroke="#393254"/>
<path d="M256.078 1127.87L317.335 1092.57L378.593 1127.87L317.335 1163.17L256.078 1127.87Z" stroke="#393254"/>
<path d="M133.546 1127.87L194.804 1092.57L256.062 1127.87L194.804 1163.17L133.546 1127.87Z" stroke="#393254"/>
<path d="M11.023 1127.87L72.2808 1092.57L133.539 1127.87L72.2808 1163.17L11.023 1127.87Z" stroke="#393254"/>
<path d="M746.187 1127.87L807.445 1092.57L868.703 1127.87L807.445 1163.17L746.187 1127.87Z" stroke="#393254"/>
<path d="M868.71 1127.87L929.968 1092.57L991.226 1127.87L929.968 1163.17L868.71 1127.87Z" stroke="#393254"/>
<path d="M991.242 1127.87L1052.5 1092.57L1113.76 1127.87L1052.5 1163.17L991.242 1127.87Z" stroke="#393254"/>
<path d="M1113.77 1127.87L1175.02 1092.57L1236.28 1127.87L1175.02 1163.17L1113.77 1127.87Z" stroke="#393254"/>
<path d="M1236.3 1127.87L1297.55 1092.57L1358.81 1127.87L1297.55 1163.17L1236.3 1127.87Z" stroke="#393254"/>
<path d="M1358.82 1127.87L1420.08 1092.57L1481.34 1127.87L1420.08 1163.17L1358.82 1127.87Z" stroke="#393254"/>
<path d="M1481.35 1127.87L1542.61 1092.57L1603.87 1127.87L1542.61 1163.17L1481.35 1127.87Z" stroke="#393254"/>
<path d="M1603.88 1127.87L1665.14 1092.57L1726.4 1127.87L1665.14 1163.17L1603.88 1127.87Z" stroke="#393254"/>
<path d="M1726.41 1127.87L1787.66 1092.57L1848.92 1127.87L1787.66 1163.17L1726.41 1127.87Z" stroke="#393254"/>
<path d="M1848.93 1127.87L1910.19 1092.57L1971.44 1127.87L1910.19 1163.17L1848.93 1127.87Z" stroke="#393254"/>
<path d="M623.664 1198.51L684.921 1163.21L746.179 1198.51L684.921 1233.81L623.664 1198.51Z" stroke="#393254"/>
<path d="M501.132 1198.51L562.39 1163.21L623.648 1198.51L562.39 1233.81L501.132 1198.51Z" stroke="#393254"/>
<path d="M378.601 1198.51L439.859 1163.21L501.117 1198.51L439.859 1233.81L378.601 1198.51Z" stroke="#393254"/>
<path d="M256.078 1198.51L317.335 1163.21L378.593 1198.51L317.335 1233.81L256.078 1198.51Z" stroke="#393254"/>
<path d="M133.546 1198.51L194.804 1163.21L256.062 1198.51L194.804 1233.81L133.546 1198.51Z" stroke="#393254"/>
<path d="M11.023 1198.51L72.2808 1163.21L133.539 1198.51L72.2808 1233.81L11.023 1198.51Z" stroke="#393254"/>
<path d="M746.187 1198.51L807.445 1163.21L868.703 1198.51L807.445 1233.81L746.187 1198.51Z" stroke="#393254"/>
<path d="M868.71 1198.51L929.968 1163.21L991.226 1198.51L929.968 1233.81L868.71 1198.51Z" stroke="#393254"/>
<path d="M991.242 1198.51L1052.5 1163.21L1113.76 1198.51L1052.5 1233.81L991.242 1198.51Z" stroke="#393254"/>
<path d="M1113.77 1198.51L1175.02 1163.21L1236.28 1198.51L1175.02 1233.81L1113.77 1198.51Z" stroke="#393254"/>
<path d="M1236.3 1198.51L1297.55 1163.21L1358.81 1198.51L1297.55 1233.81L1236.3 1198.51Z" stroke="#393254"/>
<path d="M1358.82 1198.51L1420.08 1163.21L1481.34 1198.51L1420.08 1233.81L1358.82 1198.51Z" stroke="#393254"/>
<path d="M1481.35 1198.51L1542.61 1163.21L1603.87 1198.51L1542.61 1233.81L1481.35 1198.51Z" stroke="#393254"/>
<path d="M1603.88 1198.51L1665.14 1163.21L1726.4 1198.51L1665.14 1233.81L1603.88 1198.51Z" stroke="#393254"/>
<path d="M1726.41 1198.51L1787.66 1163.21L1848.92 1198.51L1787.66 1233.81L1726.41 1198.51Z" stroke="#393254"/>
<path d="M1848.93 1198.51L1910.19 1163.21L1971.44 1198.51L1910.19 1233.81L1848.93 1198.51Z" stroke="#393254"/>
<path d="M623.664 1269.2L684.921 1233.89L746.179 1269.2L684.921 1304.5L623.664 1269.2Z" stroke="#393254"/>
<path d="M501.132 1269.2L562.39 1233.89L623.648 1269.2L562.39 1304.5L501.132 1269.2Z" stroke="#393254"/>
<path d="M378.601 1269.2L439.859 1233.89L501.117 1269.2L439.859 1304.5L378.601 1269.2Z" stroke="#393254"/>
<path d="M256.078 1269.2L317.335 1233.89L378.593 1269.2L317.335 1304.5L256.078 1269.2Z" stroke="#393254"/>
<path d="M133.546 1269.2L194.804 1233.89L256.062 1269.2L194.804 1304.5L133.546 1269.2Z" stroke="#393254"/>
<path d="M11.023 1269.2L72.2808 1233.89L133.539 1269.2L72.2808 1304.5L11.023 1269.2Z" stroke="#393254"/>
<path d="M746.187 1269.2L807.445 1233.89L868.703 1269.2L807.445 1304.5L746.187 1269.2Z" stroke="#393254"/>
<path d="M868.71 1269.2L929.968 1233.89L991.226 1269.2L929.968 1304.5L868.71 1269.2Z" stroke="#393254"/>
<path d="M991.242 1269.2L1052.5 1233.89L1113.76 1269.2L1052.5 1304.5L991.242 1269.2Z" stroke="#393254"/>
<path d="M1113.77 1269.2L1175.02 1233.89L1236.28 1269.2L1175.02 1304.5L1113.77 1269.2Z" stroke="#393254"/>
<path d="M1236.3 1269.2L1297.55 1233.89L1358.81 1269.2L1297.55 1304.5L1236.3 1269.2Z" stroke="#393254"/>
<path d="M1358.82 1269.2L1420.08 1233.89L1481.34 1269.2L1420.08 1304.5L1358.82 1269.2Z" stroke="#393254"/>
<path d="M1481.35 1269.2L1542.61 1233.89L1603.87 1269.2L1542.61 1304.5L1481.35 1269.2Z" stroke="#393254"/>
<path d="M1603.88 1269.2L1665.14 1233.89L1726.4 1269.2L1665.14 1304.5L1603.88 1269.2Z" stroke="#393254"/>
<path d="M1726.41 1269.2L1787.66 1233.89L1848.92 1269.2L1787.66 1304.5L1726.41 1269.2Z" stroke="#393254"/>
<path d="M1848.93 1269.2L1910.19 1233.89L1971.44 1269.2L1910.19 1304.5L1848.93 1269.2Z" stroke="#393254"/>
<path d="M623.664 1339.84L684.921 1304.54L746.179 1339.84L684.921 1375.14L623.664 1339.84Z" stroke="#393254"/>
<path d="M501.132 1339.84L562.39 1304.54L623.648 1339.84L562.39 1375.14L501.132 1339.84Z" stroke="#393254"/>
<path d="M378.601 1339.84L439.859 1304.54L501.117 1339.84L439.859 1375.14L378.601 1339.84Z" stroke="#393254"/>
<path d="M256.078 1339.84L317.335 1304.54L378.593 1339.84L317.335 1375.14L256.078 1339.84Z" stroke="#393254"/>
<path d="M133.546 1339.84L194.804 1304.54L256.062 1339.84L194.804 1375.14L133.546 1339.84Z" stroke="#393254"/>
<path d="M11.023 1339.84L72.2808 1304.54L133.539 1339.84L72.2808 1375.14L11.023 1339.84Z" stroke="#393254"/>
<path d="M746.187 1339.84L807.445 1304.54L868.703 1339.84L807.445 1375.14L746.187 1339.84Z" stroke="#393254"/>
<path d="M868.71 1339.84L929.968 1304.54L991.226 1339.84L929.968 1375.14L868.71 1339.84Z" stroke="#393254"/>
<path d="M991.242 1339.84L1052.5 1304.54L1113.76 1339.84L1052.5 1375.14L991.242 1339.84Z" stroke="#393254"/>
<path d="M1113.77 1339.84L1175.02 1304.54L1236.28 1339.84L1175.02 1375.14L1113.77 1339.84Z" stroke="#393254"/>
<path d="M1236.3 1339.84L1297.55 1304.54L1358.81 1339.84L1297.55 1375.14L1236.3 1339.84Z" stroke="#393254"/>
<path d="M1358.82 1339.84L1420.08 1304.54L1481.34 1339.84L1420.08 1375.14L1358.82 1339.84Z" stroke="#393254"/>
<path d="M1481.35 1339.84L1542.61 1304.54L1603.87 1339.84L1542.61 1375.14L1481.35 1339.84Z" stroke="#393254"/>
<path d="M1603.88 1339.84L1665.14 1304.54L1726.4 1339.84L1665.14 1375.14L1603.88 1339.84Z" stroke="#393254"/>
<path d="M1726.41 1339.84L1787.66 1304.54L1848.92 1339.84L1787.66 1375.14L1726.41 1339.84Z" stroke="#393254"/>
<path d="M1848.93 1339.84L1910.19 1304.54L1971.44 1339.84L1910.19 1375.14L1848.93 1339.84Z" stroke="#393254"/>
<path d="M623.664 1410.52L684.921 1375.22L746.179 1410.52L684.921 1445.82L623.664 1410.52Z" stroke="#393254"/>
<path d="M501.132 1410.52L562.39 1375.22L623.648 1410.52L562.39 1445.82L501.132 1410.52Z" stroke="#393254"/>
<path d="M378.601 1410.52L439.859 1375.22L501.117 1410.52L439.859 1445.82L378.601 1410.52Z" stroke="#393254"/>
<path d="M256.078 1410.52L317.335 1375.22L378.593 1410.52L317.335 1445.82L256.078 1410.52Z" stroke="#393254"/>
<path d="M133.546 1410.52L194.804 1375.22L256.062 1410.52L194.804 1445.82L133.546 1410.52Z" stroke="#393254"/>
<path d="M11.023 1410.52L72.2808 1375.22L133.539 1410.52L72.2808 1445.82L11.023 1410.52Z" stroke="#393254"/>
<path d="M746.187 1410.52L807.445 1375.22L868.703 1410.52L807.445 1445.82L746.187 1410.52Z" stroke="#393254"/>
<path d="M868.71 1410.52L929.968 1375.22L991.226 1410.52L929.968 1445.82L868.71 1410.52Z" stroke="#393254"/>
<path d="M991.242 1410.52L1052.5 1375.22L1113.76 1410.52L1052.5 1445.82L991.242 1410.52Z" stroke="#393254"/>
<path d="M1113.77 1410.52L1175.02 1375.22L1236.28 1410.52L1175.02 1445.82L1113.77 1410.52Z" stroke="#393254"/>
<path d="M1236.3 1410.52L1297.55 1375.22L1358.81 1410.52L1297.55 1445.82L1236.3 1410.52Z" stroke="#393254"/>
<path d="M1358.82 1410.52L1420.08 1375.22L1481.34 1410.52L1420.08 1445.82L1358.82 1410.52Z" stroke="#393254"/>
<path d="M1481.35 1410.52L1542.61 1375.22L1603.87 1410.52L1542.61 1445.82L1481.35 1410.52Z" stroke="#393254"/>
<path d="M1603.88 1410.52L1665.14 1375.22L1726.4 1410.52L1665.14 1445.82L1603.88 1410.52Z" stroke="#393254"/>
<path d="M1726.41 1410.52L1787.66 1375.22L1848.92 1410.52L1787.66 1445.82L1726.41 1410.52Z" stroke="#393254"/>
<path d="M1848.93 1410.52L1910.19 1375.22L1971.44 1410.52L1910.19 1445.82L1848.93 1410.52Z" stroke="#393254"/>
<path d="M623.664 1481.17L684.921 1445.87L746.179 1481.17L684.921 1516.47L623.664 1481.17Z" stroke="#393254"/>
<path d="M501.132 1481.17L562.39 1445.87L623.648 1481.17L562.39 1516.47L501.132 1481.17Z" stroke="#393254"/>
<path d="M378.601 1481.17L439.859 1445.87L501.117 1481.17L439.859 1516.47L378.601 1481.17Z" stroke="#393254"/>
<path d="M256.078 1481.17L317.335 1445.87L378.593 1481.17L317.335 1516.47L256.078 1481.17Z" stroke="#393254"/>
<path d="M133.546 1481.17L194.804 1445.87L256.062 1481.17L194.804 1516.47L133.546 1481.17Z" stroke="#393254"/>
<path d="M11.023 1481.17L72.2808 1445.87L133.539 1481.17L72.2808 1516.47L11.023 1481.17Z" stroke="#393254"/>
<path d="M746.187 1481.17L807.445 1445.87L868.703 1481.17L807.445 1516.47L746.187 1481.17Z" stroke="#393254"/>
<path d="M868.71 1481.17L929.968 1445.87L991.226 1481.17L929.968 1516.47L868.71 1481.17Z" stroke="#393254"/>
<path d="M991.242 1481.17L1052.5 1445.87L1113.76 1481.17L1052.5 1516.47L991.242 1481.17Z" stroke="#393254"/>
<path d="M1113.77 1481.17L1175.02 1445.87L1236.28 1481.17L1175.02 1516.47L1113.77 1481.17Z" stroke="#393254"/>
<path d="M1236.3 1481.17L1297.55 1445.87L1358.81 1481.17L1297.55 1516.47L1236.3 1481.17Z" stroke="#393254"/>
<path d="M1358.82 1481.17L1420.08 1445.87L1481.34 1481.17L1420.08 1516.47L1358.82 1481.17Z" stroke="#393254"/>
<path d="M1481.35 1481.17L1542.61 1445.87L1603.87 1481.17L1542.61 1516.47L1481.35 1481.17Z" stroke="#393254"/>
<path d="M1603.88 1481.17L1665.14 1445.87L1726.4 1481.17L1665.14 1516.47L1603.88 1481.17Z" stroke="#393254"/>
<path d="M1726.41 1481.17L1787.66 1445.87L1848.92 1481.17L1787.66 1516.47L1726.41 1481.17Z" stroke="#393254"/>
<path d="M1848.93 1481.17L1910.19 1445.87L1971.44 1481.17L1910.19 1516.47L1848.93 1481.17Z" stroke="#393254"/>
<path d="M623.664 1551.85L684.921 1516.55L746.179 1551.85L684.921 1587.15L623.664 1551.85Z" stroke="#393254"/>
<path d="M501.132 1551.85L562.39 1516.55L623.648 1551.85L562.39 1587.15L501.132 1551.85Z" stroke="#393254"/>
<path d="M378.601 1551.85L439.859 1516.55L501.117 1551.85L439.859 1587.15L378.601 1551.85Z" stroke="#393254"/>
<path d="M256.078 1551.85L317.335 1516.55L378.593 1551.85L317.335 1587.15L256.078 1551.85Z" stroke="#393254"/>
<path d="M133.546 1551.85L194.804 1516.55L256.062 1551.85L194.804 1587.15L133.546 1551.85Z" stroke="#393254"/>
<path d="M11.023 1551.85L72.2808 1516.55L133.539 1551.85L72.2808 1587.15L11.023 1551.85Z" stroke="#393254"/>
<path d="M746.187 1551.85L807.445 1516.55L868.703 1551.85L807.445 1587.15L746.187 1551.85Z" stroke="#393254"/>
<path d="M868.71 1551.85L929.968 1516.55L991.226 1551.85L929.968 1587.15L868.71 1551.85Z" stroke="#393254"/>
<path d="M991.242 1551.85L1052.5 1516.55L1113.76 1551.85L1052.5 1587.15L991.242 1551.85Z" stroke="#393254"/>
<path d="M1113.77 1551.85L1175.02 1516.55L1236.28 1551.85L1175.02 1587.15L1113.77 1551.85Z" stroke="#393254"/>
<path d="M1236.3 1551.85L1297.55 1516.55L1358.81 1551.85L1297.55 1587.15L1236.3 1551.85Z" stroke="#393254"/>
<path d="M1358.82 1551.85L1420.08 1516.55L1481.34 1551.85L1420.08 1587.15L1358.82 1551.85Z" stroke="#393254"/>
<path d="M1481.35 1551.85L1542.61 1516.55L1603.87 1551.85L1542.61 1587.15L1481.35 1551.85Z" stroke="#393254"/>
<path d="M1603.88 1551.85L1665.14 1516.55L1726.4 1551.85L1665.14 1587.15L1603.88 1551.85Z" stroke="#393254"/>
<path d="M1726.41 1551.85L1787.66 1516.55L1848.92 1551.85L1787.66 1587.15L1726.41 1551.85Z" stroke="#393254"/>
<path d="M1848.93 1551.85L1910.19 1516.55L1971.44 1551.85L1910.19 1587.15L1848.93 1551.85Z" stroke="#393254"/>
<path d="M623.664 1622.5L684.921 1587.2L746.179 1622.5L684.921 1657.8L623.664 1622.5Z" stroke="#393254"/>
<path d="M501.132 1622.5L562.39 1587.2L623.648 1622.5L562.39 1657.8L501.132 1622.5Z" stroke="#393254"/>
<path d="M378.601 1622.5L439.859 1587.2L501.117 1622.5L439.859 1657.8L378.601 1622.5Z" stroke="#393254"/>
<path d="M256.078 1622.5L317.335 1587.2L378.593 1622.5L317.335 1657.8L256.078 1622.5Z" stroke="#393254"/>
<path d="M133.546 1622.5L194.804 1587.2L256.062 1622.5L194.804 1657.8L133.546 1622.5Z" stroke="#393254"/>
<path d="M11.023 1622.5L72.2808 1587.2L133.539 1622.5L72.2808 1657.8L11.023 1622.5Z" stroke="#393254"/>
<path d="M746.187 1622.5L807.445 1587.2L868.703 1622.5L807.445 1657.8L746.187 1622.5Z" stroke="#393254"/>
<path d="M868.71 1622.5L929.968 1587.2L991.226 1622.5L929.968 1657.8L868.71 1622.5Z" stroke="#393254"/>
<path d="M991.242 1622.5L1052.5 1587.2L1113.76 1622.5L1052.5 1657.8L991.242 1622.5Z" stroke="#393254"/>
<path d="M1113.77 1622.5L1175.02 1587.2L1236.28 1622.5L1175.02 1657.8L1113.77 1622.5Z" stroke="#393254"/>
<path d="M1236.3 1622.5L1297.55 1587.2L1358.81 1622.5L1297.55 1657.8L1236.3 1622.5Z" stroke="#393254"/>
<path d="M1358.82 1622.5L1420.08 1587.2L1481.34 1622.5L1420.08 1657.8L1358.82 1622.5Z" stroke="#393254"/>
<path d="M1481.35 1622.5L1542.61 1587.2L1603.87 1622.5L1542.61 1657.8L1481.35 1622.5Z" stroke="#393254"/>
<path d="M1603.88 1622.5L1665.14 1587.2L1726.4 1622.5L1665.14 1657.8L1603.88 1622.5Z" stroke="#393254"/>
<path d="M1726.41 1622.5L1787.66 1587.2L1848.92 1622.5L1787.66 1657.8L1726.41 1622.5Z" stroke="#393254"/>
<path d="M1848.93 1622.5L1910.19 1587.2L1971.44 1622.5L1910.19 1657.8L1848.93 1622.5Z" stroke="#393254"/>
<path d="M623.664 1693.18L684.921 1657.88L746.179 1693.18L684.921 1728.48L623.664 1693.18Z" stroke="#393254"/>
<path d="M501.132 1693.18L562.39 1657.88L623.648 1693.18L562.39 1728.48L501.132 1693.18Z" stroke="#393254"/>
<path d="M378.601 1693.18L439.859 1657.88L501.117 1693.18L439.859 1728.48L378.601 1693.18Z" stroke="#393254"/>
<path d="M256.078 1693.18L317.335 1657.88L378.593 1693.18L317.335 1728.48L256.078 1693.18Z" stroke="#393254"/>
<path d="M133.546 1693.18L194.804 1657.88L256.062 1693.18L194.804 1728.48L133.546 1693.18Z" stroke="#393254"/>
<path d="M11.023 1693.18L72.2808 1657.88L133.539 1693.18L72.2808 1728.48L11.023 1693.18Z" stroke="#393254"/>
<path d="M746.187 1693.18L807.445 1657.88L868.703 1693.18L807.445 1728.48L746.187 1693.18Z" stroke="#393254"/>
<path d="M868.71 1693.18L929.968 1657.88L991.226 1693.18L929.968 1728.48L868.71 1693.18Z" stroke="#393254"/>
<path d="M991.242 1693.18L1052.5 1657.88L1113.76 1693.18L1052.5 1728.48L991.242 1693.18Z" stroke="#393254"/>
<path d="M1113.77 1693.18L1175.02 1657.88L1236.28 1693.18L1175.02 1728.48L1113.77 1693.18Z" stroke="#393254"/>
<path d="M1236.3 1693.18L1297.55 1657.88L1358.81 1693.18L1297.55 1728.48L1236.3 1693.18Z" stroke="#393254"/>
<path d="M1358.83 1693.18L1420.09 1657.88L1481.34 1693.18L1420.09 1728.48L1358.83 1693.18Z" stroke="#393254"/>
<path d="M1481.35 1693.18L1542.61 1657.88L1603.87 1693.18L1542.61 1728.48L1481.35 1693.18Z" stroke="#393254"/>
<path d="M1603.88 1693.18L1665.14 1657.88L1726.4 1693.18L1665.14 1728.48L1603.88 1693.18Z" stroke="#393254"/>
<path d="M1726.41 1693.18L1787.66 1657.88L1848.92 1693.18L1787.66 1728.48L1726.41 1693.18Z" stroke="#393254"/>
<path d="M1848.93 1693.18L1910.19 1657.88L1971.44 1693.18L1910.19 1728.48L1848.93 1693.18Z" stroke="#393254"/>
<path d="M623.664 1763.83L684.921 1728.53L746.179 1763.83L684.921 1799.13L623.664 1763.83Z" stroke="#393254"/>
<path d="M501.132 1763.83L562.39 1728.53L623.648 1763.83L562.39 1799.13L501.132 1763.83Z" stroke="#393254"/>
<path d="M378.601 1763.83L439.859 1728.53L501.117 1763.83L439.859 1799.13L378.601 1763.83Z" stroke="#393254"/>
<path d="M256.078 1763.83L317.335 1728.53L378.593 1763.83L317.335 1799.13L256.078 1763.83Z" stroke="#393254"/>
<path d="M133.546 1763.83L194.804 1728.53L256.062 1763.83L194.804 1799.13L133.546 1763.83Z" stroke="#393254"/>
<path d="M11.023 1763.83L72.2808 1728.53L133.539 1763.83L72.2808 1799.13L11.023 1763.83Z" stroke="#393254"/>
<path d="M746.187 1763.83L807.445 1728.53L868.703 1763.83L807.445 1799.13L746.187 1763.83Z" stroke="#393254"/>
<path d="M868.71 1763.83L929.968 1728.53L991.226 1763.83L929.968 1799.13L868.71 1763.83Z" stroke="#393254"/>
<path d="M991.242 1763.83L1052.5 1728.53L1113.76 1763.83L1052.5 1799.13L991.242 1763.83Z" stroke="#393254"/>
<path d="M1113.77 1763.83L1175.02 1728.53L1236.28 1763.83L1175.02 1799.13L1113.77 1763.83Z" stroke="#393254"/>
<path d="M1236.3 1763.83L1297.55 1728.53L1358.81 1763.83L1297.55 1799.13L1236.3 1763.83Z" stroke="#393254"/>
<path d="M1358.82 1763.83L1420.08 1728.53L1481.34 1763.83L1420.08 1799.13L1358.82 1763.83Z" stroke="#393254"/>
<path d="M1481.35 1763.83L1542.61 1728.53L1603.87 1763.83L1542.61 1799.13L1481.35 1763.83Z" stroke="#393254"/>
<path d="M1603.88 1763.83L1665.14 1728.53L1726.4 1763.83L1665.14 1799.13L1603.88 1763.83Z" stroke="#393254"/>
<path d="M1726.41 1763.83L1787.66 1728.53L1848.92 1763.83L1787.66 1799.13L1726.41 1763.83Z" stroke="#393254"/>
<path d="M1848.93 1763.83L1910.19 1728.53L1971.44 1763.83L1910.19 1799.13L1848.93 1763.83Z" stroke="#393254"/>
<path d="M623.664 1834.51L684.921 1799.21L746.179 1834.51L684.921 1869.81L623.664 1834.51Z" stroke="#393254"/>
<path d="M501.132 1834.51L562.39 1799.21L623.648 1834.51L562.39 1869.81L501.132 1834.51Z" stroke="#393254"/>
<path d="M378.601 1834.51L439.859 1799.21L501.117 1834.51L439.859 1869.81L378.601 1834.51Z" stroke="#393254"/>
<path d="M256.078 1834.51L317.335 1799.21L378.593 1834.51L317.335 1869.81L256.078 1834.51Z" stroke="#393254"/>
<path d="M133.546 1834.51L194.804 1799.21L256.062 1834.51L194.804 1869.81L133.546 1834.51Z" stroke="#393254"/>
<path d="M11.0229 1834.51L72.2808 1799.21L133.539 1834.51L72.2808 1869.81L11.0229 1834.51Z" stroke="#393254"/>
<path d="M746.187 1834.51L807.445 1799.21L868.703 1834.51L807.445 1869.81L746.187 1834.51Z" stroke="#393254"/>
<path d="M868.71 1834.51L929.968 1799.21L991.226 1834.51L929.968 1869.81L868.71 1834.51Z" stroke="#393254"/>
<path d="M991.242 1834.51L1052.5 1799.21L1113.76 1834.51L1052.5 1869.81L991.242 1834.51Z" stroke="#393254"/>
<path d="M1113.77 1834.51L1175.02 1799.21L1236.28 1834.51L1175.02 1869.81L1113.77 1834.51Z" stroke="#393254"/>
<path d="M1236.3 1834.51L1297.55 1799.21L1358.81 1834.51L1297.55 1869.81L1236.3 1834.51Z" stroke="#393254"/>
<path d="M1358.82 1834.51L1420.08 1799.21L1481.34 1834.51L1420.08 1869.81L1358.82 1834.51Z" stroke="#393254"/>
<path d="M1481.35 1834.51L1542.61 1799.21L1603.87 1834.51L1542.61 1869.81L1481.35 1834.51Z" stroke="#393254"/>
<path d="M1603.88 1834.51L1665.14 1799.21L1726.4 1834.51L1665.14 1869.81L1603.88 1834.51Z" stroke="#393254"/>
<path d="M1726.41 1834.51L1787.66 1799.21L1848.92 1834.51L1787.66 1869.81L1726.41 1834.51Z" stroke="#393254"/>
<path d="M1848.93 1834.51L1910.19 1799.21L1971.44 1834.51L1910.19 1869.81L1848.93 1834.51Z" stroke="#393254"/>
<path d="M623.664 1905.15L684.921 1869.85L746.179 1905.15L684.921 1940.45L623.664 1905.15Z" stroke="#393254"/>
<path d="M501.132 1905.15L562.39 1869.85L623.648 1905.15L562.39 1940.45L501.132 1905.15Z" stroke="#393254"/>
<path d="M378.601 1905.15L439.859 1869.85L501.117 1905.15L439.859 1940.45L378.601 1905.15Z" stroke="#393254"/>
<path d="M256.078 1905.15L317.335 1869.85L378.593 1905.15L317.335 1940.45L256.078 1905.15Z" stroke="#393254"/>
<path d="M133.546 1905.15L194.804 1869.85L256.062 1905.15L194.804 1940.45L133.546 1905.15Z" stroke="#393254"/>
<path d="M11.0229 1905.15L72.2808 1869.85L133.539 1905.15L72.2808 1940.45L11.0229 1905.15Z" stroke="#393254"/>
<path d="M746.187 1905.15L807.445 1869.85L868.703 1905.15L807.445 1940.45L746.187 1905.15Z" stroke="#393254"/>
<path d="M868.71 1905.15L929.968 1869.85L991.226 1905.15L929.968 1940.45L868.71 1905.15Z" stroke="#393254"/>
<path d="M991.242 1905.15L1052.5 1869.85L1113.76 1905.15L1052.5 1940.45L991.242 1905.15Z" stroke="#393254"/>
<path d="M1113.77 1905.15L1175.02 1869.85L1236.28 1905.15L1175.02 1940.45L1113.77 1905.15Z" stroke="#393254"/>
<path d="M1236.3 1905.15L1297.55 1869.85L1358.81 1905.15L1297.55 1940.45L1236.3 1905.15Z" stroke="#393254"/>
<path d="M1358.82 1905.15L1420.08 1869.85L1481.34 1905.15L1420.08 1940.45L1358.82 1905.15Z" stroke="#393254"/>
<path d="M1481.35 1905.15L1542.61 1869.85L1603.87 1905.15L1542.61 1940.45L1481.35 1905.15Z" stroke="#393254"/>
<path d="M1603.88 1905.15L1665.14 1869.85L1726.4 1905.15L1665.14 1940.45L1603.88 1905.15Z" stroke="#393254"/>
<path d="M1726.41 1905.15L1787.66 1869.85L1848.92 1905.15L1787.66 1940.45L1726.41 1905.15Z" stroke="#393254"/>
<path d="M1848.93 1905.15L1910.19 1869.85L1971.44 1905.15L1910.19 1940.45L1848.93 1905.15Z" stroke="#393254"/>
<path d="M623.664 1975.83L684.921 1940.53L746.179 1975.83L684.921 2011.13L623.664 1975.83Z" stroke="#393254"/>
<path d="M501.132 1975.83L562.39 1940.53L623.648 1975.83L562.39 2011.13L501.132 1975.83Z" stroke="#393254"/>
<path d="M378.601 1975.83L439.859 1940.53L501.117 1975.83L439.859 2011.13L378.601 1975.83Z" stroke="#393254"/>
<path d="M256.078 1975.83L317.335 1940.53L378.593 1975.83L317.335 2011.13L256.078 1975.83Z" stroke="#393254"/>
<path d="M133.546 1975.83L194.804 1940.53L256.062 1975.83L194.804 2011.13L133.546 1975.83Z" stroke="#393254"/>
<path d="M11.023 1975.83L72.2808 1940.53L133.539 1975.83L72.2808 2011.13L11.023 1975.83Z" stroke="#393254"/>
<path d="M746.187 1975.83L807.445 1940.53L868.703 1975.83L807.445 2011.13L746.187 1975.83Z" stroke="#393254"/>
<path d="M868.71 1975.83L929.968 1940.53L991.226 1975.83L929.968 2011.13L868.71 1975.83Z" stroke="#393254"/>
<path d="M991.242 1975.83L1052.5 1940.53L1113.76 1975.83L1052.5 2011.13L991.242 1975.83Z" stroke="#393254"/>
<path d="M1113.77 1975.83L1175.02 1940.53L1236.28 1975.83L1175.02 2011.13L1113.77 1975.83Z" stroke="#393254"/>
<path d="M1236.3 1975.83L1297.55 1940.53L1358.81 1975.83L1297.55 2011.13L1236.3 1975.83Z" stroke="#393254"/>
<path d="M1358.83 1975.83L1420.09 1940.53L1481.34 1975.83L1420.09 2011.13L1358.83 1975.83Z" stroke="#393254"/>
<path d="M1481.35 1975.83L1542.61 1940.53L1603.87 1975.83L1542.61 2011.13L1481.35 1975.83Z" stroke="#393254"/>
<path d="M1603.88 1975.83L1665.14 1940.53L1726.4 1975.83L1665.14 2011.13L1603.88 1975.83Z" stroke="#393254"/>
<path d="M1726.41 1975.83L1787.66 1940.53L1848.92 1975.83L1787.66 2011.13L1726.41 1975.83Z" stroke="#393254"/>
<path d="M1848.93 1975.83L1910.19 1940.53L1971.44 1975.83L1910.19 2011.13L1848.93 1975.83Z" stroke="#393254"/>
<path d="M623.664 2046.48L684.921 2011.18L746.179 2046.48L684.921 2081.78L623.664 2046.48Z" stroke="#393254"/>
<path d="M501.132 2046.48L562.39 2011.18L623.648 2046.48L562.39 2081.78L501.132 2046.48Z" stroke="#393254"/>
<path d="M378.601 2046.48L439.859 2011.18L501.117 2046.48L439.859 2081.78L378.601 2046.48Z" stroke="#393254"/>
<path d="M256.078 2046.48L317.335 2011.18L378.593 2046.48L317.335 2081.78L256.078 2046.48Z" stroke="#393254"/>
<path d="M133.546 2046.48L194.804 2011.18L256.062 2046.48L194.804 2081.78L133.546 2046.48Z" stroke="#393254"/>
<path d="M11.023 2046.48L72.2808 2011.18L133.539 2046.48L72.2808 2081.78L11.023 2046.48Z" stroke="#393254"/>
<path d="M746.187 2046.48L807.445 2011.18L868.703 2046.48L807.445 2081.78L746.187 2046.48Z" stroke="#393254"/>
<path d="M868.71 2046.48L929.968 2011.18L991.226 2046.48L929.968 2081.78L868.71 2046.48Z" stroke="#393254"/>
<path d="M991.242 2046.48L1052.5 2011.18L1113.76 2046.48L1052.5 2081.78L991.242 2046.48Z" stroke="#393254"/>
<path d="M1113.77 2046.48L1175.02 2011.18L1236.28 2046.48L1175.02 2081.78L1113.77 2046.48Z" stroke="#393254"/>
<path d="M1236.3 2046.48L1297.55 2011.18L1358.81 2046.48L1297.55 2081.78L1236.3 2046.48Z" stroke="#393254"/>
<path d="M1358.82 2046.48L1420.08 2011.18L1481.34 2046.48L1420.08 2081.78L1358.82 2046.48Z" stroke="#393254"/>
<path d="M1481.35 2046.48L1542.61 2011.18L1603.87 2046.48L1542.61 2081.78L1481.35 2046.48Z" stroke="#393254"/>
<path d="M1603.88 2046.48L1665.14 2011.18L1726.4 2046.48L1665.14 2081.78L1603.88 2046.48Z" stroke="#393254"/>
<path d="M1726.41 2046.48L1787.66 2011.18L1848.92 2046.48L1787.66 2081.78L1726.41 2046.48Z" stroke="#393254"/>
<path d="M1848.93 2046.48L1910.19 2011.18L1971.44 2046.48L1910.19 2081.78L1848.93 2046.48Z" stroke="#393254"/>
<path d="M623.664 2117.16L684.921 2081.85L746.179 2117.16L684.921 2152.46L623.664 2117.16Z" stroke="#393254"/>
<path d="M501.132 2117.16L562.39 2081.85L623.648 2117.16L562.39 2152.46L501.132 2117.16Z" stroke="#393254"/>
<path d="M378.601 2117.16L439.859 2081.85L501.117 2117.16L439.859 2152.46L378.601 2117.16Z" stroke="#393254"/>
<path d="M256.078 2117.16L317.335 2081.85L378.593 2117.16L317.335 2152.46L256.078 2117.16Z" stroke="#393254"/>
<path d="M133.546 2117.16L194.804 2081.85L256.062 2117.16L194.804 2152.46L133.546 2117.16Z" stroke="#393254"/>
<path d="M11.023 2117.16L72.2808 2081.85L133.539 2117.16L72.2808 2152.46L11.023 2117.16Z" stroke="#393254"/>
<path d="M746.187 2117.16L807.445 2081.85L868.703 2117.16L807.445 2152.46L746.187 2117.16Z" stroke="#393254"/>
<path d="M868.71 2117.16L929.968 2081.85L991.226 2117.16L929.968 2152.46L868.71 2117.16Z" stroke="#393254"/>
<path d="M991.242 2117.16L1052.5 2081.85L1113.76 2117.16L1052.5 2152.46L991.242 2117.16Z" stroke="#393254"/>
<path d="M1113.77 2117.16L1175.02 2081.85L1236.28 2117.16L1175.02 2152.46L1113.77 2117.16Z" stroke="#393254"/>
<path d="M1236.3 2117.16L1297.55 2081.85L1358.81 2117.16L1297.55 2152.46L1236.3 2117.16Z" stroke="#393254"/>
<path d="M1358.82 2117.16L1420.08 2081.85L1481.34 2117.16L1420.08 2152.46L1358.82 2117.16Z" stroke="#393254"/>
<path d="M1481.35 2117.16L1542.61 2081.85L1603.87 2117.16L1542.61 2152.46L1481.35 2117.16Z" stroke="#393254"/>
<path d="M1603.88 2117.16L1665.14 2081.85L1726.4 2117.16L1665.14 2152.46L1603.88 2117.16Z" stroke="#393254"/>
<path d="M1726.41 2117.16L1787.66 2081.85L1848.92 2117.16L1787.66 2152.46L1726.41 2117.16Z" stroke="#393254"/>
<path d="M1848.93 2117.16L1910.19 2081.85L1971.44 2117.16L1910.19 2152.46L1848.93 2117.16Z" stroke="#393254"/>
<path d="M623.664 2187.8L684.921 2152.5L746.179 2187.8L684.921 2223.1L623.664 2187.8Z" stroke="#393254"/>
<path d="M501.132 2187.8L562.39 2152.5L623.648 2187.8L562.39 2223.1L501.132 2187.8Z" stroke="#393254"/>
<path d="M378.601 2187.8L439.859 2152.5L501.117 2187.8L439.859 2223.1L378.601 2187.8Z" stroke="#393254"/>
<path d="M256.078 2187.8L317.335 2152.5L378.593 2187.8L317.335 2223.1L256.078 2187.8Z" stroke="#393254"/>
<path d="M133.546 2187.8L194.804 2152.5L256.062 2187.8L194.804 2223.1L133.546 2187.8Z" stroke="#393254"/>
<path d="M11.023 2187.8L72.2808 2152.5L133.539 2187.8L72.2808 2223.1L11.023 2187.8Z" stroke="#393254"/>
<path d="M746.187 2187.8L807.445 2152.5L868.703 2187.8L807.445 2223.1L746.187 2187.8Z" stroke="#393254"/>
<path d="M868.71 2187.8L929.968 2152.5L991.226 2187.8L929.968 2223.1L868.71 2187.8Z" stroke="#393254"/>
<path d="M991.242 2187.8L1052.5 2152.5L1113.76 2187.8L1052.5 2223.1L991.242 2187.8Z" stroke="#393254"/>
<path d="M1113.77 2187.8L1175.02 2152.5L1236.28 2187.8L1175.02 2223.1L1113.77 2187.8Z" stroke="#393254"/>
<path d="M1236.3 2187.8L1297.55 2152.5L1358.81 2187.8L1297.55 2223.1L1236.3 2187.8Z" stroke="#393254"/>
<path d="M1358.82 2187.8L1420.08 2152.5L1481.34 2187.8L1420.08 2223.1L1358.82 2187.8Z" stroke="#393254"/>
<path d="M1481.35 2187.8L1542.61 2152.5L1603.87 2187.8L1542.61 2223.1L1481.35 2187.8Z" stroke="#393254"/>
<path d="M1603.88 2187.8L1665.14 2152.5L1726.4 2187.8L1665.14 2223.1L1603.88 2187.8Z" stroke="#393254"/>
<path d="M1726.41 2187.8L1787.66 2152.5L1848.92 2187.8L1787.66 2223.1L1726.41 2187.8Z" stroke="#393254"/>
<path d="M1848.93 2187.8L1910.19 2152.5L1971.44 2187.8L1910.19 2223.1L1848.93 2187.8Z" stroke="#393254"/>
<path d="M623.664 2258.46L684.921 2223.16L746.179 2258.46L684.921 2293.76L623.664 2258.46Z" stroke="#393254"/>
<path d="M501.132 2258.46L562.39 2223.16L623.648 2258.46L562.39 2293.76L501.132 2258.46Z" stroke="#393254"/>
<path d="M378.601 2258.46L439.859 2223.16L501.117 2258.46L439.859 2293.76L378.601 2258.46Z" stroke="#393254"/>
<path d="M256.078 2258.46L317.335 2223.16L378.593 2258.46L317.335 2293.76L256.078 2258.46Z" stroke="#393254"/>
<path d="M133.546 2258.46L194.804 2223.16L256.062 2258.46L194.804 2293.76L133.546 2258.46Z" stroke="#393254"/>
<path d="M11.023 2258.46L72.2808 2223.16L133.539 2258.46L72.2808 2293.76L11.023 2258.46Z" stroke="#393254"/>
<path d="M746.187 2258.46L807.445 2223.16L868.703 2258.46L807.445 2293.76L746.187 2258.46Z" stroke="#393254"/>
<path d="M868.71 2258.46L929.968 2223.16L991.226 2258.46L929.968 2293.76L868.71 2258.46Z" stroke="#393254"/>
<path d="M991.242 2258.46L1052.5 2223.16L1113.76 2258.46L1052.5 2293.76L991.242 2258.46Z" stroke="#393254"/>
<path d="M1113.77 2258.46L1175.02 2223.16L1236.28 2258.46L1175.02 2293.76L1113.77 2258.46Z" stroke="#393254"/>
<path d="M1236.3 2258.46L1297.55 2223.16L1358.81 2258.46L1297.55 2293.76L1236.3 2258.46Z" stroke="#393254"/>
<path d="M1358.82 2258.46L1420.08 2223.16L1481.34 2258.46L1420.08 2293.76L1358.82 2258.46Z" stroke="#393254"/>
<path d="M1481.35 2258.46L1542.61 2223.16L1603.87 2258.46L1542.61 2293.76L1481.35 2258.46Z" stroke="#393254"/>
<path d="M1603.88 2258.46L1665.14 2223.16L1726.4 2258.46L1665.14 2293.76L1603.88 2258.46Z" stroke="#393254"/>
<path d="M1726.41 2258.46L1787.66 2223.16L1848.92 2258.46L1787.66 2293.76L1726.41 2258.46Z" stroke="#393254"/>
<path d="M1848.93 2258.46L1910.19 2223.16L1971.44 2258.46L1910.19 2293.76L1848.93 2258.46Z" stroke="#393254"/>
<path d="M623.664 2329.13L684.921 2293.83L746.179 2329.13L684.921 2364.43L623.664 2329.13Z" stroke="#393254"/>
<path d="M501.132 2329.13L562.39 2293.83L623.648 2329.13L562.39 2364.43L501.132 2329.13Z" stroke="#393254"/>
<path d="M378.601 2329.13L439.859 2293.83L501.117 2329.13L439.859 2364.43L378.601 2329.13Z" stroke="#393254"/>
<path d="M256.078 2329.13L317.335 2293.83L378.593 2329.13L317.335 2364.43L256.078 2329.13Z" stroke="#393254"/>
<path d="M133.546 2329.13L194.804 2293.83L256.062 2329.13L194.804 2364.43L133.546 2329.13Z" stroke="#393254"/>
<path d="M11.023 2329.13L72.2808 2293.83L133.539 2329.13L72.2808 2364.43L11.023 2329.13Z" stroke="#393254"/>
<path d="M746.187 2329.13L807.445 2293.83L868.703 2329.13L807.445 2364.43L746.187 2329.13Z" stroke="#393254"/>
<path d="M868.71 2329.13L929.968 2293.83L991.226 2329.13L929.968 2364.43L868.71 2329.13Z" stroke="#393254"/>
<path d="M991.242 2329.13L1052.5 2293.83L1113.76 2329.13L1052.5 2364.43L991.242 2329.13Z" stroke="#393254"/>
<path d="M1113.77 2329.13L1175.02 2293.83L1236.28 2329.13L1175.02 2364.43L1113.77 2329.13Z" stroke="#393254"/>
<path d="M1236.3 2329.13L1297.55 2293.83L1358.81 2329.13L1297.55 2364.43L1236.3 2329.13Z" stroke="#393254"/>
<path d="M1358.83 2329.13L1420.09 2293.83L1481.34 2329.13L1420.09 2364.43L1358.83 2329.13Z" stroke="#393254"/>
<path d="M1481.35 2329.13L1542.61 2293.83L1603.87 2329.13L1542.61 2364.43L1481.35 2329.13Z" stroke="#393254"/>
<path d="M1603.88 2329.13L1665.14 2293.83L1726.4 2329.13L1665.14 2364.43L1603.88 2329.13Z" stroke="#393254"/>
<path d="M1726.41 2329.13L1787.66 2293.83L1848.92 2329.13L1787.66 2364.43L1726.41 2329.13Z" stroke="#393254"/>
<path d="M1848.93 2329.13L1910.19 2293.83L1971.44 2329.13L1910.19 2364.43L1848.93 2329.13Z" stroke="#393254"/>
<path d="M623.664 2399.8L684.921 2364.5L746.179 2399.8L684.921 2435.1L623.664 2399.8Z" stroke="#393254"/>
<path d="M501.132 2399.8L562.39 2364.5L623.648 2399.8L562.39 2435.1L501.132 2399.8Z" stroke="#393254"/>
<path d="M378.601 2399.8L439.859 2364.5L501.117 2399.8L439.859 2435.1L378.601 2399.8Z" stroke="#393254"/>
<path d="M256.078 2399.8L317.335 2364.5L378.593 2399.8L317.335 2435.1L256.078 2399.8Z" stroke="#393254"/>
<path d="M133.546 2399.8L194.804 2364.5L256.062 2399.8L194.804 2435.1L133.546 2399.8Z" stroke="#393254"/>
<path d="M11.023 2399.8L72.2808 2364.5L133.539 2399.8L72.2808 2435.1L11.023 2399.8Z" stroke="#393254"/>
<path d="M746.187 2399.8L807.445 2364.5L868.703 2399.8L807.445 2435.1L746.187 2399.8Z" stroke="#393254"/>
<path d="M868.71 2399.8L929.968 2364.5L991.226 2399.8L929.968 2435.1L868.71 2399.8Z" stroke="#393254"/>
<path d="M991.242 2399.8L1052.5 2364.5L1113.76 2399.8L1052.5 2435.1L991.242 2399.8Z" stroke="#393254"/>
<path d="M1113.77 2399.8L1175.02 2364.5L1236.28 2399.8L1175.02 2435.1L1113.77 2399.8Z" stroke="#393254"/>
<path d="M1236.3 2399.8L1297.55 2364.5L1358.81 2399.8L1297.55 2435.1L1236.3 2399.8Z" stroke="#393254"/>
<path d="M1358.83 2399.8L1420.09 2364.5L1481.34 2399.8L1420.09 2435.1L1358.83 2399.8Z" stroke="#393254"/>
<path d="M1481.35 2399.8L1542.61 2364.5L1603.87 2399.8L1542.61 2435.1L1481.35 2399.8Z" stroke="#393254"/>
<path d="M1603.88 2399.8L1665.14 2364.5L1726.4 2399.8L1665.14 2435.1L1603.88 2399.8Z" stroke="#393254"/>
<path d="M1726.41 2399.8L1787.66 2364.5L1848.92 2399.8L1787.66 2435.1L1726.41 2399.8Z" stroke="#393254"/>
<path d="M1848.93 2399.8L1910.19 2364.5L1971.44 2399.8L1910.19 2435.1L1848.93 2399.8Z" stroke="#393254"/>
<path d="M623.664 2470.44L684.921 2435.14L746.179 2470.44L684.921 2505.75L623.664 2470.44Z" stroke="#393254"/>
<path d="M501.132 2470.44L562.39 2435.14L623.648 2470.44L562.39 2505.75L501.132 2470.44Z" stroke="#393254"/>
<path d="M378.601 2470.44L439.859 2435.14L501.117 2470.44L439.859 2505.75L378.601 2470.44Z" stroke="#393254"/>
<path d="M256.078 2470.44L317.335 2435.14L378.593 2470.44L317.335 2505.75L256.078 2470.44Z" stroke="#393254"/>
<path d="M133.546 2470.44L194.804 2435.14L256.062 2470.44L194.804 2505.75L133.546 2470.44Z" stroke="#393254"/>
<path d="M11.023 2470.44L72.2808 2435.14L133.539 2470.44L72.2808 2505.75L11.023 2470.44Z" stroke="#393254"/>
<path d="M746.187 2470.44L807.445 2435.14L868.703 2470.44L807.445 2505.75L746.187 2470.44Z" stroke="#393254"/>
<path d="M868.71 2470.44L929.968 2435.14L991.226 2470.44L929.968 2505.75L868.71 2470.44Z" stroke="#393254"/>
<path d="M991.242 2470.44L1052.5 2435.14L1113.76 2470.44L1052.5 2505.75L991.242 2470.44Z" stroke="#393254"/>
<path d="M1113.77 2470.44L1175.02 2435.14L1236.28 2470.44L1175.02 2505.75L1113.77 2470.44Z" stroke="#393254"/>
<path d="M1236.3 2470.44L1297.55 2435.14L1358.81 2470.44L1297.55 2505.75L1236.3 2470.44Z" stroke="#393254"/>
<path d="M1358.82 2470.44L1420.08 2435.14L1481.34 2470.44L1420.08 2505.75L1358.82 2470.44Z" stroke="#393254"/>
<path d="M1481.35 2470.44L1542.61 2435.14L1603.87 2470.44L1542.61 2505.75L1481.35 2470.44Z" stroke="#393254"/>
<path d="M1603.88 2470.44L1665.14 2435.14L1726.4 2470.44L1665.14 2505.75L1603.88 2470.44Z" stroke="#393254"/>
<path d="M1726.41 2470.44L1787.66 2435.14L1848.92 2470.44L1787.66 2505.75L1726.41 2470.44Z" stroke="#393254"/>
<path d="M1848.93 2470.44L1910.19 2435.14L1971.44 2470.44L1910.19 2505.75L1848.93 2470.44Z" stroke="#393254"/>
<path d="M623.664 2541.11L684.921 2505.81L746.179 2541.11L684.921 2576.41L623.664 2541.11Z" stroke="#393254"/>
<path d="M501.132 2541.11L562.39 2505.81L623.648 2541.11L562.39 2576.41L501.132 2541.11Z" stroke="#393254"/>
<path d="M378.601 2541.11L439.859 2505.81L501.117 2541.11L439.859 2576.41L378.601 2541.11Z" stroke="#393254"/>
<path d="M256.078 2541.11L317.335 2505.81L378.593 2541.11L317.335 2576.41L256.078 2541.11Z" stroke="#393254"/>
<path d="M133.546 2541.11L194.804 2505.81L256.062 2541.11L194.804 2576.41L133.546 2541.11Z" stroke="#393254"/>
<path d="M11.023 2541.11L72.2808 2505.81L133.539 2541.11L72.2808 2576.41L11.023 2541.11Z" stroke="#393254"/>
<path d="M746.187 2541.11L807.445 2505.81L868.703 2541.11L807.445 2576.41L746.187 2541.11Z" stroke="#393254"/>
<path d="M868.71 2541.11L929.968 2505.81L991.226 2541.11L929.968 2576.41L868.71 2541.11Z" stroke="#393254"/>
<path d="M991.242 2541.11L1052.5 2505.81L1113.76 2541.11L1052.5 2576.41L991.242 2541.11Z" stroke="#393254"/>
<path d="M1113.77 2541.11L1175.02 2505.81L1236.28 2541.11L1175.02 2576.41L1113.77 2541.11Z" stroke="#393254"/>
<path d="M1236.3 2541.11L1297.55 2505.81L1358.81 2541.11L1297.55 2576.41L1236.3 2541.11Z" stroke="#393254"/>
<path d="M1358.82 2541.11L1420.08 2505.81L1481.34 2541.11L1420.08 2576.41L1358.82 2541.11Z" stroke="#393254"/>
<path d="M1481.35 2541.11L1542.61 2505.81L1603.87 2541.11L1542.61 2576.41L1481.35 2541.11Z" stroke="#393254"/>
<path d="M1603.88 2541.11L1665.14 2505.81L1726.4 2541.11L1665.14 2576.41L1603.88 2541.11Z" stroke="#393254"/>
<path d="M1726.41 2541.11L1787.66 2505.81L1848.92 2541.11L1787.66 2576.41L1726.41 2541.11Z" stroke="#393254"/>
<path d="M1848.93 2541.11L1910.19 2505.81L1971.44 2541.11L1910.19 2576.41L1848.93 2541.11Z" stroke="#393254"/>
<path d="M623.664 2611.78L684.921 2576.48L746.179 2611.78L684.921 2647.08L623.664 2611.78Z" stroke="#393254"/>
<path d="M501.132 2611.78L562.39 2576.48L623.648 2611.78L562.39 2647.08L501.132 2611.78Z" stroke="#393254"/>
<path d="M378.601 2611.78L439.859 2576.48L501.117 2611.78L439.859 2647.08L378.601 2611.78Z" stroke="#393254"/>
<path d="M256.078 2611.78L317.335 2576.48L378.593 2611.78L317.335 2647.08L256.078 2611.78Z" stroke="#393254"/>
<path d="M133.546 2611.78L194.804 2576.48L256.062 2611.78L194.804 2647.08L133.546 2611.78Z" stroke="#393254"/>
<path d="M11.023 2611.78L72.2808 2576.48L133.539 2611.78L72.2808 2647.08L11.023 2611.78Z" stroke="#393254"/>
<path d="M746.187 2611.78L807.445 2576.48L868.703 2611.78L807.445 2647.08L746.187 2611.78Z" stroke="#393254"/>
<path d="M868.71 2611.78L929.968 2576.48L991.226 2611.78L929.968 2647.08L868.71 2611.78Z" stroke="#393254"/>
<path d="M991.242 2611.78L1052.5 2576.48L1113.76 2611.78L1052.5 2647.08L991.242 2611.78Z" stroke="#393254"/>
<path d="M1113.77 2611.78L1175.02 2576.48L1236.28 2611.78L1175.02 2647.08L1113.77 2611.78Z" stroke="#393254"/>
<path d="M1236.3 2611.78L1297.55 2576.48L1358.81 2611.78L1297.55 2647.08L1236.3 2611.78Z" stroke="#393254"/>
<path d="M1358.82 2611.78L1420.08 2576.48L1481.34 2611.78L1420.08 2647.08L1358.82 2611.78Z" stroke="#393254"/>
<path d="M1481.35 2611.78L1542.61 2576.48L1603.87 2611.78L1542.61 2647.08L1481.35 2611.78Z" stroke="#393254"/>
<path d="M1603.88 2611.78L1665.14 2576.48L1726.4 2611.78L1665.14 2647.08L1603.88 2611.78Z" stroke="#393254"/>
<path d="M1726.41 2611.78L1787.66 2576.48L1848.92 2611.78L1787.66 2647.08L1726.41 2611.78Z" stroke="#393254"/>
<path d="M1848.93 2611.78L1910.19 2576.48L1971.44 2611.78L1910.19 2647.08L1848.93 2611.78Z" stroke="#393254"/>
<path d="M623.664 2682.45L684.921 2647.15L746.179 2682.45L684.921 2717.76L623.664 2682.45Z" stroke="#393254"/>
<path d="M501.132 2682.45L562.39 2647.15L623.648 2682.45L562.39 2717.76L501.132 2682.45Z" stroke="#393254"/>
<path d="M378.601 2682.45L439.859 2647.15L501.117 2682.45L439.859 2717.76L378.601 2682.45Z" stroke="#393254"/>
<path d="M256.078 2682.45L317.335 2647.15L378.593 2682.45L317.335 2717.76L256.078 2682.45Z" stroke="#393254"/>
<path d="M133.546 2682.45L194.804 2647.15L256.062 2682.45L194.804 2717.76L133.546 2682.45Z" stroke="#393254"/>
<path d="M11.023 2682.45L72.2808 2647.15L133.539 2682.45L72.2808 2717.76L11.023 2682.45Z" stroke="#393254"/>
<path d="M746.187 2682.45L807.445 2647.15L868.703 2682.45L807.445 2717.76L746.187 2682.45Z" stroke="#393254"/>
<path d="M868.71 2682.45L929.968 2647.15L991.226 2682.45L929.968 2717.76L868.71 2682.45Z" stroke="#393254"/>
<path d="M991.242 2682.45L1052.5 2647.15L1113.76 2682.45L1052.5 2717.76L991.242 2682.45Z" stroke="#393254"/>
<path d="M1113.77 2682.45L1175.02 2647.15L1236.28 2682.45L1175.02 2717.76L1113.77 2682.45Z" stroke="#393254"/>
<path d="M1236.3 2682.45L1297.55 2647.15L1358.81 2682.45L1297.55 2717.76L1236.3 2682.45Z" stroke="#393254"/>
<path d="M1358.82 2682.45L1420.08 2647.15L1481.34 2682.45L1420.08 2717.76L1358.82 2682.45Z" stroke="#393254"/>
<path d="M1481.35 2682.45L1542.61 2647.15L1603.87 2682.45L1542.61 2717.76L1481.35 2682.45Z" stroke="#393254"/>
<path d="M1603.88 2682.45L1665.14 2647.15L1726.4 2682.45L1665.14 2717.76L1603.88 2682.45Z" stroke="#393254"/>
<path d="M1726.41 2682.45L1787.66 2647.15L1848.92 2682.45L1787.66 2717.76L1726.41 2682.45Z" stroke="#393254"/>
<path d="M1848.93 2682.45L1910.19 2647.15L1971.44 2682.45L1910.19 2717.76L1848.93 2682.45Z" stroke="#393254"/>
<path d="M623.664 2753.08L684.921 2717.78L746.179 2753.08L684.921 2788.38L623.664 2753.08Z" stroke="#393254"/>
<path d="M501.132 2753.08L562.39 2717.78L623.648 2753.08L562.39 2788.38L501.132 2753.08Z" stroke="#393254"/>
<path d="M378.601 2753.08L439.859 2717.78L501.117 2753.08L439.859 2788.38L378.601 2753.08Z" stroke="#393254"/>
<path d="M256.078 2753.08L317.335 2717.78L378.593 2753.08L317.335 2788.38L256.078 2753.08Z" stroke="#393254"/>
<path d="M133.546 2753.08L194.804 2717.78L256.062 2753.08L194.804 2788.38L133.546 2753.08Z" stroke="#393254"/>
<path d="M11.023 2753.08L72.2808 2717.78L133.539 2753.08L72.2808 2788.38L11.023 2753.08Z" stroke="#393254"/>
<path d="M746.187 2753.08L807.445 2717.78L868.703 2753.08L807.445 2788.38L746.187 2753.08Z" stroke="#393254"/>
<path d="M868.71 2753.08L929.968 2717.78L991.226 2753.08L929.968 2788.38L868.71 2753.08Z" stroke="#393254"/>
<path d="M991.242 2753.08L1052.5 2717.78L1113.76 2753.08L1052.5 2788.38L991.242 2753.08Z" stroke="#393254"/>
<path d="M1113.77 2753.08L1175.02 2717.78L1236.28 2753.08L1175.02 2788.38L1113.77 2753.08Z" stroke="#393254"/>
<path d="M1236.3 2753.08L1297.55 2717.78L1358.81 2753.08L1297.55 2788.38L1236.3 2753.08Z" stroke="#393254"/>
<path d="M1358.82 2753.08L1420.08 2717.78L1481.34 2753.08L1420.08 2788.38L1358.82 2753.08Z" stroke="#393254"/>
<path d="M1481.35 2753.08L1542.61 2717.78L1603.87 2753.08L1542.61 2788.38L1481.35 2753.08Z" stroke="#393254"/>
<path d="M1603.88 2753.08L1665.14 2717.78L1726.4 2753.08L1665.14 2788.38L1603.88 2753.08Z" stroke="#393254"/>
<path d="M1726.41 2753.08L1787.66 2717.78L1848.92 2753.08L1787.66 2788.38L1726.41 2753.08Z" stroke="#393254"/>
<path d="M1848.93 2753.08L1910.19 2717.78L1971.44 2753.08L1910.19 2788.38L1848.93 2753.08Z" stroke="#393254"/>
<path d="M623.664 2823.76L684.921 2788.45L746.179 2823.76L684.921 2859.06L623.664 2823.76Z" stroke="#393254"/>
<path d="M501.132 2823.76L562.39 2788.45L623.648 2823.76L562.39 2859.06L501.132 2823.76Z" stroke="#393254"/>
<path d="M378.601 2823.76L439.859 2788.45L501.117 2823.76L439.859 2859.06L378.601 2823.76Z" stroke="#393254"/>
<path d="M256.078 2823.76L317.335 2788.45L378.593 2823.76L317.335 2859.06L256.078 2823.76Z" stroke="#393254"/>
<path d="M133.546 2823.76L194.804 2788.45L256.062 2823.76L194.804 2859.06L133.546 2823.76Z" stroke="#393254"/>
<path d="M11.023 2823.76L72.2808 2788.45L133.539 2823.76L72.2808 2859.06L11.023 2823.76Z" stroke="#393254"/>
<path d="M746.187 2823.76L807.445 2788.45L868.703 2823.76L807.445 2859.06L746.187 2823.76Z" stroke="#393254"/>
<path d="M868.71 2823.76L929.968 2788.45L991.226 2823.76L929.968 2859.06L868.71 2823.76Z" stroke="#393254"/>
<path d="M991.242 2823.76L1052.5 2788.45L1113.76 2823.76L1052.5 2859.06L991.242 2823.76Z" stroke="#393254"/>
<path d="M1113.77 2823.76L1175.02 2788.45L1236.28 2823.76L1175.02 2859.06L1113.77 2823.76Z" stroke="#393254"/>
<path d="M1236.3 2823.76L1297.55 2788.45L1358.81 2823.76L1297.55 2859.06L1236.3 2823.76Z" stroke="#393254"/>
<path d="M1358.82 2823.76L1420.08 2788.45L1481.34 2823.76L1420.08 2859.06L1358.82 2823.76Z" stroke="#393254"/>
<path d="M1481.35 2823.76L1542.61 2788.45L1603.87 2823.76L1542.61 2859.06L1481.35 2823.76Z" stroke="#393254"/>
<path d="M1603.88 2823.76L1665.14 2788.45L1726.4 2823.76L1665.14 2859.06L1603.88 2823.76Z" stroke="#393254"/>
<path d="M1726.41 2823.76L1787.66 2788.45L1848.92 2823.76L1787.66 2859.06L1726.41 2823.76Z" stroke="#393254"/>
<path d="M1848.93 2823.76L1910.19 2788.45L1971.44 2823.76L1910.19 2859.06L1848.93 2823.76Z" stroke="#393254"/>
<path d="M623.664 2894.43L684.921 2859.13L746.179 2894.43L684.921 2929.74L623.664 2894.43Z" stroke="#393254"/>
<path d="M501.132 2894.43L562.39 2859.13L623.648 2894.43L562.39 2929.74L501.132 2894.43Z" stroke="#393254"/>
<path d="M378.601 2894.43L439.859 2859.13L501.117 2894.43L439.859 2929.74L378.601 2894.43Z" stroke="#393254"/>
<path d="M256.078 2894.43L317.335 2859.13L378.593 2894.43L317.335 2929.74L256.078 2894.43Z" stroke="#393254"/>
<path d="M133.546 2894.43L194.804 2859.13L256.062 2894.43L194.804 2929.74L133.546 2894.43Z" stroke="#393254"/>
<path d="M11.0228 2894.43L72.2808 2859.13L133.539 2894.43L72.2808 2929.74L11.0228 2894.43Z" stroke="#393254"/>
<path d="M746.187 2894.43L807.445 2859.13L868.703 2894.43L807.445 2929.74L746.187 2894.43Z" stroke="#393254"/>
<path d="M868.71 2894.43L929.968 2859.13L991.226 2894.43L929.968 2929.74L868.71 2894.43Z" stroke="#393254"/>
<path d="M991.242 2894.43L1052.5 2859.13L1113.76 2894.43L1052.5 2929.74L991.242 2894.43Z" stroke="#393254"/>
<path d="M1113.77 2894.43L1175.02 2859.13L1236.28 2894.43L1175.02 2929.74L1113.77 2894.43Z" stroke="#393254"/>
<path d="M1236.3 2894.43L1297.55 2859.13L1358.81 2894.43L1297.55 2929.74L1236.3 2894.43Z" stroke="#393254"/>
<path d="M1358.83 2894.43L1420.09 2859.13L1481.34 2894.43L1420.09 2929.74L1358.83 2894.43Z" stroke="#393254"/>
<path d="M1481.35 2894.43L1542.61 2859.13L1603.87 2894.43L1542.61 2929.74L1481.35 2894.43Z" stroke="#393254"/>
<path d="M1603.88 2894.43L1665.14 2859.13L1726.4 2894.43L1665.14 2929.74L1603.88 2894.43Z" stroke="#393254"/>
<path d="M1726.41 2894.43L1787.66 2859.13L1848.92 2894.43L1787.66 2929.74L1726.41 2894.43Z" stroke="#393254"/>
<path d="M1848.93 2894.43L1910.19 2859.13L1971.44 2894.43L1910.19 2929.74L1848.93 2894.43Z" stroke="#393254"/>
<path d="M623.663 2965.11L684.921 2929.81L746.179 2965.11L684.921 3000.41L623.663 2965.11Z" stroke="#393254"/>
<path d="M501.132 2965.11L562.39 2929.81L623.648 2965.11L562.39 3000.41L501.132 2965.11Z" stroke="#393254"/>
<path d="M378.601 2965.11L439.859 2929.81L501.117 2965.11L439.859 3000.41L378.601 2965.11Z" stroke="#393254"/>
<path d="M256.078 2965.11L317.335 2929.81L378.593 2965.11L317.335 3000.41L256.078 2965.11Z" stroke="#393254"/>
<path d="M133.546 2965.11L194.804 2929.81L256.062 2965.11L194.804 3000.41L133.546 2965.11Z" stroke="#393254"/>
<path d="M11.0228 2965.11L72.2808 2929.81L133.539 2965.11L72.2808 3000.41L11.0228 2965.11Z" stroke="#393254"/>
<path d="M746.187 2965.11L807.445 2929.81L868.703 2965.11L807.445 3000.41L746.187 2965.11Z" stroke="#393254"/>
<path d="M868.71 2965.11L929.968 2929.81L991.226 2965.11L929.968 3000.41L868.71 2965.11Z" stroke="#393254"/>
<path d="M991.242 2965.11L1052.5 2929.81L1113.76 2965.11L1052.5 3000.41L991.242 2965.11Z" stroke="#393254"/>
<path d="M1113.77 2965.11L1175.02 2929.81L1236.28 2965.11L1175.02 3000.41L1113.77 2965.11Z" stroke="#393254"/>
<path d="M1236.3 2965.11L1297.55 2929.81L1358.81 2965.11L1297.55 3000.41L1236.3 2965.11Z" stroke="#393254"/>
<path d="M1358.83 2965.11L1420.09 2929.81L1481.34 2965.11L1420.09 3000.41L1358.83 2965.11Z" stroke="#393254"/>
<path d="M1481.35 2965.11L1542.61 2929.81L1603.87 2965.11L1542.61 3000.41L1481.35 2965.11Z" stroke="#393254"/>
<path d="M1603.88 2965.11L1665.14 2929.81L1726.4 2965.11L1665.14 3000.41L1603.88 2965.11Z" stroke="#393254"/>
<path d="M1726.41 2965.11L1787.66 2929.81L1848.92 2965.11L1787.66 3000.41L1726.41 2965.11Z" stroke="#393254"/>
<path d="M1848.93 2965.11L1910.19 2929.81L1971.44 2965.11L1910.19 3000.41L1848.93 2965.11Z" stroke="#393254"/>
<path d="M623.656 3035.73L684.914 3000.43L746.171 3035.73L684.914 3071.03L623.656 3035.73Z" stroke="#393254"/>
<path d="M501.132 3035.73L562.39 3000.43L623.648 3035.73L562.39 3071.03L501.132 3035.73Z" stroke="#393254"/>
<path d="M378.601 3035.73L439.859 3000.43L501.117 3035.73L439.859 3071.03L378.601 3035.73Z" stroke="#393254"/>
<path d="M256.078 3035.73L317.335 3000.43L378.593 3035.73L317.335 3071.03L256.078 3035.73Z" stroke="#393254"/>
<path d="M133.546 3035.73L194.804 3000.43L256.062 3035.73L194.804 3071.03L133.546 3035.73Z" stroke="#393254"/>
<path d="M11.0228 3035.73L72.2808 3000.43L133.539 3035.73L72.2808 3071.03L11.0228 3035.73Z" stroke="#393254"/>
<path d="M746.187 3035.73L807.445 3000.43L868.703 3035.73L807.445 3071.03L746.187 3035.73Z" stroke="#393254"/>
<path d="M868.71 3035.73L929.968 3000.43L991.226 3035.73L929.968 3071.03L868.71 3035.73Z" stroke="#393254"/>
<path d="M991.242 3035.73L1052.5 3000.43L1113.76 3035.73L1052.5 3071.03L991.242 3035.73Z" stroke="#393254"/>
<path d="M1113.77 3035.73L1175.02 3000.43L1236.28 3035.73L1175.02 3071.03L1113.77 3035.73Z" stroke="#393254"/>
<path d="M1236.3 3035.73L1297.55 3000.43L1358.81 3035.73L1297.55 3071.03L1236.3 3035.73Z" stroke="#393254"/>
<path d="M1358.82 3035.73L1420.08 3000.43L1481.34 3035.73L1420.08 3071.03L1358.82 3035.73Z" stroke="#393254"/>
<path d="M1481.35 3035.73L1542.61 3000.43L1603.87 3035.73L1542.61 3071.03L1481.35 3035.73Z" stroke="#393254"/>
<path d="M1603.88 3035.73L1665.14 3000.43L1726.4 3035.73L1665.14 3071.03L1603.88 3035.73Z" stroke="#393254"/>
<path d="M1726.41 3035.73L1787.66 3000.43L1848.92 3035.73L1787.66 3071.03L1726.41 3035.73Z" stroke="#393254"/>
<path d="M1848.93 3035.73L1910.19 3000.43L1971.44 3035.73L1910.19 3071.03L1848.93 3035.73Z" stroke="#393254"/>
<path d="M623.664 3106.41L684.921 3071.11L746.179 3106.41L684.921 3141.71L623.664 3106.41Z" stroke="#393254"/>
<path d="M501.132 3106.41L562.39 3071.11L623.648 3106.41L562.39 3141.71L501.132 3106.41Z" stroke="#393254"/>
<path d="M378.601 3106.41L439.859 3071.11L501.117 3106.41L439.859 3141.71L378.601 3106.41Z" stroke="#393254"/>
<path d="M256.078 3106.41L317.335 3071.11L378.593 3106.41L317.335 3141.71L256.078 3106.41Z" stroke="#393254"/>
<path d="M133.546 3106.41L194.804 3071.11L256.062 3106.41L194.804 3141.71L133.546 3106.41Z" stroke="#393254"/>
<path d="M11.023 3106.41L72.2808 3071.11L133.539 3106.41L72.2808 3141.71L11.023 3106.41Z" stroke="#393254"/>
<path d="M746.187 3106.41L807.445 3071.11L868.703 3106.41L807.445 3141.71L746.187 3106.41Z" stroke="#393254"/>
<path d="M868.71 3106.41L929.968 3071.11L991.226 3106.41L929.968 3141.71L868.71 3106.41Z" stroke="#393254"/>
<path d="M991.242 3106.41L1052.5 3071.11L1113.76 3106.41L1052.5 3141.71L991.242 3106.41Z" stroke="#393254"/>
<path d="M1113.77 3106.41L1175.02 3071.11L1236.28 3106.41L1175.02 3141.71L1113.77 3106.41Z" stroke="#393254"/>
<path d="M1236.3 3106.41L1297.55 3071.11L1358.81 3106.41L1297.55 3141.71L1236.3 3106.41Z" stroke="#393254"/>
<path d="M1358.82 3106.41L1420.08 3071.11L1481.34 3106.41L1420.08 3141.71L1358.82 3106.41Z" stroke="#393254"/>
<path d="M1481.35 3106.41L1542.61 3071.11L1603.87 3106.41L1542.61 3141.71L1481.35 3106.41Z" stroke="#393254"/>
<path d="M1603.88 3106.41L1665.14 3071.11L1726.4 3106.41L1665.14 3141.71L1603.88 3106.41Z" stroke="#393254"/>
<path d="M1726.41 3106.41L1787.66 3071.11L1848.92 3106.41L1787.66 3141.71L1726.41 3106.41Z" stroke="#393254"/>
<path d="M1848.93 3106.41L1910.19 3071.11L1971.44 3106.41L1910.19 3141.71L1848.93 3106.41Z" stroke="#393254"/>
<path d="M623.664 3177.09L684.921 3141.79L746.179 3177.09L684.921 3212.39L623.664 3177.09Z" stroke="#393254"/>
<path d="M501.132 3177.09L562.39 3141.79L623.648 3177.09L562.39 3212.39L501.132 3177.09Z" stroke="#393254"/>
<path d="M378.601 3177.09L439.859 3141.79L501.117 3177.09L439.859 3212.39L378.601 3177.09Z" stroke="#393254"/>
<path d="M256.078 3177.09L317.335 3141.79L378.593 3177.09L317.335 3212.39L256.078 3177.09Z" stroke="#393254"/>
<path d="M133.546 3177.09L194.804 3141.79L256.062 3177.09L194.804 3212.39L133.546 3177.09Z" stroke="#393254"/>
<path d="M11.023 3177.09L72.2808 3141.79L133.539 3177.09L72.2808 3212.39L11.023 3177.09Z" stroke="#393254"/>
<path d="M746.187 3177.09L807.445 3141.79L868.703 3177.09L807.445 3212.39L746.187 3177.09Z" stroke="#393254"/>
<path d="M868.71 3177.09L929.968 3141.79L991.226 3177.09L929.968 3212.39L868.71 3177.09Z" stroke="#393254"/>
<path d="M991.242 3177.09L1052.5 3141.79L1113.76 3177.09L1052.5 3212.39L991.242 3177.09Z" stroke="#393254"/>
<path d="M1113.77 3177.09L1175.02 3141.79L1236.28 3177.09L1175.02 3212.39L1113.77 3177.09Z" stroke="#393254"/>
<path d="M1236.3 3177.09L1297.55 3141.79L1358.81 3177.09L1297.55 3212.39L1236.3 3177.09Z" stroke="#393254"/>
<path d="M1358.83 3177.09L1420.09 3141.79L1481.34 3177.09L1420.09 3212.39L1358.83 3177.09Z" stroke="#393254"/>
<path d="M1481.35 3177.09L1542.61 3141.79L1603.87 3177.09L1542.61 3212.39L1481.35 3177.09Z" stroke="#393254"/>
<path d="M1603.88 3177.09L1665.14 3141.79L1726.4 3177.09L1665.14 3212.39L1603.88 3177.09Z" stroke="#393254"/>
<path d="M1726.41 3177.09L1787.66 3141.79L1848.92 3177.09L1787.66 3212.39L1726.41 3177.09Z" stroke="#393254"/>
<path d="M1848.93 3177.09L1910.19 3141.79L1971.44 3177.09L1910.19 3212.39L1848.93 3177.09Z" stroke="#393254"/>
<path d="M623.664 350.562L684.921 315.261L746.179 350.562L684.921 385.863L623.664 350.562Z" stroke="#393254"/>
<path d="M501.132 350.562L562.39 315.261L623.648 350.562L562.39 385.863L501.132 350.562Z" stroke="#393254"/>
<path d="M378.601 350.562L439.859 315.261L501.117 350.562L439.859 385.863L378.601 350.562Z" stroke="#393254"/>
<path d="M256.078 350.562L317.335 315.261L378.593 350.562L317.335 385.863L256.078 350.562Z" stroke="#393254"/>
<path d="M133.546 350.562L194.804 315.261L256.062 350.562L194.804 385.863L133.546 350.562Z" stroke="#393254"/>
<path d="M11.023 350.562L72.2808 315.261L133.539 350.562L72.2808 385.863L11.023 350.562Z" stroke="#393254"/>
<path d="M746.187 350.562L807.445 315.261L868.703 350.562L807.445 385.863L746.187 350.562Z" stroke="#393254"/>
<path d="M868.71 350.562L929.968 315.261L991.226 350.562L929.968 385.863L868.71 350.562Z" stroke="#393254"/>
<path d="M991.242 350.562L1052.5 315.261L1113.76 350.562L1052.5 385.863L991.242 350.562Z" stroke="#393254"/>
<path d="M1113.77 350.562L1175.02 315.261L1236.28 350.562L1175.02 385.863L1113.77 350.562Z" stroke="#393254"/>
<path d="M1236.3 350.562L1297.55 315.261L1358.81 350.562L1297.55 385.863L1236.3 350.562Z" stroke="#393254"/>
<path d="M1358.82 350.562L1420.08 315.261L1481.34 350.562L1420.08 385.863L1358.82 350.562Z" stroke="#393254"/>
<path d="M1481.35 350.562L1542.61 315.261L1603.87 350.562L1542.61 385.863L1481.35 350.562Z" stroke="#393254"/>
<path d="M1603.88 350.562L1665.14 315.261L1726.4 350.562L1665.14 385.863L1603.88 350.562Z" stroke="#393254"/>
<path d="M1726.41 350.562L1787.66 315.261L1848.92 350.562L1787.66 385.863L1726.41 350.562Z" stroke="#393254"/>
<path d="M1848.93 350.562L1910.19 315.261L1971.44 350.562L1910.19 385.863L1848.93 350.562Z" stroke="#393254"/>
<path d="M623.664 279.909L684.921 244.608L746.179 279.909L684.921 315.211L623.664 279.909Z" stroke="#393254"/>
<path d="M501.132 279.909L562.39 244.608L623.648 279.909L562.39 315.211L501.132 279.909Z" stroke="#393254"/>
<path d="M378.601 279.909L439.859 244.608L501.117 279.909L439.859 315.211L378.601 279.909Z" stroke="#393254"/>
<path d="M256.078 279.909L317.335 244.608L378.593 279.909L317.335 315.211L256.078 279.909Z" stroke="#393254"/>
<path d="M133.546 279.909L194.804 244.608L256.062 279.909L194.804 315.211L133.546 279.909Z" stroke="#393254"/>
<path d="M11.023 279.909L72.2808 244.608L133.539 279.909L72.2808 315.211L11.023 279.909Z" stroke="#393254"/>
<path d="M746.187 279.909L807.445 244.608L868.703 279.909L807.445 315.211L746.187 279.909Z" stroke="#393254"/>
<path d="M868.71 279.909L929.968 244.608L991.226 279.909L929.968 315.211L868.71 279.909Z" stroke="#393254"/>
<path d="M991.242 279.909L1052.5 244.608L1113.76 279.909L1052.5 315.211L991.242 279.909Z" stroke="#393254"/>
<path d="M1113.77 279.909L1175.02 244.608L1236.28 279.909L1175.02 315.211L1113.77 279.909Z" stroke="#393254"/>
<path d="M1236.3 279.909L1297.55 244.608L1358.81 279.909L1297.55 315.211L1236.3 279.909Z" stroke="#393254"/>
<path d="M1358.82 279.909L1420.08 244.608L1481.34 279.909L1420.08 315.211L1358.82 279.909Z" stroke="#393254"/>
<path d="M1481.35 279.909L1542.61 244.608L1603.87 279.909L1542.61 315.211L1481.35 279.909Z" stroke="#393254"/>
<path d="M1603.88 279.909L1665.14 244.608L1726.4 279.909L1665.14 315.211L1603.88 279.909Z" stroke="#393254"/>
<path d="M1726.41 279.909L1787.66 244.608L1848.92 279.909L1787.66 315.211L1726.41 279.909Z" stroke="#393254"/>
<path d="M1848.93 279.909L1910.19 244.608L1971.44 279.909L1910.19 315.211L1848.93 279.909Z" stroke="#393254"/>
<path d="M623.664 209.236L684.921 173.934L746.179 209.236L684.921 244.537L623.664 209.236Z" stroke="#393254"/>
<path d="M501.132 209.236L562.39 173.934L623.648 209.236L562.39 244.537L501.132 209.236Z" stroke="#393254"/>
<path d="M378.601 209.236L439.859 173.934L501.117 209.236L439.859 244.537L378.601 209.236Z" stroke="#393254"/>
<path d="M256.078 209.236L317.335 173.934L378.593 209.236L317.335 244.537L256.078 209.236Z" stroke="#393254"/>
<path d="M133.546 209.236L194.804 173.934L256.062 209.236L194.804 244.537L133.546 209.236Z" stroke="#393254"/>
<path d="M11.023 209.236L72.2808 173.934L133.539 209.236L72.2808 244.537L11.023 209.236Z" stroke="#393254"/>
<path d="M746.187 209.236L807.445 173.934L868.703 209.236L807.445 244.537L746.187 209.236Z" stroke="#393254"/>
<path d="M868.71 209.236L929.968 173.934L991.226 209.236L929.968 244.537L868.71 209.236Z" stroke="#393254"/>
<path d="M991.242 209.236L1052.5 173.934L1113.76 209.236L1052.5 244.537L991.242 209.236Z" stroke="#393254"/>
<path d="M1113.77 209.236L1175.02 173.934L1236.28 209.236L1175.02 244.537L1113.77 209.236Z" stroke="#393254"/>
<path d="M1236.3 209.236L1297.55 173.934L1358.81 209.236L1297.55 244.537L1236.3 209.236Z" stroke="#393254"/>
<path d="M1358.82 209.236L1420.08 173.934L1481.34 209.236L1420.08 244.537L1358.82 209.236Z" stroke="#393254"/>
<path d="M1481.35 209.236L1542.61 173.934L1603.87 209.236L1542.61 244.537L1481.35 209.236Z" stroke="#393254"/>
<path d="M1603.88 209.236L1665.14 173.934L1726.4 209.236L1665.14 244.537L1603.88 209.236Z" stroke="#393254"/>
<path d="M1726.41 209.236L1787.66 173.934L1848.92 209.236L1787.66 244.537L1726.41 209.236Z" stroke="#393254"/>
<path d="M1848.93 209.236L1910.19 173.934L1971.44 209.236L1910.19 244.537L1848.93 209.236Z" stroke="#393254"/>
<path d="M623.664 138.575L684.921 103.274L746.179 138.575L684.921 173.877L623.664 138.575Z" stroke="#393254"/>
<path d="M501.132 138.575L562.39 103.274L623.648 138.575L562.39 173.877L501.132 138.575Z" stroke="#393254"/>
<path d="M378.601 138.575L439.859 103.274L501.117 138.575L439.859 173.877L378.601 138.575Z" stroke="#393254"/>
<path d="M256.078 138.575L317.335 103.274L378.593 138.575L317.335 173.877L256.078 138.575Z" stroke="#393254"/>
<path d="M133.546 138.575L194.804 103.274L256.062 138.575L194.804 173.877L133.546 138.575Z" stroke="#393254"/>
<path d="M11.023 138.575L72.2808 103.274L133.539 138.575L72.2808 173.877L11.023 138.575Z" stroke="#393254"/>
<path d="M746.187 138.575L807.445 103.274L868.703 138.575L807.445 173.877L746.187 138.575Z" stroke="#393254"/>
<path d="M868.71 138.575L929.968 103.274L991.226 138.575L929.968 173.877L868.71 138.575Z" stroke="#393254"/>
<path d="M991.242 138.575L1052.5 103.274L1113.76 138.575L1052.5 173.877L991.242 138.575Z" stroke="#393254"/>
<path d="M1113.77 138.575L1175.02 103.274L1236.28 138.575L1175.02 173.877L1113.77 138.575Z" stroke="#393254"/>
<path d="M1236.3 138.575L1297.55 103.274L1358.81 138.575L1297.55 173.877L1236.3 138.575Z" stroke="#393254"/>
<path d="M1358.82 138.575L1420.08 103.274L1481.34 138.575L1420.08 173.877L1358.82 138.575Z" stroke="#393254"/>
<path d="M1481.35 138.575L1542.61 103.274L1603.87 138.575L1542.61 173.877L1481.35 138.575Z" stroke="#393254"/>
<path d="M1603.88 138.575L1665.14 103.274L1726.4 138.575L1665.14 173.877L1603.88 138.575Z" stroke="#393254"/>
<path d="M1726.41 138.575L1787.66 103.274L1848.92 138.575L1787.66 173.877L1726.41 138.575Z" stroke="#393254"/>
<path d="M1848.93 138.575L1910.19 103.274L1971.44 138.575L1910.19 173.877L1848.93 138.575Z" stroke="#393254"/>
<path d="M623.664 67.9075L684.921 32.6063L746.179 67.9075L684.921 103.209L623.664 67.9075Z" stroke="#393254"/>
<path d="M501.132 67.9075L562.39 32.6063L623.648 67.9075L562.39 103.209L501.132 67.9075Z" stroke="#393254"/>
<path d="M378.601 67.9075L439.859 32.6063L501.117 67.9075L439.859 103.209L378.601 67.9075Z" stroke="#393254"/>
<path d="M256.078 67.9075L317.335 32.6063L378.593 67.9075L317.335 103.209L256.078 67.9075Z" stroke="#393254"/>
<path d="M133.546 67.9075L194.804 32.6063L256.062 67.9075L194.804 103.209L133.546 67.9075Z" stroke="#393254"/>
<path d="M11.023 67.9075L72.2808 32.6063L133.539 67.9075L72.2808 103.209L11.023 67.9075Z" stroke="#393254"/>
<path d="M746.187 67.9075L807.445 32.6063L868.703 67.9075L807.445 103.209L746.187 67.9075Z" stroke="#393254"/>
<path d="M868.71 67.9075L929.968 32.6063L991.226 67.9075L929.968 103.209L868.71 67.9075Z" stroke="#393254"/>
<path d="M991.242 67.9075L1052.5 32.6063L1113.76 67.9075L1052.5 103.209L991.242 67.9075Z" stroke="#393254"/>
<path d="M1113.77 67.9075L1175.02 32.6063L1236.28 67.9075L1175.02 103.209L1113.77 67.9075Z" stroke="#393254"/>
<path d="M1236.3 67.9075L1297.55 32.6063L1358.81 67.9075L1297.55 103.209L1236.3 67.9075Z" stroke="#393254"/>
<path d="M1358.82 67.9075L1420.08 32.6063L1481.34 67.9075L1420.08 103.209L1358.82 67.9075Z" stroke="#393254"/>
<path d="M1481.35 67.9075L1542.61 32.6063L1603.87 67.9075L1542.61 103.209L1481.35 67.9075Z" stroke="#393254"/>
<path d="M1603.88 67.9075L1665.14 32.6063L1726.4 67.9075L1665.14 103.209L1603.88 67.9075Z" stroke="#393254"/>
<path d="M1726.41 67.9075L1787.66 32.6063L1848.92 67.9075L1787.66 103.209L1726.41 67.9075Z" stroke="#393254"/>
<path d="M1848.93 67.9075L1910.19 32.6063L1971.44 67.9075L1910.19 103.209L1848.93 67.9075Z" stroke="#393254"/>
</g>
<rect width="1922" height="775" fill="url(#paint0_linear_1002_5945)"/>
<rect x="0" y="2487" width="1922" height="716" fill="url(#paint1_linear_1002_5945)"/>
<defs>
<linearGradient id="paint0_linear_1002_5945" x1="961" y1="0" x2="961" y2="775" gradientUnits="userSpaceOnUse">
<stop stop-color="#1C1631"/>
<stop offset="1" stop-color="#1C1631" stop-opacity="0"/>
</linearGradient>
<linearGradient id="paint1_linear_1002_5945" x1="987" y1="2487" x2="987" y2="3203" gradientUnits="userSpaceOnUse">
<stop stop-color="#1C1631" stop-opacity="0"/>
<stop offset="0.540249" stop-color="#1C1631"/>
<stop offset="1" stop-color="#1C1631"/>
</linearGradient>
</defs>
</svg>
