<svg width="72" height="83" viewBox="0 0 72 83" fill="none" xmlns="http://www.w3.org/2000/svg">
<path fill-rule="evenodd" clip-rule="evenodd" d="M36.3927 0.835938L0.789062 21.1807V61.8711L36.3927 82.2167L71.9972 61.8711V21.1807L36.3927 0.835938Z" fill="white"/>
<mask id="mask0_1258_14662" style="mask-type:alpha" maskUnits="userSpaceOnUse" x="0" y="0" width="72" height="83">
<path fill-rule="evenodd" clip-rule="evenodd" d="M36.3927 0.835938L0.789062 21.1807V61.8711L36.3927 82.2167L71.9972 61.8711V21.1807L36.3927 0.835938Z" fill="white"/>
</mask>
<g mask="url(#mask0_1258_14662)">
</g>
<path d="M19.281 43.1086L19.4234 42.8848L28.008 29.4553C28.1335 29.2586 28.4284 29.279 28.5234 29.4926C29.9575 32.7068 31.1951 36.7041 30.6153 39.1926C30.3678 40.2165 29.6897 41.6033 28.9268 42.8848C28.8285 43.0713 28.72 43.2544 28.6047 43.4307C28.5505 43.5121 28.4589 43.5596 28.3606 43.5596H19.5319C19.2945 43.5596 19.1556 43.3019 19.281 43.1086Z" fill="#1C1631"/>
<path d="M57.5452 45.6045V47.7302C57.5452 47.8523 57.4706 47.9608 57.3621 48.0082C56.6976 48.2931 54.4226 49.3373 53.4767 50.6528C51.0627 54.0127 49.2183 58.817 45.0955 58.817H27.8957C21.7997 58.817 16.8599 53.8602 16.8599 47.7438V47.5471C16.8599 47.3844 16.9921 47.2522 17.1548 47.2522H26.743C26.9329 47.2522 27.0719 47.4285 27.055 47.615C26.9871 48.2388 27.1024 48.8762 27.3973 49.456C27.9669 50.6121 29.1469 51.3343 30.4216 51.3343H35.1683V47.6285H30.4759C30.2351 47.6285 30.0928 47.3505 30.2318 47.1538C30.2826 47.0759 30.3403 46.9945 30.4013 46.903C30.8454 46.2724 31.4794 45.2925 32.11 44.177C32.5407 43.4244 32.9577 42.6208 33.2933 41.8139C33.3612 41.6681 33.4154 41.519 33.4696 41.3731C33.5612 41.1155 33.6561 40.8747 33.7239 40.6341C33.7917 40.4306 33.846 40.217 33.9003 40.017C34.0596 39.3321 34.1274 38.6065 34.1274 37.8539C34.1274 37.5589 34.1138 37.2504 34.0867 36.9554C34.0732 36.6333 34.0325 36.3112 33.9918 35.9891C33.9646 35.7043 33.9138 35.4229 33.8596 35.128C33.7917 34.6974 33.6968 34.2702 33.5883 33.8396L33.551 33.6769C33.4696 33.3819 33.4018 33.1005 33.3069 32.8055C33.039 31.8799 32.7305 30.978 32.4051 30.1338C32.2864 29.7982 32.1507 29.4761 32.0151 29.154C31.8151 28.6691 31.6117 28.2284 31.4252 27.8114C31.3303 27.6215 31.2489 27.4486 31.1676 27.2723C31.076 27.0722 30.9811 26.8723 30.8861 26.6823C30.8183 26.5365 30.7403 26.4009 30.6861 26.2654L30.1064 25.194C30.025 25.0482 30.1605 24.8752 30.3199 24.9193L33.9477 25.9026H33.9579C33.9646 25.9026 33.968 25.9059 33.9715 25.9059L34.4494 26.0382L34.975 26.1873L35.1683 26.2416V24.0853C35.1683 23.0444 36.0023 22.2002 37.033 22.2002C37.5484 22.2002 38.0162 22.4104 38.3519 22.7528C38.6875 23.0953 38.8978 23.5632 38.8978 24.0853V27.2859L39.2842 27.3943C39.3147 27.4045 39.3453 27.4181 39.3724 27.4384C39.4674 27.5096 39.6029 27.6148 39.7759 27.7435C39.9115 27.8521 40.0572 27.9843 40.2336 28.1199C40.5828 28.4013 40.9998 28.7641 41.4575 29.1811C41.5796 29.2862 41.6982 29.3947 41.8068 29.5032C42.3967 30.0524 43.0578 30.6967 43.6884 31.4087C43.8647 31.6086 44.0376 31.8121 44.2139 32.0257C44.3903 32.2427 44.5767 32.4563 44.7395 32.6699C44.9531 32.9547 45.1836 33.2496 45.3837 33.5582C45.4786 33.704 45.5871 33.8532 45.6786 33.9989C45.9363 34.3889 46.1635 34.7923 46.3805 35.1957C46.472 35.3822 46.5669 35.5857 46.6483 35.7857C46.889 36.3248 47.0789 36.874 47.2009 37.4233C47.2383 37.542 47.2653 37.6708 47.2789 37.7861V37.8132C47.3196 37.976 47.3332 38.1489 47.3467 38.3252C47.401 38.8879 47.3739 39.4508 47.2518 40.017C47.2009 40.2577 47.1331 40.4848 47.0518 40.7256C46.9704 40.9561 46.889 41.1968 46.7839 41.424C46.5805 41.8953 46.3398 42.3666 46.055 42.8073C45.9634 42.97 45.8549 43.1429 45.7464 43.3057C45.6278 43.4786 45.5057 43.6414 45.3972 43.8007C45.2481 44.0042 45.0887 44.2177 44.9259 44.4076C44.7801 44.6076 44.631 44.8077 44.4682 44.984C44.2411 45.2518 44.0241 45.5061 43.797 45.7502C43.6613 45.9096 43.5155 46.0723 43.3663 46.2181C43.2206 46.3808 43.0714 46.5266 42.9357 46.6622C42.7086 46.8894 42.5188 47.0657 42.3594 47.2115L41.9864 47.5539C41.9322 47.6014 41.861 47.6285 41.7864 47.6285H38.8978V51.3343H42.5323C43.346 51.3343 44.119 51.0461 44.7429 50.5172C44.9564 50.3307 45.8889 49.5238 46.9908 48.3066C47.028 48.2659 47.0755 48.2354 47.1297 48.2219L57.1688 45.3196C57.3553 45.2654 57.5452 45.4078 57.5452 45.6045Z" fill="#1C1631"/>
</svg>
