<svg width="1920" height="3005" viewBox="0 0 1920 3005" fill="none" xmlns="http://www.w3.org/2000/svg">
<g opacity="0.6">
<path d="M585.702 390.07L646.918 357.402L708.134 390.07L646.918 422.738L585.702 390.07Z" stroke="#393254"/>
<path d="M463.175 390.07L524.39 357.402L585.606 390.07L524.39 422.738L463.175 390.07Z" stroke="#393254"/>
<path d="M340.647 390.07L401.863 357.402L463.079 390.07L401.863 422.738L340.647 390.07Z" stroke="#393254"/>
<path d="M218.12 390.07L279.336 357.402L340.552 390.07L279.336 422.738L218.12 390.07Z" stroke="#393254"/>
<path d="M95.5928 390.07L156.809 357.402L218.024 390.07L156.809 422.738L95.5928 390.07Z" stroke="#393254"/>
<path d="M-26.935 390.07L34.2808 357.402L95.4965 390.07L34.2808 422.738L-26.935 390.07Z" stroke="#393254"/>
<path d="M708.229 390.07L769.445 357.402L830.661 390.07L769.445 422.738L708.229 390.07Z" stroke="#393254"/>
<path d="M830.757 390.07L891.972 357.402L953.188 390.07L891.972 422.738L830.757 390.07Z" stroke="#393254"/>
<path d="M953.284 390.07L1014.5 357.402L1075.72 390.07L1014.5 422.738L953.284 390.07Z" stroke="#393254"/>
<path d="M1075.81 390.07L1137.03 357.402L1198.24 390.07L1137.03 422.738L1075.81 390.07Z" stroke="#393254"/>
<path d="M1198.34 390.07L1259.56 357.402L1320.77 390.07L1259.56 422.738L1198.34 390.07Z" stroke="#393254"/>
<path d="M1320.87 390.07L1382.08 357.402L1443.3 390.07L1382.08 422.738L1320.87 390.07Z" stroke="#393254"/>
<path d="M1443.39 390.07L1504.61 357.402L1565.83 390.07L1504.61 422.738L1443.39 390.07Z" stroke="#393254"/>
<path d="M1565.92 390.07L1627.14 357.402L1688.35 390.07L1627.14 422.738L1565.92 390.07Z" stroke="#393254"/>
<path d="M1688.45 390.07L1749.66 357.402L1810.88 390.07L1749.66 422.738L1688.45 390.07Z" stroke="#393254"/>
<path d="M1810.97 390.07L1872.19 357.402L1933.41 390.07L1872.19 422.738L1810.97 390.07Z" stroke="#393254"/>
<path d="M585.702 455.507L646.918 422.839L708.134 455.507L646.918 488.175L585.702 455.507Z" stroke="#393254"/>
<path d="M463.175 455.507L524.39 422.839L585.606 455.507L524.39 488.175L463.175 455.507Z" stroke="#393254"/>
<path d="M340.647 455.507L401.863 422.839L463.079 455.507L401.863 488.175L340.647 455.507Z" stroke="#393254"/>
<path d="M218.12 455.507L279.336 422.839L340.552 455.507L279.336 488.175L218.12 455.507Z" stroke="#393254"/>
<path d="M95.5928 455.507L156.809 422.839L218.024 455.507L156.809 488.175L95.5928 455.507Z" stroke="#393254"/>
<path d="M-26.935 455.507L34.2808 422.839L95.4965 455.507L34.2808 488.175L-26.935 455.507Z" stroke="#393254"/>
<path d="M708.229 455.507L769.445 422.839L830.661 455.507L769.445 488.175L708.229 455.507Z" stroke="#393254"/>
<path d="M830.757 455.507L891.972 422.839L953.188 455.507L891.972 488.175L830.757 455.507Z" stroke="#393254"/>
<path d="M953.284 455.507L1014.5 422.839L1075.72 455.507L1014.5 488.175L953.284 455.507Z" stroke="#393254"/>
<path d="M1075.81 455.507L1137.03 422.839L1198.24 455.507L1137.03 488.175L1075.81 455.507Z" stroke="#393254"/>
<path d="M1198.34 455.507L1259.56 422.839L1320.77 455.507L1259.56 488.175L1198.34 455.507Z" stroke="#393254"/>
<path d="M1320.87 455.507L1382.08 422.839L1443.3 455.507L1382.08 488.175L1320.87 455.507Z" stroke="#393254"/>
<path d="M1443.39 455.507L1504.61 422.839L1565.83 455.507L1504.61 488.175L1443.39 455.507Z" stroke="#393254"/>
<path d="M1565.92 455.507L1627.14 422.839L1688.35 455.507L1627.14 488.175L1565.92 455.507Z" stroke="#393254"/>
<path d="M1688.45 455.507L1749.66 422.839L1810.88 455.507L1749.66 488.175L1688.45 455.507Z" stroke="#393254"/>
<path d="M1810.97 455.507L1872.19 422.839L1933.41 455.507L1872.19 488.175L1810.97 455.507Z" stroke="#393254"/>
<path d="M585.703 520.944L646.918 488.276L708.134 520.944L646.918 553.612L585.703 520.944Z" stroke="#393254"/>
<path d="M463.175 520.944L524.391 488.276L585.606 520.944L524.391 553.612L463.175 520.944Z" stroke="#393254"/>
<path d="M340.647 520.944L401.863 488.276L463.079 520.944L401.863 553.612L340.647 520.944Z" stroke="#393254"/>
<path d="M218.12 520.944L279.336 488.276L340.552 520.944L279.336 553.612L218.12 520.944Z" stroke="#393254"/>
<path d="M95.5928 520.944L156.809 488.276L218.024 520.944L156.809 553.612L95.5928 520.944Z" stroke="#393254"/>
<path d="M-26.935 520.944L34.2808 488.276L95.4965 520.944L34.2808 553.612L-26.935 520.944Z" stroke="#393254"/>
<path d="M708.229 520.944L769.445 488.276L830.661 520.944L769.445 553.612L708.229 520.944Z" stroke="#393254"/>
<path d="M830.757 520.944L891.973 488.276L953.188 520.944L891.973 553.612L830.757 520.944Z" stroke="#393254"/>
<path d="M953.285 520.944L1014.5 488.276L1075.72 520.944L1014.5 553.612L953.285 520.944Z" stroke="#393254"/>
<path d="M1075.81 520.944L1137.03 488.276L1198.24 520.944L1137.03 553.612L1075.81 520.944Z" stroke="#393254"/>
<path d="M1198.34 520.944L1259.56 488.276L1320.77 520.944L1259.56 553.612L1198.34 520.944Z" stroke="#393254"/>
<path d="M1320.87 520.944L1382.08 488.276L1443.3 520.944L1382.08 553.612L1320.87 520.944Z" stroke="#393254"/>
<path d="M1443.39 520.944L1504.61 488.276L1565.83 520.944L1504.61 553.612L1443.39 520.944Z" stroke="#393254"/>
<path d="M1565.92 520.944L1627.14 488.276L1688.35 520.944L1627.14 553.612L1565.92 520.944Z" stroke="#393254"/>
<path d="M1688.45 520.944L1749.66 488.276L1810.88 520.944L1749.66 553.612L1688.45 520.944Z" stroke="#393254"/>
<path d="M1810.97 520.944L1872.19 488.276L1933.41 520.944L1872.19 553.612L1810.97 520.944Z" stroke="#393254"/>
<path d="M585.702 586.381L646.918 553.713L708.134 586.381L646.918 619.049L585.702 586.381Z" stroke="#393254"/>
<path d="M463.175 586.381L524.39 553.713L585.606 586.381L524.39 619.049L463.175 586.381Z" stroke="#393254"/>
<path d="M340.647 586.381L401.863 553.713L463.079 586.381L401.863 619.049L340.647 586.381Z" stroke="#393254"/>
<path d="M218.12 586.381L279.336 553.713L340.552 586.381L279.336 619.049L218.12 586.381Z" stroke="#393254"/>
<path d="M95.5928 586.381L156.809 553.713L218.024 586.381L156.809 619.049L95.5928 586.381Z" stroke="#393254"/>
<path d="M-26.935 586.381L34.2808 553.713L95.4965 586.381L34.2808 619.049L-26.935 586.381Z" stroke="#393254"/>
<path d="M708.229 586.381L769.445 553.713L830.661 586.381L769.445 619.049L708.229 586.381Z" stroke="#393254"/>
<path d="M830.757 586.381L891.972 553.713L953.188 586.381L891.972 619.049L830.757 586.381Z" stroke="#393254"/>
<path d="M953.284 586.381L1014.5 553.713L1075.72 586.381L1014.5 619.049L953.284 586.381Z" stroke="#393254"/>
<path d="M1075.81 586.381L1137.03 553.713L1198.24 586.381L1137.03 619.049L1075.81 586.381Z" stroke="#393254"/>
<path d="M1198.34 586.381L1259.56 553.713L1320.77 586.381L1259.56 619.049L1198.34 586.381Z" stroke="#393254"/>
<path d="M1320.87 586.381L1382.08 553.713L1443.3 586.381L1382.08 619.049L1320.87 586.381Z" stroke="#393254"/>
<path d="M1443.39 586.381L1504.61 553.713L1565.83 586.381L1504.61 619.049L1443.39 586.381Z" stroke="#393254"/>
<path d="M1565.92 586.381L1627.14 553.713L1688.35 586.381L1627.14 619.049L1565.92 586.381Z" stroke="#393254"/>
<path d="M1688.45 586.381L1749.66 553.713L1810.88 586.381L1749.66 619.049L1688.45 586.381Z" stroke="#393254"/>
<path d="M1810.97 586.381L1872.19 553.713L1933.41 586.381L1872.19 619.049L1810.97 586.381Z" stroke="#393254"/>
<path d="M585.702 651.818L646.918 619.15L708.134 651.818L646.918 684.486L585.702 651.818Z" stroke="#393254"/>
<path d="M463.175 651.818L524.39 619.15L585.606 651.818L524.39 684.486L463.175 651.818Z" stroke="#393254"/>
<path d="M340.647 651.818L401.863 619.15L463.079 651.818L401.863 684.486L340.647 651.818Z" stroke="#393254"/>
<path d="M218.12 651.818L279.336 619.15L340.552 651.818L279.336 684.486L218.12 651.818Z" stroke="#393254"/>
<path d="M95.5928 651.818L156.809 619.15L218.024 651.818L156.809 684.486L95.5928 651.818Z" stroke="#393254"/>
<path d="M-26.935 651.818L34.2808 619.15L95.4965 651.818L34.2808 684.486L-26.935 651.818Z" stroke="#393254"/>
<path d="M708.229 651.818L769.445 619.15L830.661 651.818L769.445 684.486L708.229 651.818Z" stroke="#393254"/>
<path d="M830.757 651.818L891.972 619.15L953.188 651.818L891.972 684.486L830.757 651.818Z" stroke="#393254"/>
<path d="M953.284 651.818L1014.5 619.15L1075.72 651.818L1014.5 684.486L953.284 651.818Z" stroke="#393254"/>
<path d="M1075.81 651.818L1137.03 619.15L1198.24 651.818L1137.03 684.486L1075.81 651.818Z" stroke="#393254"/>
<path d="M1198.34 651.818L1259.56 619.15L1320.77 651.818L1259.56 684.486L1198.34 651.818Z" stroke="#393254"/>
<path d="M1320.87 651.818L1382.08 619.15L1443.3 651.818L1382.08 684.486L1320.87 651.818Z" stroke="#393254"/>
<path d="M1443.39 651.818L1504.61 619.15L1565.83 651.818L1504.61 684.486L1443.39 651.818Z" stroke="#393254"/>
<path d="M1565.92 651.818L1627.14 619.15L1688.35 651.818L1627.14 684.486L1565.92 651.818Z" stroke="#393254"/>
<path d="M1688.45 651.818L1749.66 619.15L1810.88 651.818L1749.66 684.486L1688.45 651.818Z" stroke="#393254"/>
<path d="M1810.97 651.818L1872.19 619.15L1933.41 651.818L1872.19 684.486L1810.97 651.818Z" stroke="#393254"/>
<path d="M585.702 717.255L646.918 684.587L708.134 717.255L646.918 749.923L585.702 717.255Z" stroke="#393254"/>
<path d="M463.174 717.255L524.39 684.587L585.606 717.255L524.39 749.923L463.174 717.255Z" stroke="#393254"/>
<path d="M340.647 717.255L401.863 684.587L463.079 717.255L401.863 749.923L340.647 717.255Z" stroke="#393254"/>
<path d="M218.12 717.255L279.336 684.587L340.551 717.255L279.336 749.923L218.12 717.255Z" stroke="#393254"/>
<path d="M95.5926 717.255L156.808 684.587L218.024 717.255L156.808 749.923L95.5926 717.255Z" stroke="#393254"/>
<path d="M-26.9352 717.255L34.2805 684.587L95.4963 717.255L34.2805 749.923L-26.9352 717.255Z" stroke="#393254"/>
<path d="M708.229 717.255L769.445 684.587L830.66 717.255L769.445 749.923L708.229 717.255Z" stroke="#393254"/>
<path d="M830.756 717.255L891.972 684.587L953.188 717.255L891.972 749.923L830.756 717.255Z" stroke="#393254"/>
<path d="M953.284 717.255L1014.5 684.587L1075.72 717.255L1014.5 749.923L953.284 717.255Z" stroke="#393254"/>
<path d="M1075.81 717.255L1137.03 684.587L1198.24 717.255L1137.03 749.923L1075.81 717.255Z" stroke="#393254"/>
<path d="M1198.34 717.255L1259.56 684.587L1320.77 717.255L1259.56 749.923L1198.34 717.255Z" stroke="#393254"/>
<path d="M1320.87 717.255L1382.08 684.587L1443.3 717.255L1382.08 749.923L1320.87 717.255Z" stroke="#393254"/>
<path d="M1443.39 717.255L1504.61 684.587L1565.83 717.255L1504.61 749.923L1443.39 717.255Z" stroke="#393254"/>
<path d="M1565.92 717.255L1627.14 684.587L1688.35 717.255L1627.14 749.923L1565.92 717.255Z" stroke="#393254"/>
<path d="M1688.45 717.255L1749.66 684.587L1810.88 717.255L1749.66 749.923L1688.45 717.255Z" stroke="#393254"/>
<path d="M1810.97 717.255L1872.19 684.587L1933.41 717.255L1872.19 749.923L1810.97 717.255Z" stroke="#393254"/>
<path d="M585.702 782.692L646.918 750.024L708.134 782.692L646.918 815.36L585.702 782.692Z" stroke="#393254"/>
<path d="M463.175 782.692L524.39 750.024L585.606 782.692L524.39 815.36L463.175 782.692Z" stroke="#393254"/>
<path d="M340.647 782.692L401.863 750.024L463.079 782.692L401.863 815.36L340.647 782.692Z" stroke="#393254"/>
<path d="M218.12 782.692L279.336 750.024L340.552 782.692L279.336 815.36L218.12 782.692Z" stroke="#393254"/>
<path d="M95.5928 782.692L156.809 750.024L218.024 782.692L156.809 815.36L95.5928 782.692Z" stroke="#393254"/>
<path d="M-26.935 782.692L34.2808 750.024L95.4965 782.692L34.2808 815.36L-26.935 782.692Z" stroke="#393254"/>
<path d="M708.229 782.692L769.445 750.024L830.661 782.692L769.445 815.36L708.229 782.692Z" stroke="#393254"/>
<path d="M830.757 782.692L891.972 750.024L953.188 782.692L891.972 815.36L830.757 782.692Z" stroke="#393254"/>
<path d="M953.284 782.692L1014.5 750.024L1075.72 782.692L1014.5 815.36L953.284 782.692Z" stroke="#393254"/>
<path d="M1075.81 782.692L1137.03 750.024L1198.24 782.692L1137.03 815.36L1075.81 782.692Z" stroke="#393254"/>
<path d="M1198.34 782.692L1259.56 750.024L1320.77 782.692L1259.56 815.36L1198.34 782.692Z" stroke="#393254"/>
<path d="M1320.87 782.692L1382.08 750.024L1443.3 782.692L1382.08 815.36L1320.87 782.692Z" stroke="#393254"/>
<path d="M1443.39 782.692L1504.61 750.024L1565.83 782.692L1504.61 815.36L1443.39 782.692Z" stroke="#393254"/>
<path d="M1565.92 782.692L1627.14 750.024L1688.35 782.692L1627.14 815.36L1565.92 782.692Z" stroke="#393254"/>
<path d="M1688.45 782.692L1749.66 750.024L1810.88 782.692L1749.66 815.36L1688.45 782.692Z" stroke="#393254"/>
<path d="M1810.97 782.692L1872.19 750.024L1933.41 782.692L1872.19 815.36L1810.97 782.692Z" stroke="#393254"/>
<path d="M585.702 848.129L646.918 815.461L708.134 848.129L646.918 880.797L585.702 848.129Z" stroke="#393254"/>
<path d="M463.175 848.129L524.39 815.461L585.606 848.129L524.39 880.797L463.175 848.129Z" stroke="#393254"/>
<path d="M340.647 848.129L401.863 815.461L463.079 848.129L401.863 880.797L340.647 848.129Z" stroke="#393254"/>
<path d="M218.12 848.129L279.336 815.461L340.552 848.129L279.336 880.797L218.12 848.129Z" stroke="#393254"/>
<path d="M95.5928 848.129L156.809 815.461L218.024 848.129L156.809 880.797L95.5928 848.129Z" stroke="#393254"/>
<path d="M-26.935 848.129L34.2808 815.461L95.4965 848.129L34.2808 880.797L-26.935 848.129Z" stroke="#393254"/>
<path d="M708.229 848.129L769.445 815.461L830.661 848.129L769.445 880.797L708.229 848.129Z" stroke="#393254"/>
<path d="M830.757 848.129L891.972 815.461L953.188 848.129L891.972 880.797L830.757 848.129Z" stroke="#393254"/>
<path d="M953.284 848.129L1014.5 815.461L1075.72 848.129L1014.5 880.797L953.284 848.129Z" stroke="#393254"/>
<path d="M1075.81 848.129L1137.03 815.461L1198.24 848.129L1137.03 880.797L1075.81 848.129Z" stroke="#393254"/>
<path d="M1198.34 848.129L1259.56 815.461L1320.77 848.129L1259.56 880.797L1198.34 848.129Z" stroke="#393254"/>
<path d="M1320.87 848.129L1382.08 815.461L1443.3 848.129L1382.08 880.797L1320.87 848.129Z" stroke="#393254"/>
<path d="M1443.39 848.129L1504.61 815.461L1565.83 848.129L1504.61 880.797L1443.39 848.129Z" stroke="#393254"/>
<path d="M1565.92 848.129L1627.14 815.461L1688.35 848.129L1627.14 880.797L1565.92 848.129Z" stroke="#393254"/>
<path d="M1688.45 848.129L1749.66 815.461L1810.88 848.129L1749.66 880.797L1688.45 848.129Z" stroke="#393254"/>
<path d="M1810.97 848.129L1872.19 815.461L1933.41 848.129L1872.19 880.797L1810.97 848.129Z" stroke="#393254"/>
<path d="M585.702 913.566L646.918 880.898L708.134 913.566L646.918 946.234L585.702 913.566Z" stroke="#393254"/>
<path d="M463.175 913.566L524.39 880.898L585.606 913.566L524.39 946.234L463.175 913.566Z" stroke="#393254"/>
<path d="M340.647 913.566L401.863 880.898L463.079 913.566L401.863 946.234L340.647 913.566Z" stroke="#393254"/>
<path d="M218.12 913.566L279.336 880.898L340.552 913.566L279.336 946.234L218.12 913.566Z" stroke="#393254"/>
<path d="M95.5928 913.566L156.809 880.898L218.024 913.566L156.809 946.234L95.5928 913.566Z" stroke="#393254"/>
<path d="M-26.935 913.566L34.2808 880.898L95.4965 913.566L34.2808 946.234L-26.935 913.566Z" stroke="#393254"/>
<path d="M708.229 913.566L769.445 880.898L830.661 913.566L769.445 946.234L708.229 913.566Z" stroke="#393254"/>
<path d="M830.757 913.566L891.972 880.898L953.188 913.566L891.972 946.234L830.757 913.566Z" stroke="#393254"/>
<path d="M953.284 913.566L1014.5 880.898L1075.72 913.566L1014.5 946.234L953.284 913.566Z" stroke="#393254"/>
<path d="M1075.81 913.566L1137.03 880.898L1198.24 913.566L1137.03 946.234L1075.81 913.566Z" stroke="#393254"/>
<path d="M1198.34 913.566L1259.56 880.898L1320.77 913.566L1259.56 946.234L1198.34 913.566Z" stroke="#393254"/>
<path d="M1320.87 913.566L1382.08 880.898L1443.3 913.566L1382.08 946.234L1320.87 913.566Z" stroke="#393254"/>
<path d="M1443.39 913.566L1504.61 880.898L1565.83 913.566L1504.61 946.234L1443.39 913.566Z" stroke="#393254"/>
<path d="M1565.92 913.566L1627.14 880.898L1688.35 913.566L1627.14 946.234L1565.92 913.566Z" stroke="#393254"/>
<path d="M1688.45 913.566L1749.66 880.898L1810.88 913.566L1749.66 946.234L1688.45 913.566Z" stroke="#393254"/>
<path d="M1810.97 913.566L1872.19 880.898L1933.41 913.566L1872.19 946.234L1810.97 913.566Z" stroke="#393254"/>
<path d="M585.702 979.003L646.918 946.335L708.134 979.003L646.918 1011.67L585.702 979.003Z" stroke="#393254"/>
<path d="M463.175 979.003L524.39 946.335L585.606 979.003L524.39 1011.67L463.175 979.003Z" stroke="#393254"/>
<path d="M340.647 979.003L401.863 946.335L463.079 979.003L401.863 1011.67L340.647 979.003Z" stroke="#393254"/>
<path d="M218.12 979.003L279.336 946.335L340.552 979.003L279.336 1011.67L218.12 979.003Z" stroke="#393254"/>
<path d="M95.5928 979.003L156.809 946.335L218.024 979.003L156.809 1011.67L95.5928 979.003Z" stroke="#393254"/>
<path d="M-26.935 979.003L34.2808 946.335L95.4965 979.003L34.2808 1011.67L-26.935 979.003Z" stroke="#393254"/>
<path d="M708.229 979.003L769.445 946.335L830.661 979.003L769.445 1011.67L708.229 979.003Z" stroke="#393254"/>
<path d="M830.757 979.003L891.972 946.335L953.188 979.003L891.972 1011.67L830.757 979.003Z" stroke="#393254"/>
<path d="M953.284 979.003L1014.5 946.335L1075.72 979.003L1014.5 1011.67L953.284 979.003Z" stroke="#393254"/>
<path d="M1075.81 979.003L1137.03 946.335L1198.24 979.003L1137.03 1011.67L1075.81 979.003Z" stroke="#393254"/>
<path d="M1198.34 979.003L1259.56 946.335L1320.77 979.003L1259.56 1011.67L1198.34 979.003Z" stroke="#393254"/>
<path d="M1320.87 979.003L1382.08 946.335L1443.3 979.003L1382.08 1011.67L1320.87 979.003Z" stroke="#393254"/>
<path d="M1443.39 979.003L1504.61 946.335L1565.83 979.003L1504.61 1011.67L1443.39 979.003Z" stroke="#393254"/>
<path d="M1565.92 979.003L1627.14 946.335L1688.35 979.003L1627.14 1011.67L1565.92 979.003Z" stroke="#393254"/>
<path d="M1688.45 979.003L1749.66 946.335L1810.88 979.003L1749.66 1011.67L1688.45 979.003Z" stroke="#393254"/>
<path d="M1810.97 979.003L1872.19 946.335L1933.41 979.003L1872.19 1011.67L1810.97 979.003Z" stroke="#393254"/>
<path d="M585.702 1044.44L646.918 1011.77L708.134 1044.44L646.918 1077.11L585.702 1044.44Z" stroke="#393254"/>
<path d="M463.175 1044.44L524.39 1011.77L585.606 1044.44L524.39 1077.11L463.175 1044.44Z" stroke="#393254"/>
<path d="M340.647 1044.44L401.863 1011.77L463.079 1044.44L401.863 1077.11L340.647 1044.44Z" stroke="#393254"/>
<path d="M218.12 1044.44L279.336 1011.77L340.552 1044.44L279.336 1077.11L218.12 1044.44Z" stroke="#393254"/>
<path d="M95.5928 1044.44L156.809 1011.77L218.024 1044.44L156.809 1077.11L95.5928 1044.44Z" stroke="#393254"/>
<path d="M-26.935 1044.44L34.2808 1011.77L95.4965 1044.44L34.2808 1077.11L-26.935 1044.44Z" stroke="#393254"/>
<path d="M708.229 1044.44L769.445 1011.77L830.661 1044.44L769.445 1077.11L708.229 1044.44Z" stroke="#393254"/>
<path d="M830.757 1044.44L891.972 1011.77L953.188 1044.44L891.972 1077.11L830.757 1044.44Z" stroke="#393254"/>
<path d="M953.284 1044.44L1014.5 1011.77L1075.72 1044.44L1014.5 1077.11L953.284 1044.44Z" stroke="#393254"/>
<path d="M1075.81 1044.44L1137.03 1011.77L1198.24 1044.44L1137.03 1077.11L1075.81 1044.44Z" stroke="#393254"/>
<path d="M1198.34 1044.44L1259.56 1011.77L1320.77 1044.44L1259.56 1077.11L1198.34 1044.44Z" stroke="#393254"/>
<path d="M1320.87 1044.44L1382.08 1011.77L1443.3 1044.44L1382.08 1077.11L1320.87 1044.44Z" stroke="#393254"/>
<path d="M1443.39 1044.44L1504.61 1011.77L1565.83 1044.44L1504.61 1077.11L1443.39 1044.44Z" stroke="#393254"/>
<path d="M1565.92 1044.44L1627.14 1011.77L1688.35 1044.44L1627.14 1077.11L1565.92 1044.44Z" stroke="#393254"/>
<path d="M1688.45 1044.44L1749.66 1011.77L1810.88 1044.44L1749.66 1077.11L1688.45 1044.44Z" stroke="#393254"/>
<path d="M1810.97 1044.44L1872.19 1011.77L1933.41 1044.44L1872.19 1077.11L1810.97 1044.44Z" stroke="#393254"/>
<path d="M585.702 1109.88L646.918 1077.21L708.134 1109.88L646.918 1142.55L585.702 1109.88Z" stroke="#393254"/>
<path d="M463.175 1109.88L524.39 1077.21L585.606 1109.88L524.39 1142.55L463.175 1109.88Z" stroke="#393254"/>
<path d="M340.647 1109.88L401.863 1077.21L463.079 1109.88L401.863 1142.55L340.647 1109.88Z" stroke="#393254"/>
<path d="M218.12 1109.88L279.336 1077.21L340.552 1109.88L279.336 1142.55L218.12 1109.88Z" stroke="#393254"/>
<path d="M95.5928 1109.88L156.809 1077.21L218.024 1109.88L156.809 1142.55L95.5928 1109.88Z" stroke="#393254"/>
<path d="M-26.935 1109.88L34.2808 1077.21L95.4965 1109.88L34.2808 1142.55L-26.935 1109.88Z" stroke="#393254"/>
<path d="M708.229 1109.88L769.445 1077.21L830.661 1109.88L769.445 1142.55L708.229 1109.88Z" stroke="#393254"/>
<path d="M830.757 1109.88L891.972 1077.21L953.188 1109.88L891.972 1142.55L830.757 1109.88Z" stroke="#393254"/>
<path d="M953.284 1109.88L1014.5 1077.21L1075.72 1109.88L1014.5 1142.55L953.284 1109.88Z" stroke="#393254"/>
<path d="M1075.81 1109.88L1137.03 1077.21L1198.24 1109.88L1137.03 1142.55L1075.81 1109.88Z" stroke="#393254"/>
<path d="M1198.34 1109.88L1259.56 1077.21L1320.77 1109.88L1259.56 1142.55L1198.34 1109.88Z" stroke="#393254"/>
<path d="M1320.87 1109.88L1382.08 1077.21L1443.3 1109.88L1382.08 1142.55L1320.87 1109.88Z" stroke="#393254"/>
<path d="M1443.39 1109.88L1504.61 1077.21L1565.83 1109.88L1504.61 1142.55L1443.39 1109.88Z" stroke="#393254"/>
<path d="M1565.92 1109.88L1627.14 1077.21L1688.35 1109.88L1627.14 1142.55L1565.92 1109.88Z" stroke="#393254"/>
<path d="M1688.45 1109.88L1749.66 1077.21L1810.88 1109.88L1749.66 1142.55L1688.45 1109.88Z" stroke="#393254"/>
<path d="M1810.97 1109.88L1872.19 1077.21L1933.41 1109.88L1872.19 1142.55L1810.97 1109.88Z" stroke="#393254"/>
<path d="M585.702 1175.31L646.918 1142.65L708.134 1175.31L646.918 1207.98L585.702 1175.31Z" stroke="#393254"/>
<path d="M463.175 1175.31L524.39 1142.65L585.606 1175.31L524.39 1207.98L463.175 1175.31Z" stroke="#393254"/>
<path d="M340.647 1175.31L401.863 1142.65L463.079 1175.31L401.863 1207.98L340.647 1175.31Z" stroke="#393254"/>
<path d="M218.12 1175.31L279.336 1142.65L340.552 1175.31L279.336 1207.98L218.12 1175.31Z" stroke="#393254"/>
<path d="M95.5928 1175.31L156.809 1142.65L218.024 1175.31L156.809 1207.98L95.5928 1175.31Z" stroke="#393254"/>
<path d="M-26.935 1175.31L34.2808 1142.65L95.4965 1175.31L34.2808 1207.98L-26.935 1175.31Z" stroke="#393254"/>
<path d="M708.229 1175.31L769.445 1142.65L830.661 1175.31L769.445 1207.98L708.229 1175.31Z" stroke="#393254"/>
<path d="M830.757 1175.31L891.972 1142.65L953.188 1175.31L891.972 1207.98L830.757 1175.31Z" stroke="#393254"/>
<path d="M953.284 1175.31L1014.5 1142.65L1075.72 1175.31L1014.5 1207.98L953.284 1175.31Z" stroke="#393254"/>
<path d="M1075.81 1175.31L1137.03 1142.65L1198.24 1175.31L1137.03 1207.98L1075.81 1175.31Z" stroke="#393254"/>
<path d="M1198.34 1175.31L1259.56 1142.65L1320.77 1175.31L1259.56 1207.98L1198.34 1175.31Z" stroke="#393254"/>
<path d="M1320.87 1175.31L1382.08 1142.65L1443.3 1175.31L1382.08 1207.98L1320.87 1175.31Z" stroke="#393254"/>
<path d="M1443.39 1175.31L1504.61 1142.65L1565.83 1175.31L1504.61 1207.98L1443.39 1175.31Z" stroke="#393254"/>
<path d="M1565.92 1175.31L1627.14 1142.65L1688.35 1175.31L1627.14 1207.98L1565.92 1175.31Z" stroke="#393254"/>
<path d="M1688.45 1175.31L1749.66 1142.65L1810.88 1175.31L1749.66 1207.98L1688.45 1175.31Z" stroke="#393254"/>
<path d="M1810.97 1175.31L1872.19 1142.65L1933.41 1175.31L1872.19 1207.98L1810.97 1175.31Z" stroke="#393254"/>
<path d="M585.702 1240.75L646.918 1208.08L708.134 1240.75L646.918 1273.42L585.702 1240.75Z" stroke="#393254"/>
<path d="M463.175 1240.75L524.39 1208.08L585.606 1240.75L524.39 1273.42L463.175 1240.75Z" stroke="#393254"/>
<path d="M340.647 1240.75L401.863 1208.08L463.079 1240.75L401.863 1273.42L340.647 1240.75Z" stroke="#393254"/>
<path d="M218.12 1240.75L279.336 1208.08L340.552 1240.75L279.336 1273.42L218.12 1240.75Z" stroke="#393254"/>
<path d="M95.5928 1240.75L156.809 1208.08L218.024 1240.75L156.809 1273.42L95.5928 1240.75Z" stroke="#393254"/>
<path d="M-26.935 1240.75L34.2808 1208.08L95.4965 1240.75L34.2808 1273.42L-26.935 1240.75Z" stroke="#393254"/>
<path d="M708.229 1240.75L769.445 1208.08L830.661 1240.75L769.445 1273.42L708.229 1240.75Z" stroke="#393254"/>
<path d="M830.757 1240.75L891.972 1208.08L953.188 1240.75L891.972 1273.42L830.757 1240.75Z" stroke="#393254"/>
<path d="M953.284 1240.75L1014.5 1208.08L1075.72 1240.75L1014.5 1273.42L953.284 1240.75Z" stroke="#393254"/>
<path d="M1075.81 1240.75L1137.03 1208.08L1198.24 1240.75L1137.03 1273.42L1075.81 1240.75Z" stroke="#393254"/>
<path d="M1198.34 1240.75L1259.56 1208.08L1320.77 1240.75L1259.56 1273.42L1198.34 1240.75Z" stroke="#393254"/>
<path d="M1320.87 1240.75L1382.08 1208.08L1443.3 1240.75L1382.08 1273.42L1320.87 1240.75Z" stroke="#393254"/>
<path d="M1443.39 1240.75L1504.61 1208.08L1565.83 1240.75L1504.61 1273.42L1443.39 1240.75Z" stroke="#393254"/>
<path d="M1565.92 1240.75L1627.14 1208.08L1688.35 1240.75L1627.14 1273.42L1565.92 1240.75Z" stroke="#393254"/>
<path d="M1688.45 1240.75L1749.66 1208.08L1810.88 1240.75L1749.66 1273.42L1688.45 1240.75Z" stroke="#393254"/>
<path d="M1810.97 1240.75L1872.19 1208.08L1933.41 1240.75L1872.19 1273.42L1810.97 1240.75Z" stroke="#393254"/>
<path d="M585.702 1306.19L646.918 1273.52L708.134 1306.19L646.918 1338.86L585.702 1306.19Z" stroke="#393254"/>
<path d="M463.175 1306.19L524.39 1273.52L585.606 1306.19L524.39 1338.86L463.175 1306.19Z" stroke="#393254"/>
<path d="M340.647 1306.19L401.863 1273.52L463.079 1306.19L401.863 1338.86L340.647 1306.19Z" stroke="#393254"/>
<path d="M218.12 1306.19L279.336 1273.52L340.552 1306.19L279.336 1338.86L218.12 1306.19Z" stroke="#393254"/>
<path d="M95.5928 1306.19L156.809 1273.52L218.024 1306.19L156.809 1338.86L95.5928 1306.19Z" stroke="#393254"/>
<path d="M-26.935 1306.19L34.2808 1273.52L95.4965 1306.19L34.2808 1338.86L-26.935 1306.19Z" stroke="#393254"/>
<path d="M708.229 1306.19L769.445 1273.52L830.661 1306.19L769.445 1338.86L708.229 1306.19Z" stroke="#393254"/>
<path d="M830.757 1306.19L891.972 1273.52L953.188 1306.19L891.972 1338.86L830.757 1306.19Z" stroke="#393254"/>
<path d="M953.284 1306.19L1014.5 1273.52L1075.72 1306.19L1014.5 1338.86L953.284 1306.19Z" stroke="#393254"/>
<path d="M1075.81 1306.19L1137.03 1273.52L1198.24 1306.19L1137.03 1338.86L1075.81 1306.19Z" stroke="#393254"/>
<path d="M1198.34 1306.19L1259.56 1273.52L1320.77 1306.19L1259.56 1338.86L1198.34 1306.19Z" stroke="#393254"/>
<path d="M1320.87 1306.19L1382.08 1273.52L1443.3 1306.19L1382.08 1338.86L1320.87 1306.19Z" stroke="#393254"/>
<path d="M1443.39 1306.19L1504.61 1273.52L1565.83 1306.19L1504.61 1338.86L1443.39 1306.19Z" stroke="#393254"/>
<path d="M1565.92 1306.19L1627.14 1273.52L1688.35 1306.19L1627.14 1338.86L1565.92 1306.19Z" stroke="#393254"/>
<path d="M1688.45 1306.19L1749.66 1273.52L1810.88 1306.19L1749.66 1338.86L1688.45 1306.19Z" stroke="#393254"/>
<path d="M1810.97 1306.19L1872.19 1273.52L1933.41 1306.19L1872.19 1338.86L1810.97 1306.19Z" stroke="#393254"/>
<path d="M585.702 1371.63L646.918 1338.96L708.134 1371.63L646.918 1404.29L585.702 1371.63Z" stroke="#393254"/>
<path d="M463.175 1371.63L524.39 1338.96L585.606 1371.63L524.39 1404.29L463.175 1371.63Z" stroke="#393254"/>
<path d="M340.647 1371.63L401.863 1338.96L463.079 1371.63L401.863 1404.29L340.647 1371.63Z" stroke="#393254"/>
<path d="M218.12 1371.63L279.336 1338.96L340.552 1371.63L279.336 1404.29L218.12 1371.63Z" stroke="#393254"/>
<path d="M95.5928 1371.63L156.809 1338.96L218.024 1371.63L156.809 1404.29L95.5928 1371.63Z" stroke="#393254"/>
<path d="M-26.935 1371.63L34.2808 1338.96L95.4965 1371.63L34.2808 1404.29L-26.935 1371.63Z" stroke="#393254"/>
<path d="M708.229 1371.63L769.445 1338.96L830.661 1371.63L769.445 1404.29L708.229 1371.63Z" stroke="#393254"/>
<path d="M830.757 1371.63L891.972 1338.96L953.188 1371.63L891.972 1404.29L830.757 1371.63Z" stroke="#393254"/>
<path d="M953.284 1371.63L1014.5 1338.96L1075.72 1371.63L1014.5 1404.29L953.284 1371.63Z" stroke="#393254"/>
<path d="M1075.81 1371.63L1137.03 1338.96L1198.24 1371.63L1137.03 1404.29L1075.81 1371.63Z" stroke="#393254"/>
<path d="M1198.34 1371.63L1259.56 1338.96L1320.77 1371.63L1259.56 1404.29L1198.34 1371.63Z" stroke="#393254"/>
<path d="M1320.87 1371.63L1382.08 1338.96L1443.3 1371.63L1382.08 1404.29L1320.87 1371.63Z" stroke="#393254"/>
<path d="M1443.39 1371.63L1504.61 1338.96L1565.83 1371.63L1504.61 1404.29L1443.39 1371.63Z" stroke="#393254"/>
<path d="M1565.92 1371.63L1627.14 1338.96L1688.35 1371.63L1627.14 1404.29L1565.92 1371.63Z" stroke="#393254"/>
<path d="M1688.45 1371.63L1749.66 1338.96L1810.88 1371.63L1749.66 1404.29L1688.45 1371.63Z" stroke="#393254"/>
<path d="M1810.97 1371.63L1872.19 1338.96L1933.41 1371.63L1872.19 1404.29L1810.97 1371.63Z" stroke="#393254"/>
<path d="M585.702 1437.06L646.918 1404.4L708.134 1437.06L646.918 1469.73L585.702 1437.06Z" stroke="#393254"/>
<path d="M463.175 1437.06L524.39 1404.4L585.606 1437.06L524.39 1469.73L463.175 1437.06Z" stroke="#393254"/>
<path d="M340.647 1437.06L401.863 1404.4L463.079 1437.06L401.863 1469.73L340.647 1437.06Z" stroke="#393254"/>
<path d="M218.12 1437.06L279.336 1404.4L340.552 1437.06L279.336 1469.73L218.12 1437.06Z" stroke="#393254"/>
<path d="M95.5928 1437.06L156.809 1404.4L218.024 1437.06L156.809 1469.73L95.5928 1437.06Z" stroke="#393254"/>
<path d="M-26.935 1437.06L34.2808 1404.4L95.4965 1437.06L34.2808 1469.73L-26.935 1437.06Z" stroke="#393254"/>
<path d="M708.229 1437.06L769.445 1404.4L830.661 1437.06L769.445 1469.73L708.229 1437.06Z" stroke="#393254"/>
<path d="M830.757 1437.06L891.972 1404.4L953.188 1437.06L891.972 1469.73L830.757 1437.06Z" stroke="#393254"/>
<path d="M953.284 1437.06L1014.5 1404.4L1075.72 1437.06L1014.5 1469.73L953.284 1437.06Z" stroke="#393254"/>
<path d="M1075.81 1437.06L1137.03 1404.4L1198.24 1437.06L1137.03 1469.73L1075.81 1437.06Z" stroke="#393254"/>
<path d="M1198.34 1437.06L1259.56 1404.4L1320.77 1437.06L1259.56 1469.73L1198.34 1437.06Z" stroke="#393254"/>
<path d="M1320.87 1437.06L1382.08 1404.4L1443.3 1437.06L1382.08 1469.73L1320.87 1437.06Z" stroke="#393254"/>
<path d="M1443.39 1437.06L1504.61 1404.4L1565.83 1437.06L1504.61 1469.73L1443.39 1437.06Z" stroke="#393254"/>
<path d="M1565.92 1437.06L1627.14 1404.4L1688.35 1437.06L1627.14 1469.73L1565.92 1437.06Z" stroke="#393254"/>
<path d="M1688.45 1437.06L1749.66 1404.4L1810.88 1437.06L1749.66 1469.73L1688.45 1437.06Z" stroke="#393254"/>
<path d="M1810.97 1437.06L1872.19 1404.4L1933.41 1437.06L1872.19 1469.73L1810.97 1437.06Z" stroke="#393254"/>
<path d="M585.702 1502.5L646.918 1469.83L708.134 1502.5L646.918 1535.17L585.702 1502.5Z" stroke="#393254"/>
<path d="M463.175 1502.5L524.39 1469.83L585.606 1502.5L524.39 1535.17L463.175 1502.5Z" stroke="#393254"/>
<path d="M340.647 1502.5L401.863 1469.83L463.079 1502.5L401.863 1535.17L340.647 1502.5Z" stroke="#393254"/>
<path d="M218.12 1502.5L279.336 1469.83L340.552 1502.5L279.336 1535.17L218.12 1502.5Z" stroke="#393254"/>
<path d="M95.5928 1502.5L156.809 1469.83L218.024 1502.5L156.809 1535.17L95.5928 1502.5Z" stroke="#393254"/>
<path d="M-26.935 1502.5L34.2808 1469.83L95.4965 1502.5L34.2808 1535.17L-26.935 1502.5Z" stroke="#393254"/>
<path d="M708.229 1502.5L769.445 1469.83L830.661 1502.5L769.445 1535.17L708.229 1502.5Z" stroke="#393254"/>
<path d="M830.757 1502.5L891.972 1469.83L953.188 1502.5L891.972 1535.17L830.757 1502.5Z" stroke="#393254"/>
<path d="M953.284 1502.5L1014.5 1469.83L1075.72 1502.5L1014.5 1535.17L953.284 1502.5Z" stroke="#393254"/>
<path d="M1075.81 1502.5L1137.03 1469.83L1198.24 1502.5L1137.03 1535.17L1075.81 1502.5Z" stroke="#393254"/>
<path d="M1198.34 1502.5L1259.56 1469.83L1320.77 1502.5L1259.56 1535.17L1198.34 1502.5Z" stroke="#393254"/>
<path d="M1320.87 1502.5L1382.08 1469.83L1443.3 1502.5L1382.08 1535.17L1320.87 1502.5Z" stroke="#393254"/>
<path d="M1443.39 1502.5L1504.61 1469.83L1565.83 1502.5L1504.61 1535.17L1443.39 1502.5Z" stroke="#393254"/>
<path d="M1565.92 1502.5L1627.14 1469.83L1688.35 1502.5L1627.14 1535.17L1565.92 1502.5Z" stroke="#393254"/>
<path d="M1688.45 1502.5L1749.66 1469.83L1810.88 1502.5L1749.66 1535.17L1688.45 1502.5Z" stroke="#393254"/>
<path d="M1810.97 1502.5L1872.19 1469.83L1933.41 1502.5L1872.19 1535.17L1810.97 1502.5Z" stroke="#393254"/>
<path d="M585.703 1567.94L646.918 1535.27L708.134 1567.94L646.918 1600.6L585.703 1567.94Z" stroke="#393254"/>
<path d="M463.175 1567.94L524.391 1535.27L585.606 1567.94L524.391 1600.6L463.175 1567.94Z" stroke="#393254"/>
<path d="M340.647 1567.94L401.863 1535.27L463.079 1567.94L401.863 1600.6L340.647 1567.94Z" stroke="#393254"/>
<path d="M218.12 1567.94L279.336 1535.27L340.552 1567.94L279.336 1600.6L218.12 1567.94Z" stroke="#393254"/>
<path d="M95.5928 1567.94L156.809 1535.27L218.024 1567.94L156.809 1600.6L95.5928 1567.94Z" stroke="#393254"/>
<path d="M-26.935 1567.94L34.2808 1535.27L95.4965 1567.94L34.2808 1600.6L-26.935 1567.94Z" stroke="#393254"/>
<path d="M708.229 1567.94L769.445 1535.27L830.661 1567.94L769.445 1600.6L708.229 1567.94Z" stroke="#393254"/>
<path d="M830.757 1567.94L891.973 1535.27L953.188 1567.94L891.973 1600.6L830.757 1567.94Z" stroke="#393254"/>
<path d="M953.285 1567.94L1014.5 1535.27L1075.72 1567.94L1014.5 1600.6L953.285 1567.94Z" stroke="#393254"/>
<path d="M1075.81 1567.94L1137.03 1535.27L1198.24 1567.94L1137.03 1600.6L1075.81 1567.94Z" stroke="#393254"/>
<path d="M1198.34 1567.94L1259.56 1535.27L1320.77 1567.94L1259.56 1600.6L1198.34 1567.94Z" stroke="#393254"/>
<path d="M1320.87 1567.94L1382.08 1535.27L1443.3 1567.94L1382.08 1600.6L1320.87 1567.94Z" stroke="#393254"/>
<path d="M1443.39 1567.94L1504.61 1535.27L1565.83 1567.94L1504.61 1600.6L1443.39 1567.94Z" stroke="#393254"/>
<path d="M1565.92 1567.94L1627.14 1535.27L1688.35 1567.94L1627.14 1600.6L1565.92 1567.94Z" stroke="#393254"/>
<path d="M1688.45 1567.94L1749.66 1535.27L1810.88 1567.94L1749.66 1600.6L1688.45 1567.94Z" stroke="#393254"/>
<path d="M1810.97 1567.94L1872.19 1535.27L1933.41 1567.94L1872.19 1600.6L1810.97 1567.94Z" stroke="#393254"/>
<path d="M585.702 1633.37L646.918 1600.71L708.134 1633.37L646.918 1666.04L585.702 1633.37Z" stroke="#393254"/>
<path d="M463.175 1633.37L524.39 1600.71L585.606 1633.37L524.39 1666.04L463.175 1633.37Z" stroke="#393254"/>
<path d="M340.647 1633.37L401.863 1600.71L463.079 1633.37L401.863 1666.04L340.647 1633.37Z" stroke="#393254"/>
<path d="M218.12 1633.37L279.336 1600.71L340.552 1633.37L279.336 1666.04L218.12 1633.37Z" stroke="#393254"/>
<path d="M95.5928 1633.37L156.809 1600.71L218.024 1633.37L156.809 1666.04L95.5928 1633.37Z" stroke="#393254"/>
<path d="M-26.935 1633.37L34.2808 1600.71L95.4965 1633.37L34.2808 1666.04L-26.935 1633.37Z" stroke="#393254"/>
<path d="M708.229 1633.37L769.445 1600.71L830.661 1633.37L769.445 1666.04L708.229 1633.37Z" stroke="#393254"/>
<path d="M830.757 1633.37L891.972 1600.71L953.188 1633.37L891.972 1666.04L830.757 1633.37Z" stroke="#393254"/>
<path d="M953.284 1633.37L1014.5 1600.71L1075.72 1633.37L1014.5 1666.04L953.284 1633.37Z" stroke="#393254"/>
<path d="M1075.81 1633.37L1137.03 1600.71L1198.24 1633.37L1137.03 1666.04L1075.81 1633.37Z" stroke="#393254"/>
<path d="M1198.34 1633.37L1259.56 1600.71L1320.77 1633.37L1259.56 1666.04L1198.34 1633.37Z" stroke="#393254"/>
<path d="M1320.87 1633.37L1382.08 1600.71L1443.3 1633.37L1382.08 1666.04L1320.87 1633.37Z" stroke="#393254"/>
<path d="M1443.39 1633.37L1504.61 1600.71L1565.83 1633.37L1504.61 1666.04L1443.39 1633.37Z" stroke="#393254"/>
<path d="M1565.92 1633.37L1627.14 1600.71L1688.35 1633.37L1627.14 1666.04L1565.92 1633.37Z" stroke="#393254"/>
<path d="M1688.45 1633.37L1749.66 1600.71L1810.88 1633.37L1749.66 1666.04L1688.45 1633.37Z" stroke="#393254"/>
<path d="M1810.97 1633.37L1872.19 1600.71L1933.41 1633.37L1872.19 1666.04L1810.97 1633.37Z" stroke="#393254"/>
<path d="M585.702 1698.81L646.918 1666.14L708.134 1698.81L646.918 1731.48L585.702 1698.81Z" stroke="#393254"/>
<path d="M463.175 1698.81L524.39 1666.14L585.606 1698.81L524.39 1731.48L463.175 1698.81Z" stroke="#393254"/>
<path d="M340.647 1698.81L401.863 1666.14L463.079 1698.81L401.863 1731.48L340.647 1698.81Z" stroke="#393254"/>
<path d="M218.12 1698.81L279.336 1666.14L340.552 1698.81L279.336 1731.48L218.12 1698.81Z" stroke="#393254"/>
<path d="M95.5928 1698.81L156.809 1666.14L218.024 1698.81L156.809 1731.48L95.5928 1698.81Z" stroke="#393254"/>
<path d="M-26.9351 1698.81L34.2808 1666.14L95.4966 1698.81L34.2808 1731.48L-26.9351 1698.81Z" stroke="#393254"/>
<path d="M708.229 1698.81L769.445 1666.14L830.661 1698.81L769.445 1731.48L708.229 1698.81Z" stroke="#393254"/>
<path d="M830.757 1698.81L891.972 1666.14L953.188 1698.81L891.972 1731.48L830.757 1698.81Z" stroke="#393254"/>
<path d="M953.284 1698.81L1014.5 1666.14L1075.72 1698.81L1014.5 1731.48L953.284 1698.81Z" stroke="#393254"/>
<path d="M1075.81 1698.81L1137.03 1666.14L1198.24 1698.81L1137.03 1731.48L1075.81 1698.81Z" stroke="#393254"/>
<path d="M1198.34 1698.81L1259.56 1666.14L1320.77 1698.81L1259.56 1731.48L1198.34 1698.81Z" stroke="#393254"/>
<path d="M1320.87 1698.81L1382.08 1666.14L1443.3 1698.81L1382.08 1731.48L1320.87 1698.81Z" stroke="#393254"/>
<path d="M1443.39 1698.81L1504.61 1666.14L1565.83 1698.81L1504.61 1731.48L1443.39 1698.81Z" stroke="#393254"/>
<path d="M1565.92 1698.81L1627.14 1666.14L1688.35 1698.81L1627.14 1731.48L1565.92 1698.81Z" stroke="#393254"/>
<path d="M1688.45 1698.81L1749.66 1666.14L1810.88 1698.81L1749.66 1731.48L1688.45 1698.81Z" stroke="#393254"/>
<path d="M1810.97 1698.81L1872.19 1666.14L1933.41 1698.81L1872.19 1731.48L1810.97 1698.81Z" stroke="#393254"/>
<path d="M585.702 1764.25L646.918 1731.58L708.134 1764.25L646.918 1796.92L585.702 1764.25Z" stroke="#393254"/>
<path d="M463.175 1764.25L524.39 1731.58L585.606 1764.25L524.39 1796.92L463.175 1764.25Z" stroke="#393254"/>
<path d="M340.647 1764.25L401.863 1731.58L463.079 1764.25L401.863 1796.92L340.647 1764.25Z" stroke="#393254"/>
<path d="M218.12 1764.25L279.336 1731.58L340.552 1764.25L279.336 1796.92L218.12 1764.25Z" stroke="#393254"/>
<path d="M95.5928 1764.25L156.809 1731.58L218.024 1764.25L156.809 1796.92L95.5928 1764.25Z" stroke="#393254"/>
<path d="M-26.9351 1764.25L34.2808 1731.58L95.4966 1764.25L34.2808 1796.92L-26.9351 1764.25Z" stroke="#393254"/>
<path d="M708.229 1764.25L769.445 1731.58L830.661 1764.25L769.445 1796.92L708.229 1764.25Z" stroke="#393254"/>
<path d="M830.757 1764.25L891.972 1731.58L953.188 1764.25L891.972 1796.92L830.757 1764.25Z" stroke="#393254"/>
<path d="M953.284 1764.25L1014.5 1731.58L1075.72 1764.25L1014.5 1796.92L953.284 1764.25Z" stroke="#393254"/>
<path d="M1075.81 1764.25L1137.03 1731.58L1198.24 1764.25L1137.03 1796.92L1075.81 1764.25Z" stroke="#393254"/>
<path d="M1198.34 1764.25L1259.56 1731.58L1320.77 1764.25L1259.56 1796.92L1198.34 1764.25Z" stroke="#393254"/>
<path d="M1320.87 1764.25L1382.08 1731.58L1443.3 1764.25L1382.08 1796.92L1320.87 1764.25Z" stroke="#393254"/>
<path d="M1443.39 1764.25L1504.61 1731.58L1565.83 1764.25L1504.61 1796.92L1443.39 1764.25Z" stroke="#393254"/>
<path d="M1565.92 1764.25L1627.14 1731.58L1688.35 1764.25L1627.14 1796.92L1565.92 1764.25Z" stroke="#393254"/>
<path d="M1688.45 1764.25L1749.66 1731.58L1810.88 1764.25L1749.66 1796.92L1688.45 1764.25Z" stroke="#393254"/>
<path d="M1810.97 1764.25L1872.19 1731.58L1933.41 1764.25L1872.19 1796.92L1810.97 1764.25Z" stroke="#393254"/>
<path d="M585.703 1829.69L646.918 1797.02L708.134 1829.69L646.918 1862.35L585.703 1829.69Z" stroke="#393254"/>
<path d="M463.175 1829.69L524.391 1797.02L585.606 1829.69L524.391 1862.35L463.175 1829.69Z" stroke="#393254"/>
<path d="M340.647 1829.69L401.863 1797.02L463.079 1829.69L401.863 1862.35L340.647 1829.69Z" stroke="#393254"/>
<path d="M218.12 1829.69L279.336 1797.02L340.552 1829.69L279.336 1862.35L218.12 1829.69Z" stroke="#393254"/>
<path d="M95.5928 1829.69L156.809 1797.02L218.024 1829.69L156.809 1862.35L95.5928 1829.69Z" stroke="#393254"/>
<path d="M-26.935 1829.69L34.2808 1797.02L95.4965 1829.69L34.2808 1862.35L-26.935 1829.69Z" stroke="#393254"/>
<path d="M708.229 1829.69L769.445 1797.02L830.661 1829.69L769.445 1862.35L708.229 1829.69Z" stroke="#393254"/>
<path d="M830.757 1829.69L891.973 1797.02L953.188 1829.69L891.973 1862.35L830.757 1829.69Z" stroke="#393254"/>
<path d="M953.285 1829.69L1014.5 1797.02L1075.72 1829.69L1014.5 1862.35L953.285 1829.69Z" stroke="#393254"/>
<path d="M1075.81 1829.69L1137.03 1797.02L1198.24 1829.69L1137.03 1862.35L1075.81 1829.69Z" stroke="#393254"/>
<path d="M1198.34 1829.69L1259.56 1797.02L1320.77 1829.69L1259.56 1862.35L1198.34 1829.69Z" stroke="#393254"/>
<path d="M1320.87 1829.69L1382.08 1797.02L1443.3 1829.69L1382.08 1862.35L1320.87 1829.69Z" stroke="#393254"/>
<path d="M1443.39 1829.69L1504.61 1797.02L1565.83 1829.69L1504.61 1862.35L1443.39 1829.69Z" stroke="#393254"/>
<path d="M1565.92 1829.69L1627.14 1797.02L1688.35 1829.69L1627.14 1862.35L1565.92 1829.69Z" stroke="#393254"/>
<path d="M1688.45 1829.69L1749.66 1797.02L1810.88 1829.69L1749.66 1862.35L1688.45 1829.69Z" stroke="#393254"/>
<path d="M1810.97 1829.69L1872.19 1797.02L1933.41 1829.69L1872.19 1862.35L1810.97 1829.69Z" stroke="#393254"/>
<path d="M585.702 1895.12L646.918 1862.45L708.134 1895.12L646.918 1927.79L585.702 1895.12Z" stroke="#393254"/>
<path d="M463.175 1895.12L524.39 1862.45L585.606 1895.12L524.39 1927.79L463.175 1895.12Z" stroke="#393254"/>
<path d="M340.647 1895.12L401.863 1862.45L463.079 1895.12L401.863 1927.79L340.647 1895.12Z" stroke="#393254"/>
<path d="M218.12 1895.12L279.336 1862.45L340.552 1895.12L279.336 1927.79L218.12 1895.12Z" stroke="#393254"/>
<path d="M95.5928 1895.12L156.809 1862.45L218.024 1895.12L156.809 1927.79L95.5928 1895.12Z" stroke="#393254"/>
<path d="M-26.935 1895.12L34.2808 1862.45L95.4965 1895.12L34.2808 1927.79L-26.935 1895.12Z" stroke="#393254"/>
<path d="M708.229 1895.12L769.445 1862.45L830.661 1895.12L769.445 1927.79L708.229 1895.12Z" stroke="#393254"/>
<path d="M830.757 1895.12L891.972 1862.45L953.188 1895.12L891.972 1927.79L830.757 1895.12Z" stroke="#393254"/>
<path d="M953.284 1895.12L1014.5 1862.45L1075.72 1895.12L1014.5 1927.79L953.284 1895.12Z" stroke="#393254"/>
<path d="M1075.81 1895.12L1137.03 1862.45L1198.24 1895.12L1137.03 1927.79L1075.81 1895.12Z" stroke="#393254"/>
<path d="M1198.34 1895.12L1259.56 1862.45L1320.77 1895.12L1259.56 1927.79L1198.34 1895.12Z" stroke="#393254"/>
<path d="M1320.87 1895.12L1382.08 1862.45L1443.3 1895.12L1382.08 1927.79L1320.87 1895.12Z" stroke="#393254"/>
<path d="M1443.39 1895.12L1504.61 1862.45L1565.83 1895.12L1504.61 1927.79L1443.39 1895.12Z" stroke="#393254"/>
<path d="M1565.92 1895.12L1627.14 1862.45L1688.35 1895.12L1627.14 1927.79L1565.92 1895.12Z" stroke="#393254"/>
<path d="M1688.45 1895.12L1749.66 1862.45L1810.88 1895.12L1749.66 1927.79L1688.45 1895.12Z" stroke="#393254"/>
<path d="M1810.97 1895.12L1872.19 1862.45L1933.41 1895.12L1872.19 1927.79L1810.97 1895.12Z" stroke="#393254"/>
<path d="M585.702 1960.56L646.918 1927.89L708.134 1960.56L646.918 1993.23L585.702 1960.56Z" stroke="#393254"/>
<path d="M463.175 1960.56L524.39 1927.89L585.606 1960.56L524.39 1993.23L463.175 1960.56Z" stroke="#393254"/>
<path d="M340.647 1960.56L401.863 1927.89L463.079 1960.56L401.863 1993.23L340.647 1960.56Z" stroke="#393254"/>
<path d="M218.12 1960.56L279.336 1927.89L340.552 1960.56L279.336 1993.23L218.12 1960.56Z" stroke="#393254"/>
<path d="M95.5928 1960.56L156.809 1927.89L218.024 1960.56L156.809 1993.23L95.5928 1960.56Z" stroke="#393254"/>
<path d="M-26.935 1960.56L34.2808 1927.89L95.4965 1960.56L34.2808 1993.23L-26.935 1960.56Z" stroke="#393254"/>
<path d="M708.229 1960.56L769.445 1927.89L830.661 1960.56L769.445 1993.23L708.229 1960.56Z" stroke="#393254"/>
<path d="M830.757 1960.56L891.972 1927.89L953.188 1960.56L891.972 1993.23L830.757 1960.56Z" stroke="#393254"/>
<path d="M953.284 1960.56L1014.5 1927.89L1075.72 1960.56L1014.5 1993.23L953.284 1960.56Z" stroke="#393254"/>
<path d="M1075.81 1960.56L1137.03 1927.89L1198.24 1960.56L1137.03 1993.23L1075.81 1960.56Z" stroke="#393254"/>
<path d="M1198.34 1960.56L1259.56 1927.89L1320.77 1960.56L1259.56 1993.23L1198.34 1960.56Z" stroke="#393254"/>
<path d="M1320.87 1960.56L1382.08 1927.89L1443.3 1960.56L1382.08 1993.23L1320.87 1960.56Z" stroke="#393254"/>
<path d="M1443.39 1960.56L1504.61 1927.89L1565.83 1960.56L1504.61 1993.23L1443.39 1960.56Z" stroke="#393254"/>
<path d="M1565.92 1960.56L1627.14 1927.89L1688.35 1960.56L1627.14 1993.23L1565.92 1960.56Z" stroke="#393254"/>
<path d="M1688.45 1960.56L1749.66 1927.89L1810.88 1960.56L1749.66 1993.23L1688.45 1960.56Z" stroke="#393254"/>
<path d="M1810.97 1960.56L1872.19 1927.89L1933.41 1960.56L1872.19 1993.23L1810.97 1960.56Z" stroke="#393254"/>
<path d="M585.702 2026L646.918 1993.33L708.134 2026L646.918 2058.66L585.702 2026Z" stroke="#393254"/>
<path d="M463.175 2026L524.39 1993.33L585.606 2026L524.39 2058.66L463.175 2026Z" stroke="#393254"/>
<path d="M340.647 2026L401.863 1993.33L463.079 2026L401.863 2058.66L340.647 2026Z" stroke="#393254"/>
<path d="M218.12 2026L279.336 1993.33L340.552 2026L279.336 2058.66L218.12 2026Z" stroke="#393254"/>
<path d="M95.5928 2026L156.809 1993.33L218.024 2026L156.809 2058.66L95.5928 2026Z" stroke="#393254"/>
<path d="M-26.935 2026L34.2808 1993.33L95.4965 2026L34.2808 2058.66L-26.935 2026Z" stroke="#393254"/>
<path d="M708.229 2026L769.445 1993.33L830.661 2026L769.445 2058.66L708.229 2026Z" stroke="#393254"/>
<path d="M830.757 2026L891.972 1993.33L953.188 2026L891.972 2058.66L830.757 2026Z" stroke="#393254"/>
<path d="M953.284 2026L1014.5 1993.33L1075.72 2026L1014.5 2058.66L953.284 2026Z" stroke="#393254"/>
<path d="M1075.81 2026L1137.03 1993.33L1198.24 2026L1137.03 2058.66L1075.81 2026Z" stroke="#393254"/>
<path d="M1198.34 2026L1259.56 1993.33L1320.77 2026L1259.56 2058.66L1198.34 2026Z" stroke="#393254"/>
<path d="M1320.87 2026L1382.08 1993.33L1443.3 2026L1382.08 2058.66L1320.87 2026Z" stroke="#393254"/>
<path d="M1443.39 2026L1504.61 1993.33L1565.83 2026L1504.61 2058.66L1443.39 2026Z" stroke="#393254"/>
<path d="M1565.92 2026L1627.14 1993.33L1688.35 2026L1627.14 2058.66L1565.92 2026Z" stroke="#393254"/>
<path d="M1688.45 2026L1749.66 1993.33L1810.88 2026L1749.66 2058.66L1688.45 2026Z" stroke="#393254"/>
<path d="M1810.97 2026L1872.19 1993.33L1933.41 2026L1872.19 2058.66L1810.97 2026Z" stroke="#393254"/>
<path d="M585.702 2091.43L646.918 2058.77L708.134 2091.43L646.918 2124.1L585.702 2091.43Z" stroke="#393254"/>
<path d="M463.175 2091.43L524.39 2058.77L585.606 2091.43L524.39 2124.1L463.175 2091.43Z" stroke="#393254"/>
<path d="M340.647 2091.43L401.863 2058.77L463.079 2091.43L401.863 2124.1L340.647 2091.43Z" stroke="#393254"/>
<path d="M218.12 2091.43L279.336 2058.77L340.552 2091.43L279.336 2124.1L218.12 2091.43Z" stroke="#393254"/>
<path d="M95.5928 2091.43L156.809 2058.77L218.024 2091.43L156.809 2124.1L95.5928 2091.43Z" stroke="#393254"/>
<path d="M-26.935 2091.43L34.2808 2058.77L95.4965 2091.43L34.2808 2124.1L-26.935 2091.43Z" stroke="#393254"/>
<path d="M708.229 2091.43L769.445 2058.77L830.661 2091.43L769.445 2124.1L708.229 2091.43Z" stroke="#393254"/>
<path d="M830.757 2091.43L891.972 2058.77L953.188 2091.43L891.972 2124.1L830.757 2091.43Z" stroke="#393254"/>
<path d="M953.284 2091.43L1014.5 2058.77L1075.72 2091.43L1014.5 2124.1L953.284 2091.43Z" stroke="#393254"/>
<path d="M1075.81 2091.43L1137.03 2058.77L1198.24 2091.43L1137.03 2124.1L1075.81 2091.43Z" stroke="#393254"/>
<path d="M1198.34 2091.43L1259.56 2058.77L1320.77 2091.43L1259.56 2124.1L1198.34 2091.43Z" stroke="#393254"/>
<path d="M1320.87 2091.43L1382.08 2058.77L1443.3 2091.43L1382.08 2124.1L1320.87 2091.43Z" stroke="#393254"/>
<path d="M1443.39 2091.43L1504.61 2058.77L1565.83 2091.43L1504.61 2124.1L1443.39 2091.43Z" stroke="#393254"/>
<path d="M1565.92 2091.43L1627.14 2058.77L1688.35 2091.43L1627.14 2124.1L1565.92 2091.43Z" stroke="#393254"/>
<path d="M1688.45 2091.43L1749.66 2058.77L1810.88 2091.43L1749.66 2124.1L1688.45 2091.43Z" stroke="#393254"/>
<path d="M1810.97 2091.43L1872.19 2058.77L1933.41 2091.43L1872.19 2124.1L1810.97 2091.43Z" stroke="#393254"/>
<path d="M585.703 2156.87L646.918 2124.2L708.134 2156.87L646.918 2189.54L585.703 2156.87Z" stroke="#393254"/>
<path d="M463.175 2156.87L524.391 2124.2L585.606 2156.87L524.391 2189.54L463.175 2156.87Z" stroke="#393254"/>
<path d="M340.647 2156.87L401.863 2124.2L463.079 2156.87L401.863 2189.54L340.647 2156.87Z" stroke="#393254"/>
<path d="M218.12 2156.87L279.336 2124.2L340.552 2156.87L279.336 2189.54L218.12 2156.87Z" stroke="#393254"/>
<path d="M95.5928 2156.87L156.809 2124.2L218.024 2156.87L156.809 2189.54L95.5928 2156.87Z" stroke="#393254"/>
<path d="M-26.935 2156.87L34.2808 2124.2L95.4965 2156.87L34.2808 2189.54L-26.935 2156.87Z" stroke="#393254"/>
<path d="M708.229 2156.87L769.445 2124.2L830.661 2156.87L769.445 2189.54L708.229 2156.87Z" stroke="#393254"/>
<path d="M830.757 2156.87L891.973 2124.2L953.188 2156.87L891.973 2189.54L830.757 2156.87Z" stroke="#393254"/>
<path d="M953.285 2156.87L1014.5 2124.2L1075.72 2156.87L1014.5 2189.54L953.285 2156.87Z" stroke="#393254"/>
<path d="M1075.81 2156.87L1137.03 2124.2L1198.24 2156.87L1137.03 2189.54L1075.81 2156.87Z" stroke="#393254"/>
<path d="M1198.34 2156.87L1259.56 2124.2L1320.77 2156.87L1259.56 2189.54L1198.34 2156.87Z" stroke="#393254"/>
<path d="M1320.87 2156.87L1382.08 2124.2L1443.3 2156.87L1382.08 2189.54L1320.87 2156.87Z" stroke="#393254"/>
<path d="M1443.39 2156.87L1504.61 2124.2L1565.83 2156.87L1504.61 2189.54L1443.39 2156.87Z" stroke="#393254"/>
<path d="M1565.92 2156.87L1627.14 2124.2L1688.35 2156.87L1627.14 2189.54L1565.92 2156.87Z" stroke="#393254"/>
<path d="M1688.45 2156.87L1749.66 2124.2L1810.88 2156.87L1749.66 2189.54L1688.45 2156.87Z" stroke="#393254"/>
<path d="M1810.97 2156.87L1872.19 2124.2L1933.41 2156.87L1872.19 2189.54L1810.97 2156.87Z" stroke="#393254"/>
<path d="M585.703 2222.31L646.918 2189.64L708.134 2222.31L646.918 2254.98L585.703 2222.31Z" stroke="#393254"/>
<path d="M463.175 2222.31L524.391 2189.64L585.606 2222.31L524.391 2254.98L463.175 2222.31Z" stroke="#393254"/>
<path d="M340.647 2222.31L401.863 2189.64L463.079 2222.31L401.863 2254.98L340.647 2222.31Z" stroke="#393254"/>
<path d="M218.12 2222.31L279.336 2189.64L340.552 2222.31L279.336 2254.98L218.12 2222.31Z" stroke="#393254"/>
<path d="M95.5928 2222.31L156.809 2189.64L218.024 2222.31L156.809 2254.98L95.5928 2222.31Z" stroke="#393254"/>
<path d="M-26.935 2222.31L34.2808 2189.64L95.4965 2222.31L34.2808 2254.98L-26.935 2222.31Z" stroke="#393254"/>
<path d="M708.229 2222.31L769.445 2189.64L830.661 2222.31L769.445 2254.98L708.229 2222.31Z" stroke="#393254"/>
<path d="M830.757 2222.31L891.973 2189.64L953.188 2222.31L891.973 2254.98L830.757 2222.31Z" stroke="#393254"/>
<path d="M953.285 2222.31L1014.5 2189.64L1075.72 2222.31L1014.5 2254.98L953.285 2222.31Z" stroke="#393254"/>
<path d="M1075.81 2222.31L1137.03 2189.64L1198.24 2222.31L1137.03 2254.98L1075.81 2222.31Z" stroke="#393254"/>
<path d="M1198.34 2222.31L1259.56 2189.64L1320.77 2222.31L1259.56 2254.98L1198.34 2222.31Z" stroke="#393254"/>
<path d="M1320.87 2222.31L1382.08 2189.64L1443.3 2222.31L1382.08 2254.98L1320.87 2222.31Z" stroke="#393254"/>
<path d="M1443.39 2222.31L1504.61 2189.64L1565.83 2222.31L1504.61 2254.98L1443.39 2222.31Z" stroke="#393254"/>
<path d="M1565.92 2222.31L1627.14 2189.64L1688.35 2222.31L1627.14 2254.98L1565.92 2222.31Z" stroke="#393254"/>
<path d="M1688.45 2222.31L1749.66 2189.64L1810.88 2222.31L1749.66 2254.98L1688.45 2222.31Z" stroke="#393254"/>
<path d="M1810.97 2222.31L1872.19 2189.64L1933.41 2222.31L1872.19 2254.98L1810.97 2222.31Z" stroke="#393254"/>
<path d="M585.702 2287.74L646.918 2255.08L708.134 2287.74L646.918 2320.41L585.702 2287.74Z" stroke="#393254"/>
<path d="M463.175 2287.74L524.39 2255.08L585.606 2287.74L524.39 2320.41L463.175 2287.74Z" stroke="#393254"/>
<path d="M340.647 2287.74L401.863 2255.08L463.079 2287.74L401.863 2320.41L340.647 2287.74Z" stroke="#393254"/>
<path d="M218.12 2287.74L279.336 2255.08L340.552 2287.74L279.336 2320.41L218.12 2287.74Z" stroke="#393254"/>
<path d="M95.5928 2287.74L156.809 2255.08L218.024 2287.74L156.809 2320.41L95.5928 2287.74Z" stroke="#393254"/>
<path d="M-26.935 2287.74L34.2808 2255.08L95.4965 2287.74L34.2808 2320.41L-26.935 2287.74Z" stroke="#393254"/>
<path d="M708.229 2287.74L769.445 2255.08L830.661 2287.74L769.445 2320.41L708.229 2287.74Z" stroke="#393254"/>
<path d="M830.757 2287.74L891.972 2255.08L953.188 2287.74L891.972 2320.41L830.757 2287.74Z" stroke="#393254"/>
<path d="M953.284 2287.74L1014.5 2255.08L1075.72 2287.74L1014.5 2320.41L953.284 2287.74Z" stroke="#393254"/>
<path d="M1075.81 2287.74L1137.03 2255.08L1198.24 2287.74L1137.03 2320.41L1075.81 2287.74Z" stroke="#393254"/>
<path d="M1198.34 2287.74L1259.56 2255.08L1320.77 2287.74L1259.56 2320.41L1198.34 2287.74Z" stroke="#393254"/>
<path d="M1320.87 2287.74L1382.08 2255.08L1443.3 2287.74L1382.08 2320.41L1320.87 2287.74Z" stroke="#393254"/>
<path d="M1443.39 2287.74L1504.61 2255.08L1565.83 2287.74L1504.61 2320.41L1443.39 2287.74Z" stroke="#393254"/>
<path d="M1565.92 2287.74L1627.14 2255.08L1688.35 2287.74L1627.14 2320.41L1565.92 2287.74Z" stroke="#393254"/>
<path d="M1688.45 2287.74L1749.66 2255.08L1810.88 2287.74L1749.66 2320.41L1688.45 2287.74Z" stroke="#393254"/>
<path d="M1810.97 2287.74L1872.19 2255.08L1933.41 2287.74L1872.19 2320.41L1810.97 2287.74Z" stroke="#393254"/>
<path d="M585.702 2353.18L646.918 2320.51L708.134 2353.18L646.918 2385.85L585.702 2353.18Z" stroke="#393254"/>
<path d="M463.175 2353.18L524.39 2320.51L585.606 2353.18L524.39 2385.85L463.175 2353.18Z" stroke="#393254"/>
<path d="M340.647 2353.18L401.863 2320.51L463.079 2353.18L401.863 2385.85L340.647 2353.18Z" stroke="#393254"/>
<path d="M218.12 2353.18L279.336 2320.51L340.552 2353.18L279.336 2385.85L218.12 2353.18Z" stroke="#393254"/>
<path d="M95.5928 2353.18L156.809 2320.51L218.024 2353.18L156.809 2385.85L95.5928 2353.18Z" stroke="#393254"/>
<path d="M-26.935 2353.18L34.2808 2320.51L95.4965 2353.18L34.2808 2385.85L-26.935 2353.18Z" stroke="#393254"/>
<path d="M708.229 2353.18L769.445 2320.51L830.661 2353.18L769.445 2385.85L708.229 2353.18Z" stroke="#393254"/>
<path d="M830.757 2353.18L891.972 2320.51L953.188 2353.18L891.972 2385.85L830.757 2353.18Z" stroke="#393254"/>
<path d="M953.284 2353.18L1014.5 2320.51L1075.72 2353.18L1014.5 2385.85L953.284 2353.18Z" stroke="#393254"/>
<path d="M1075.81 2353.18L1137.03 2320.51L1198.24 2353.18L1137.03 2385.85L1075.81 2353.18Z" stroke="#393254"/>
<path d="M1198.34 2353.18L1259.56 2320.51L1320.77 2353.18L1259.56 2385.85L1198.34 2353.18Z" stroke="#393254"/>
<path d="M1320.87 2353.18L1382.08 2320.51L1443.3 2353.18L1382.08 2385.85L1320.87 2353.18Z" stroke="#393254"/>
<path d="M1443.39 2353.18L1504.61 2320.51L1565.83 2353.18L1504.61 2385.85L1443.39 2353.18Z" stroke="#393254"/>
<path d="M1565.92 2353.18L1627.14 2320.51L1688.35 2353.18L1627.14 2385.85L1565.92 2353.18Z" stroke="#393254"/>
<path d="M1688.45 2353.18L1749.66 2320.51L1810.88 2353.18L1749.66 2385.85L1688.45 2353.18Z" stroke="#393254"/>
<path d="M1810.97 2353.18L1872.19 2320.51L1933.41 2353.18L1872.19 2385.85L1810.97 2353.18Z" stroke="#393254"/>
<path d="M585.702 2418.62L646.918 2385.95L708.134 2418.62L646.918 2451.29L585.702 2418.62Z" stroke="#393254"/>
<path d="M463.175 2418.62L524.39 2385.95L585.606 2418.62L524.39 2451.29L463.175 2418.62Z" stroke="#393254"/>
<path d="M340.647 2418.62L401.863 2385.95L463.079 2418.62L401.863 2451.29L340.647 2418.62Z" stroke="#393254"/>
<path d="M218.12 2418.62L279.336 2385.95L340.552 2418.62L279.336 2451.29L218.12 2418.62Z" stroke="#393254"/>
<path d="M95.5928 2418.62L156.809 2385.95L218.024 2418.62L156.809 2451.29L95.5928 2418.62Z" stroke="#393254"/>
<path d="M-26.935 2418.62L34.2808 2385.95L95.4965 2418.62L34.2808 2451.29L-26.935 2418.62Z" stroke="#393254"/>
<path d="M708.229 2418.62L769.445 2385.95L830.661 2418.62L769.445 2451.29L708.229 2418.62Z" stroke="#393254"/>
<path d="M830.757 2418.62L891.972 2385.95L953.188 2418.62L891.972 2451.29L830.757 2418.62Z" stroke="#393254"/>
<path d="M953.284 2418.62L1014.5 2385.95L1075.72 2418.62L1014.5 2451.29L953.284 2418.62Z" stroke="#393254"/>
<path d="M1075.81 2418.62L1137.03 2385.95L1198.24 2418.62L1137.03 2451.29L1075.81 2418.62Z" stroke="#393254"/>
<path d="M1198.34 2418.62L1259.56 2385.95L1320.77 2418.62L1259.56 2451.29L1198.34 2418.62Z" stroke="#393254"/>
<path d="M1320.87 2418.62L1382.08 2385.95L1443.3 2418.62L1382.08 2451.29L1320.87 2418.62Z" stroke="#393254"/>
<path d="M1443.39 2418.62L1504.61 2385.95L1565.83 2418.62L1504.61 2451.29L1443.39 2418.62Z" stroke="#393254"/>
<path d="M1565.92 2418.62L1627.14 2385.95L1688.35 2418.62L1627.14 2451.29L1565.92 2418.62Z" stroke="#393254"/>
<path d="M1688.45 2418.62L1749.66 2385.95L1810.88 2418.62L1749.66 2451.29L1688.45 2418.62Z" stroke="#393254"/>
<path d="M1810.97 2418.62L1872.19 2385.95L1933.41 2418.62L1872.19 2451.29L1810.97 2418.62Z" stroke="#393254"/>
<path d="M585.702 2484.06L646.918 2451.39L708.134 2484.06L646.918 2516.72L585.702 2484.06Z" stroke="#393254"/>
<path d="M463.175 2484.06L524.39 2451.39L585.606 2484.06L524.39 2516.72L463.175 2484.06Z" stroke="#393254"/>
<path d="M340.647 2484.06L401.863 2451.39L463.079 2484.06L401.863 2516.72L340.647 2484.06Z" stroke="#393254"/>
<path d="M218.12 2484.06L279.336 2451.39L340.552 2484.06L279.336 2516.72L218.12 2484.06Z" stroke="#393254"/>
<path d="M95.5928 2484.06L156.809 2451.39L218.024 2484.06L156.809 2516.72L95.5928 2484.06Z" stroke="#393254"/>
<path d="M-26.935 2484.06L34.2808 2451.39L95.4965 2484.06L34.2808 2516.72L-26.935 2484.06Z" stroke="#393254"/>
<path d="M708.229 2484.06L769.445 2451.39L830.661 2484.06L769.445 2516.72L708.229 2484.06Z" stroke="#393254"/>
<path d="M830.757 2484.06L891.972 2451.39L953.188 2484.06L891.972 2516.72L830.757 2484.06Z" stroke="#393254"/>
<path d="M953.284 2484.06L1014.5 2451.39L1075.72 2484.06L1014.5 2516.72L953.284 2484.06Z" stroke="#393254"/>
<path d="M1075.81 2484.06L1137.03 2451.39L1198.24 2484.06L1137.03 2516.72L1075.81 2484.06Z" stroke="#393254"/>
<path d="M1198.34 2484.06L1259.56 2451.39L1320.77 2484.06L1259.56 2516.72L1198.34 2484.06Z" stroke="#393254"/>
<path d="M1320.87 2484.06L1382.08 2451.39L1443.3 2484.06L1382.08 2516.72L1320.87 2484.06Z" stroke="#393254"/>
<path d="M1443.39 2484.06L1504.61 2451.39L1565.83 2484.06L1504.61 2516.72L1443.39 2484.06Z" stroke="#393254"/>
<path d="M1565.92 2484.06L1627.14 2451.39L1688.35 2484.06L1627.14 2516.72L1565.92 2484.06Z" stroke="#393254"/>
<path d="M1688.45 2484.06L1749.66 2451.39L1810.88 2484.06L1749.66 2516.72L1688.45 2484.06Z" stroke="#393254"/>
<path d="M1810.97 2484.06L1872.19 2451.39L1933.41 2484.06L1872.19 2516.72L1810.97 2484.06Z" stroke="#393254"/>
<path d="M585.702 2549.49L646.918 2516.82L708.134 2549.49L646.918 2582.16L585.702 2549.49Z" stroke="#393254"/>
<path d="M463.175 2549.49L524.39 2516.82L585.606 2549.49L524.39 2582.16L463.175 2549.49Z" stroke="#393254"/>
<path d="M340.647 2549.49L401.863 2516.82L463.079 2549.49L401.863 2582.16L340.647 2549.49Z" stroke="#393254"/>
<path d="M218.12 2549.49L279.336 2516.82L340.552 2549.49L279.336 2582.16L218.12 2549.49Z" stroke="#393254"/>
<path d="M95.5928 2549.49L156.809 2516.82L218.024 2549.49L156.809 2582.16L95.5928 2549.49Z" stroke="#393254"/>
<path d="M-26.935 2549.49L34.2808 2516.82L95.4965 2549.49L34.2808 2582.16L-26.935 2549.49Z" stroke="#393254"/>
<path d="M708.229 2549.49L769.445 2516.82L830.661 2549.49L769.445 2582.16L708.229 2549.49Z" stroke="#393254"/>
<path d="M830.757 2549.49L891.972 2516.82L953.188 2549.49L891.972 2582.16L830.757 2549.49Z" stroke="#393254"/>
<path d="M953.284 2549.49L1014.5 2516.82L1075.72 2549.49L1014.5 2582.16L953.284 2549.49Z" stroke="#393254"/>
<path d="M1075.81 2549.49L1137.03 2516.82L1198.24 2549.49L1137.03 2582.16L1075.81 2549.49Z" stroke="#393254"/>
<path d="M1198.34 2549.49L1259.56 2516.82L1320.77 2549.49L1259.56 2582.16L1198.34 2549.49Z" stroke="#393254"/>
<path d="M1320.87 2549.49L1382.08 2516.82L1443.3 2549.49L1382.08 2582.16L1320.87 2549.49Z" stroke="#393254"/>
<path d="M1443.39 2549.49L1504.61 2516.82L1565.83 2549.49L1504.61 2582.16L1443.39 2549.49Z" stroke="#393254"/>
<path d="M1565.92 2549.49L1627.14 2516.82L1688.35 2549.49L1627.14 2582.16L1565.92 2549.49Z" stroke="#393254"/>
<path d="M1688.45 2549.49L1749.66 2516.82L1810.88 2549.49L1749.66 2582.16L1688.45 2549.49Z" stroke="#393254"/>
<path d="M1810.97 2549.49L1872.19 2516.82L1933.41 2549.49L1872.19 2582.16L1810.97 2549.49Z" stroke="#393254"/>
<path d="M585.702 2614.93L646.918 2582.26L708.134 2614.93L646.918 2647.6L585.702 2614.93Z" stroke="#393254"/>
<path d="M463.175 2614.93L524.39 2582.26L585.606 2614.93L524.39 2647.6L463.175 2614.93Z" stroke="#393254"/>
<path d="M340.647 2614.93L401.863 2582.26L463.079 2614.93L401.863 2647.6L340.647 2614.93Z" stroke="#393254"/>
<path d="M218.12 2614.93L279.336 2582.26L340.552 2614.93L279.336 2647.6L218.12 2614.93Z" stroke="#393254"/>
<path d="M95.5928 2614.93L156.809 2582.26L218.024 2614.93L156.809 2647.6L95.5928 2614.93Z" stroke="#393254"/>
<path d="M-26.935 2614.93L34.2808 2582.26L95.4965 2614.93L34.2808 2647.6L-26.935 2614.93Z" stroke="#393254"/>
<path d="M708.229 2614.93L769.445 2582.26L830.661 2614.93L769.445 2647.6L708.229 2614.93Z" stroke="#393254"/>
<path d="M830.757 2614.93L891.972 2582.26L953.188 2614.93L891.972 2647.6L830.757 2614.93Z" stroke="#393254"/>
<path d="M953.284 2614.93L1014.5 2582.26L1075.72 2614.93L1014.5 2647.6L953.284 2614.93Z" stroke="#393254"/>
<path d="M1075.81 2614.93L1137.03 2582.26L1198.24 2614.93L1137.03 2647.6L1075.81 2614.93Z" stroke="#393254"/>
<path d="M1198.34 2614.93L1259.56 2582.26L1320.77 2614.93L1259.56 2647.6L1198.34 2614.93Z" stroke="#393254"/>
<path d="M1320.87 2614.93L1382.08 2582.26L1443.3 2614.93L1382.08 2647.6L1320.87 2614.93Z" stroke="#393254"/>
<path d="M1443.39 2614.93L1504.61 2582.26L1565.83 2614.93L1504.61 2647.6L1443.39 2614.93Z" stroke="#393254"/>
<path d="M1565.92 2614.93L1627.14 2582.26L1688.35 2614.93L1627.14 2647.6L1565.92 2614.93Z" stroke="#393254"/>
<path d="M1688.45 2614.93L1749.66 2582.26L1810.88 2614.93L1749.66 2647.6L1688.45 2614.93Z" stroke="#393254"/>
<path d="M1810.97 2614.93L1872.19 2582.26L1933.41 2614.93L1872.19 2647.6L1810.97 2614.93Z" stroke="#393254"/>
<path d="M585.703 2680.37L646.918 2647.7L708.134 2680.37L646.918 2713.03L585.703 2680.37Z" stroke="#393254"/>
<path d="M463.175 2680.37L524.391 2647.7L585.606 2680.37L524.391 2713.03L463.175 2680.37Z" stroke="#393254"/>
<path d="M340.648 2680.37L401.863 2647.7L463.079 2680.37L401.863 2713.03L340.648 2680.37Z" stroke="#393254"/>
<path d="M218.12 2680.37L279.336 2647.7L340.552 2680.37L279.336 2713.03L218.12 2680.37Z" stroke="#393254"/>
<path d="M95.593 2680.37L156.809 2647.7L218.025 2680.37L156.809 2713.03L95.593 2680.37Z" stroke="#393254"/>
<path d="M-26.9349 2680.37L34.281 2647.7L95.4969 2680.37L34.281 2713.03L-26.9349 2680.37Z" stroke="#393254"/>
<path d="M708.229 2680.37L769.445 2647.7L830.661 2680.37L769.445 2713.03L708.229 2680.37Z" stroke="#393254"/>
<path d="M830.757 2680.37L891.973 2647.7L953.188 2680.37L891.973 2713.03L830.757 2680.37Z" stroke="#393254"/>
<path d="M953.285 2680.37L1014.5 2647.7L1075.72 2680.37L1014.5 2713.03L953.285 2680.37Z" stroke="#393254"/>
<path d="M1075.81 2680.37L1137.03 2647.7L1198.24 2680.37L1137.03 2713.03L1075.81 2680.37Z" stroke="#393254"/>
<path d="M1198.34 2680.37L1259.56 2647.7L1320.77 2680.37L1259.56 2713.03L1198.34 2680.37Z" stroke="#393254"/>
<path d="M1320.87 2680.37L1382.08 2647.7L1443.3 2680.37L1382.08 2713.03L1320.87 2680.37Z" stroke="#393254"/>
<path d="M1443.39 2680.37L1504.61 2647.7L1565.83 2680.37L1504.61 2713.03L1443.39 2680.37Z" stroke="#393254"/>
<path d="M1565.92 2680.37L1627.14 2647.7L1688.35 2680.37L1627.14 2713.03L1565.92 2680.37Z" stroke="#393254"/>
<path d="M1688.45 2680.37L1749.66 2647.7L1810.88 2680.37L1749.66 2713.03L1688.45 2680.37Z" stroke="#393254"/>
<path d="M1810.97 2680.37L1872.19 2647.7L1933.41 2680.37L1872.19 2713.03L1810.97 2680.37Z" stroke="#393254"/>
<path d="M585.703 2745.8L646.918 2713.14L708.134 2745.8L646.918 2778.47L585.703 2745.8Z" stroke="#393254"/>
<path d="M463.175 2745.8L524.391 2713.14L585.607 2745.8L524.391 2778.47L463.175 2745.8Z" stroke="#393254"/>
<path d="M340.647 2745.8L401.863 2713.14L463.079 2745.8L401.863 2778.47L340.647 2745.8Z" stroke="#393254"/>
<path d="M218.12 2745.8L279.336 2713.14L340.552 2745.8L279.336 2778.47L218.12 2745.8Z" stroke="#393254"/>
<path d="M95.593 2745.8L156.809 2713.14L218.025 2745.8L156.809 2778.47L95.593 2745.8Z" stroke="#393254"/>
<path d="M-26.9349 2745.8L34.281 2713.14L95.4969 2745.8L34.281 2778.47L-26.9349 2745.8Z" stroke="#393254"/>
<path d="M708.229 2745.8L769.445 2713.14L830.661 2745.8L769.445 2778.47L708.229 2745.8Z" stroke="#393254"/>
<path d="M830.757 2745.8L891.973 2713.14L953.189 2745.8L891.973 2778.47L830.757 2745.8Z" stroke="#393254"/>
<path d="M953.285 2745.8L1014.5 2713.14L1075.72 2745.8L1014.5 2778.47L953.285 2745.8Z" stroke="#393254"/>
<path d="M1075.81 2745.8L1137.03 2713.14L1198.24 2745.8L1137.03 2778.47L1075.81 2745.8Z" stroke="#393254"/>
<path d="M1198.34 2745.8L1259.56 2713.14L1320.77 2745.8L1259.56 2778.47L1198.34 2745.8Z" stroke="#393254"/>
<path d="M1320.87 2745.8L1382.08 2713.14L1443.3 2745.8L1382.08 2778.47L1320.87 2745.8Z" stroke="#393254"/>
<path d="M1443.39 2745.8L1504.61 2713.14L1565.83 2745.8L1504.61 2778.47L1443.39 2745.8Z" stroke="#393254"/>
<path d="M1565.92 2745.8L1627.14 2713.14L1688.35 2745.8L1627.14 2778.47L1565.92 2745.8Z" stroke="#393254"/>
<path d="M1688.45 2745.8L1749.66 2713.14L1810.88 2745.8L1749.66 2778.47L1688.45 2745.8Z" stroke="#393254"/>
<path d="M1810.97 2745.8L1872.19 2713.14L1933.41 2745.8L1872.19 2778.47L1810.97 2745.8Z" stroke="#393254"/>
<path d="M585.702 2811.24L646.918 2778.57L708.134 2811.24L646.918 2843.91L585.702 2811.24Z" stroke="#393254"/>
<path d="M463.174 2811.24L524.39 2778.57L585.606 2811.24L524.39 2843.91L463.174 2811.24Z" stroke="#393254"/>
<path d="M340.648 2811.24L401.863 2778.57L463.079 2811.24L401.863 2843.91L340.648 2811.24Z" stroke="#393254"/>
<path d="M218.12 2811.24L279.336 2778.57L340.552 2811.24L279.336 2843.91L218.12 2811.24Z" stroke="#393254"/>
<path d="M95.593 2811.24L156.809 2778.57L218.025 2811.24L156.809 2843.91L95.593 2811.24Z" stroke="#393254"/>
<path d="M-26.9349 2811.24L34.281 2778.57L95.4969 2811.24L34.281 2843.91L-26.9349 2811.24Z" stroke="#393254"/>
<path d="M708.229 2811.24L769.445 2778.57L830.661 2811.24L769.445 2843.91L708.229 2811.24Z" stroke="#393254"/>
<path d="M830.756 2811.24L891.972 2778.57L953.188 2811.24L891.972 2843.91L830.756 2811.24Z" stroke="#393254"/>
<path d="M953.284 2811.24L1014.5 2778.57L1075.72 2811.24L1014.5 2843.91L953.284 2811.24Z" stroke="#393254"/>
<path d="M1075.81 2811.24L1137.03 2778.57L1198.24 2811.24L1137.03 2843.91L1075.81 2811.24Z" stroke="#393254"/>
<path d="M1198.34 2811.24L1259.56 2778.57L1320.77 2811.24L1259.56 2843.91L1198.34 2811.24Z" stroke="#393254"/>
<path d="M1320.87 2811.24L1382.08 2778.57L1443.3 2811.24L1382.08 2843.91L1320.87 2811.24Z" stroke="#393254"/>
<path d="M1443.39 2811.24L1504.61 2778.57L1565.83 2811.24L1504.61 2843.91L1443.39 2811.24Z" stroke="#393254"/>
<path d="M1565.92 2811.24L1627.14 2778.57L1688.35 2811.24L1627.14 2843.91L1565.92 2811.24Z" stroke="#393254"/>
<path d="M1688.45 2811.24L1749.66 2778.57L1810.88 2811.24L1749.66 2843.91L1688.45 2811.24Z" stroke="#393254"/>
<path d="M1810.97 2811.24L1872.19 2778.57L1933.41 2811.24L1872.19 2843.91L1810.97 2811.24Z" stroke="#393254"/>
<path d="M585.702 2876.68L646.918 2844.01L708.134 2876.68L646.918 2909.35L585.702 2876.68Z" stroke="#393254"/>
<path d="M463.175 2876.68L524.39 2844.01L585.606 2876.68L524.39 2909.35L463.175 2876.68Z" stroke="#393254"/>
<path d="M340.647 2876.68L401.863 2844.01L463.079 2876.68L401.863 2909.35L340.647 2876.68Z" stroke="#393254"/>
<path d="M218.12 2876.68L279.336 2844.01L340.552 2876.68L279.336 2909.35L218.12 2876.68Z" stroke="#393254"/>
<path d="M95.5928 2876.68L156.809 2844.01L218.024 2876.68L156.809 2909.35L95.5928 2876.68Z" stroke="#393254"/>
<path d="M-26.935 2876.68L34.2808 2844.01L95.4965 2876.68L34.2808 2909.35L-26.935 2876.68Z" stroke="#393254"/>
<path d="M708.229 2876.68L769.445 2844.01L830.661 2876.68L769.445 2909.35L708.229 2876.68Z" stroke="#393254"/>
<path d="M830.757 2876.68L891.972 2844.01L953.188 2876.68L891.972 2909.35L830.757 2876.68Z" stroke="#393254"/>
<path d="M953.284 2876.68L1014.5 2844.01L1075.72 2876.68L1014.5 2909.35L953.284 2876.68Z" stroke="#393254"/>
<path d="M1075.81 2876.68L1137.03 2844.01L1198.24 2876.68L1137.03 2909.35L1075.81 2876.68Z" stroke="#393254"/>
<path d="M1198.34 2876.68L1259.56 2844.01L1320.77 2876.68L1259.56 2909.35L1198.34 2876.68Z" stroke="#393254"/>
<path d="M1320.87 2876.68L1382.08 2844.01L1443.3 2876.68L1382.08 2909.35L1320.87 2876.68Z" stroke="#393254"/>
<path d="M1443.39 2876.68L1504.61 2844.01L1565.83 2876.68L1504.61 2909.35L1443.39 2876.68Z" stroke="#393254"/>
<path d="M1565.92 2876.68L1627.14 2844.01L1688.35 2876.68L1627.14 2909.35L1565.92 2876.68Z" stroke="#393254"/>
<path d="M1688.45 2876.68L1749.66 2844.01L1810.88 2876.68L1749.66 2909.35L1688.45 2876.68Z" stroke="#393254"/>
<path d="M1810.97 2876.68L1872.19 2844.01L1933.41 2876.68L1872.19 2909.35L1810.97 2876.68Z" stroke="#393254"/>
<path d="M585.703 2942.11L646.918 2909.45L708.134 2942.11L646.918 2974.78L585.703 2942.11Z" stroke="#393254"/>
<path d="M463.175 2942.11L524.391 2909.45L585.606 2942.11L524.391 2974.78L463.175 2942.11Z" stroke="#393254"/>
<path d="M340.647 2942.11L401.863 2909.45L463.079 2942.11L401.863 2974.78L340.647 2942.11Z" stroke="#393254"/>
<path d="M218.12 2942.11L279.336 2909.45L340.552 2942.11L279.336 2974.78L218.12 2942.11Z" stroke="#393254"/>
<path d="M95.5928 2942.11L156.809 2909.45L218.024 2942.11L156.809 2974.78L95.5928 2942.11Z" stroke="#393254"/>
<path d="M-26.935 2942.11L34.2808 2909.45L95.4965 2942.11L34.2808 2974.78L-26.935 2942.11Z" stroke="#393254"/>
<path d="M708.229 2942.11L769.445 2909.45L830.661 2942.11L769.445 2974.78L708.229 2942.11Z" stroke="#393254"/>
<path d="M830.757 2942.11L891.973 2909.45L953.188 2942.11L891.973 2974.78L830.757 2942.11Z" stroke="#393254"/>
<path d="M953.285 2942.11L1014.5 2909.45L1075.72 2942.11L1014.5 2974.78L953.285 2942.11Z" stroke="#393254"/>
<path d="M1075.81 2942.11L1137.03 2909.45L1198.24 2942.11L1137.03 2974.78L1075.81 2942.11Z" stroke="#393254"/>
<path d="M1198.34 2942.11L1259.56 2909.45L1320.77 2942.11L1259.56 2974.78L1198.34 2942.11Z" stroke="#393254"/>
<path d="M1320.87 2942.11L1382.08 2909.45L1443.3 2942.11L1382.08 2974.78L1320.87 2942.11Z" stroke="#393254"/>
<path d="M1443.39 2942.11L1504.61 2909.45L1565.83 2942.11L1504.61 2974.78L1443.39 2942.11Z" stroke="#393254"/>
<path d="M1565.92 2942.11L1627.14 2909.45L1688.35 2942.11L1627.14 2974.78L1565.92 2942.11Z" stroke="#393254"/>
<path d="M1688.45 2942.11L1749.66 2909.45L1810.88 2942.11L1749.66 2974.78L1688.45 2942.11Z" stroke="#393254"/>
<path d="M1810.97 2942.11L1872.19 2909.45L1933.41 2942.11L1872.19 2974.78L1810.97 2942.11Z" stroke="#393254"/>
<path d="M585.702 324.633L646.918 291.965L708.134 324.633L646.918 357.301L585.702 324.633Z" stroke="#393254"/>
<path d="M463.175 324.633L524.39 291.965L585.606 324.633L524.39 357.301L463.175 324.633Z" stroke="#393254"/>
<path d="M340.647 324.633L401.863 291.965L463.079 324.633L401.863 357.301L340.647 324.633Z" stroke="#393254"/>
<path d="M218.12 324.633L279.336 291.965L340.552 324.633L279.336 357.301L218.12 324.633Z" stroke="#393254"/>
<path d="M95.5928 324.633L156.809 291.965L218.024 324.633L156.809 357.301L95.5928 324.633Z" stroke="#393254"/>
<path d="M-26.935 324.633L34.2808 291.965L95.4965 324.633L34.2808 357.301L-26.935 324.633Z" stroke="#393254"/>
<path d="M708.229 324.633L769.445 291.965L830.661 324.633L769.445 357.301L708.229 324.633Z" stroke="#393254"/>
<path d="M830.757 324.633L891.972 291.965L953.188 324.633L891.972 357.301L830.757 324.633Z" stroke="#393254"/>
<path d="M953.284 324.633L1014.5 291.965L1075.72 324.633L1014.5 357.301L953.284 324.633Z" stroke="#393254"/>
<path d="M1075.81 324.633L1137.03 291.965L1198.24 324.633L1137.03 357.301L1075.81 324.633Z" stroke="#393254"/>
<path d="M1198.34 324.633L1259.56 291.965L1320.77 324.633L1259.56 357.301L1198.34 324.633Z" stroke="#393254"/>
<path d="M1320.87 324.633L1382.08 291.965L1443.3 324.633L1382.08 357.301L1320.87 324.633Z" stroke="#393254"/>
<path d="M1443.39 324.633L1504.61 291.965L1565.83 324.633L1504.61 357.301L1443.39 324.633Z" stroke="#393254"/>
<path d="M1565.92 324.633L1627.14 291.965L1688.35 324.633L1627.14 357.301L1565.92 324.633Z" stroke="#393254"/>
<path d="M1688.45 324.633L1749.66 291.965L1810.88 324.633L1749.66 357.301L1688.45 324.633Z" stroke="#393254"/>
<path d="M1810.97 324.633L1872.19 291.965L1933.41 324.633L1872.19 357.301L1810.97 324.633Z" stroke="#393254"/>
<path d="M585.702 259.196L646.918 226.528L708.134 259.196L646.918 291.864L585.702 259.196Z" stroke="#393254"/>
<path d="M463.175 259.196L524.39 226.528L585.606 259.196L524.39 291.864L463.175 259.196Z" stroke="#393254"/>
<path d="M340.647 259.196L401.863 226.528L463.079 259.196L401.863 291.864L340.647 259.196Z" stroke="#393254"/>
<path d="M218.12 259.196L279.336 226.528L340.552 259.196L279.336 291.864L218.12 259.196Z" stroke="#393254"/>
<path d="M95.5928 259.196L156.809 226.528L218.024 259.196L156.809 291.864L95.5928 259.196Z" stroke="#393254"/>
<path d="M-26.935 259.196L34.2808 226.528L95.4965 259.196L34.2808 291.864L-26.935 259.196Z" stroke="#393254"/>
<path d="M708.229 259.196L769.445 226.528L830.661 259.196L769.445 291.864L708.229 259.196Z" stroke="#393254"/>
<path d="M830.757 259.196L891.972 226.528L953.188 259.196L891.972 291.864L830.757 259.196Z" stroke="#393254"/>
<path d="M953.284 259.196L1014.5 226.528L1075.72 259.196L1014.5 291.864L953.284 259.196Z" stroke="#393254"/>
<path d="M1075.81 259.196L1137.03 226.528L1198.24 259.196L1137.03 291.864L1075.81 259.196Z" stroke="#393254"/>
<path d="M1198.34 259.196L1259.56 226.528L1320.77 259.196L1259.56 291.864L1198.34 259.196Z" stroke="#393254"/>
<path d="M1320.87 259.196L1382.08 226.528L1443.3 259.196L1382.08 291.864L1320.87 259.196Z" stroke="#393254"/>
<path d="M1443.39 259.196L1504.61 226.528L1565.83 259.196L1504.61 291.864L1443.39 259.196Z" stroke="#393254"/>
<path d="M1565.92 259.196L1627.14 226.528L1688.35 259.196L1627.14 291.864L1565.92 259.196Z" stroke="#393254"/>
<path d="M1688.45 259.196L1749.66 226.528L1810.88 259.196L1749.66 291.864L1688.45 259.196Z" stroke="#393254"/>
<path d="M1810.97 259.196L1872.19 226.528L1933.41 259.196L1872.19 291.864L1810.97 259.196Z" stroke="#393254"/>
<path d="M585.702 193.759L646.918 161.091L708.134 193.759L646.918 226.427L585.702 193.759Z" stroke="#393254"/>
<path d="M463.175 193.759L524.39 161.091L585.606 193.759L524.39 226.427L463.175 193.759Z" stroke="#393254"/>
<path d="M340.647 193.759L401.863 161.091L463.079 193.759L401.863 226.427L340.647 193.759Z" stroke="#393254"/>
<path d="M218.12 193.759L279.336 161.091L340.552 193.759L279.336 226.427L218.12 193.759Z" stroke="#393254"/>
<path d="M95.5928 193.759L156.809 161.091L218.024 193.759L156.809 226.427L95.5928 193.759Z" stroke="#393254"/>
<path d="M-26.935 193.759L34.2808 161.091L95.4965 193.759L34.2808 226.427L-26.935 193.759Z" stroke="#393254"/>
<path d="M708.229 193.759L769.445 161.091L830.661 193.759L769.445 226.427L708.229 193.759Z" stroke="#393254"/>
<path d="M830.757 193.759L891.972 161.091L953.188 193.759L891.972 226.427L830.757 193.759Z" stroke="#393254"/>
<path d="M953.284 193.759L1014.5 161.091L1075.72 193.759L1014.5 226.427L953.284 193.759Z" stroke="#393254"/>
<path d="M1075.81 193.759L1137.03 161.091L1198.24 193.759L1137.03 226.427L1075.81 193.759Z" stroke="#393254"/>
<path d="M1198.34 193.759L1259.56 161.091L1320.77 193.759L1259.56 226.427L1198.34 193.759Z" stroke="#393254"/>
<path d="M1320.87 193.759L1382.08 161.091L1443.3 193.759L1382.08 226.427L1320.87 193.759Z" stroke="#393254"/>
<path d="M1443.39 193.759L1504.61 161.091L1565.83 193.759L1504.61 226.427L1443.39 193.759Z" stroke="#393254"/>
<path d="M1565.92 193.759L1627.14 161.091L1688.35 193.759L1627.14 226.427L1565.92 193.759Z" stroke="#393254"/>
<path d="M1688.45 193.759L1749.66 161.091L1810.88 193.759L1749.66 226.427L1688.45 193.759Z" stroke="#393254"/>
<path d="M1810.97 193.759L1872.19 161.091L1933.41 193.759L1872.19 226.427L1810.97 193.759Z" stroke="#393254"/>
<path d="M585.702 128.322L646.918 95.6543L708.134 128.322L646.918 160.99L585.702 128.322Z" stroke="#393254"/>
<path d="M463.175 128.322L524.39 95.6543L585.606 128.322L524.39 160.99L463.175 128.322Z" stroke="#393254"/>
<path d="M340.647 128.322L401.863 95.6543L463.079 128.322L401.863 160.99L340.647 128.322Z" stroke="#393254"/>
<path d="M218.12 128.322L279.336 95.6543L340.552 128.322L279.336 160.99L218.12 128.322Z" stroke="#393254"/>
<path d="M95.5928 128.322L156.809 95.6543L218.024 128.322L156.809 160.99L95.5928 128.322Z" stroke="#393254"/>
<path d="M-26.935 128.322L34.2808 95.6543L95.4965 128.322L34.2808 160.99L-26.935 128.322Z" stroke="#393254"/>
<path d="M708.229 128.322L769.445 95.6543L830.661 128.322L769.445 160.99L708.229 128.322Z" stroke="#393254"/>
<path d="M830.757 128.322L891.972 95.6543L953.188 128.322L891.972 160.99L830.757 128.322Z" stroke="#393254"/>
<path d="M953.284 128.322L1014.5 95.6543L1075.72 128.322L1014.5 160.99L953.284 128.322Z" stroke="#393254"/>
<path d="M1075.81 128.322L1137.03 95.6543L1198.24 128.322L1137.03 160.99L1075.81 128.322Z" stroke="#393254"/>
<path d="M1198.34 128.322L1259.56 95.6543L1320.77 128.322L1259.56 160.99L1198.34 128.322Z" stroke="#393254"/>
<path d="M1320.87 128.322L1382.08 95.6543L1443.3 128.322L1382.08 160.99L1320.87 128.322Z" stroke="#393254"/>
<path d="M1443.39 128.322L1504.61 95.6543L1565.83 128.322L1504.61 160.99L1443.39 128.322Z" stroke="#393254"/>
<path d="M1565.92 128.322L1627.14 95.6543L1688.35 128.322L1627.14 160.99L1565.92 128.322Z" stroke="#393254"/>
<path d="M1688.45 128.322L1749.66 95.6543L1810.88 128.322L1749.66 160.99L1688.45 128.322Z" stroke="#393254"/>
<path d="M1810.97 128.322L1872.19 95.6543L1933.41 128.322L1872.19 160.99L1810.97 128.322Z" stroke="#393254"/>
<path d="M585.702 62.8852L646.918 30.2173L708.134 62.8852L646.918 95.5532L585.702 62.8852Z" stroke="#393254"/>
<path d="M463.175 62.8852L524.39 30.2173L585.606 62.8852L524.39 95.5532L463.175 62.8852Z" stroke="#393254"/>
<path d="M340.647 62.8852L401.863 30.2173L463.079 62.8852L401.863 95.5532L340.647 62.8852Z" stroke="#393254"/>
<path d="M218.12 62.8852L279.336 30.2173L340.552 62.8852L279.336 95.5532L218.12 62.8852Z" stroke="#393254"/>
<path d="M95.5928 62.8852L156.809 30.2173L218.024 62.8852L156.809 95.5532L95.5928 62.8852Z" stroke="#393254"/>
<path d="M-26.935 62.8852L34.2808 30.2173L95.4965 62.8852L34.2808 95.5532L-26.935 62.8852Z" stroke="#393254"/>
<path d="M708.229 62.8852L769.445 30.2173L830.661 62.8852L769.445 95.5532L708.229 62.8852Z" stroke="#393254"/>
<path d="M830.757 62.8852L891.972 30.2173L953.188 62.8852L891.972 95.5532L830.757 62.8852Z" stroke="#393254"/>
<path d="M953.284 62.8852L1014.5 30.2173L1075.72 62.8852L1014.5 95.5532L953.284 62.8852Z" stroke="#393254"/>
<path d="M1075.81 62.8852L1137.03 30.2173L1198.24 62.8852L1137.03 95.5532L1075.81 62.8852Z" stroke="#393254"/>
<path d="M1198.34 62.8852L1259.56 30.2173L1320.77 62.8852L1259.56 95.5532L1198.34 62.8852Z" stroke="#393254"/>
<path d="M1320.87 62.8852L1382.08 30.2173L1443.3 62.8852L1382.08 95.5532L1320.87 62.8852Z" stroke="#393254"/>
<path d="M1443.39 62.8852L1504.61 30.2173L1565.83 62.8852L1504.61 95.5532L1443.39 62.8852Z" stroke="#393254"/>
<path d="M1565.92 62.8852L1627.14 30.2173L1688.35 62.8852L1627.14 95.5532L1565.92 62.8852Z" stroke="#393254"/>
<path d="M1688.45 62.8852L1749.66 30.2173L1810.88 62.8852L1749.66 95.5532L1688.45 62.8852Z" stroke="#393254"/>
<path d="M1810.97 62.8852L1872.19 30.2173L1933.41 62.8852L1872.19 95.5532L1810.97 62.8852Z" stroke="#393254"/>
<rect x="-1.00439" y="20.9995" width="1922" height="713" fill="url(#paint0_linear_326_7)"/>
<rect y="2487" width="1921" height="510" fill="url(#paint1_linear_326_7)"/>
</g>
<defs>
<linearGradient id="paint0_linear_326_7" x1="959.996" y1="20.9995" x2="959.996" y2="734" gradientUnits="userSpaceOnUse">
<stop stop-color="#1C1631"/>
<stop offset="1" stop-color="#1C1631" stop-opacity="0"/>
</linearGradient>
<linearGradient id="paint1_linear_326_7" x1="960.5" y1="2487" x2="960.5" y2="2997" gradientUnits="userSpaceOnUse">
<stop stop-color="#1C1631" stop-opacity="0"/>
<stop offset="0.540249" stop-color="#1C1631"/>
<stop offset="1" stop-color="#1C1631"/>
</linearGradient>
</defs>
</svg>
