<svg width="837" height="1967" viewBox="0 0 837 1967" fill="none" xmlns="http://www.w3.org/2000/svg">
<path d="M356.959 57.6755L407.242 84.2558L356.959 110.836L306.234 84.2555L356.959 57.6755Z" fill="#393254"/>
<path d="M418.709 24.4133L468.992 50.9936L418.709 77.5738L367.985 50.9933L418.709 24.4133Z" fill="#393254"/>
<path d="M295.715 90.4133L345.997 116.994L295.715 143.574L244.99 116.993L295.715 90.4133Z" fill="#393254"/>
<path d="M357.712 122.413L407.995 148.994L357.712 175.574L306.988 148.993L357.712 122.413Z" fill="#393254"/>
<path d="M417.709 155.413L467.992 181.994L417.709 208.574L366.985 181.993L417.709 155.413Z" fill="#393254"/>
<path d="M479.709 188.413L529.992 214.994L479.709 241.574L428.985 214.993L479.709 188.413Z" fill="#393254"/>
<path d="M540.714 221.413L590.997 247.994L540.714 274.574L489.99 247.993L540.714 221.413Z" fill="#393254"/>
<path d="M785.721 221.413L836.004 247.994L785.721 274.574L734.996 247.993L785.721 221.413Z" fill="#393254"/>
<path d="M724.721 253.413L775.004 279.994L724.721 306.574L673.996 279.993L724.721 253.413Z" fill="#393254"/>
<path d="M663.721 286.413L714.004 312.994L663.721 339.574L612.996 312.993L663.721 286.413Z" fill="#393254"/>
<path d="M602.72 254.413L653.003 280.994L602.72 307.574L551.996 280.993L602.72 254.413Z" fill="#393254"/>
<path d="M540.714 286.413L590.997 312.994L540.714 339.574L489.99 312.993L540.714 286.413Z" fill="#393254"/>
<path d="M479.709 319.413L529.992 345.994L479.709 372.574L428.985 345.993L479.709 319.413Z" fill="#393254"/>
<path d="M418.709 352.413L468.992 378.994L418.709 405.574L367.985 378.993L418.709 352.413Z" fill="#393254"/>
<path d="M234.721 319.413L285.003 345.994L234.721 372.574L183.996 345.993L234.721 319.413Z" fill="#393254"/>
<path d="M295.721 351.413L346.003 377.994L295.721 404.574L244.996 377.993L295.721 351.413Z" fill="#393254"/>
<path d="M356.712 384.413L406.995 410.994L356.712 437.574L305.988 410.993L356.712 384.413Z" fill="#393254"/>
<path d="M296.715 417.413L346.997 443.994L296.715 470.574L245.99 443.993L296.715 417.413Z" fill="#393254"/>
<path d="M234.715 450.413L284.998 476.994L234.715 503.574L183.991 476.993L234.715 450.413Z" fill="#393254"/>
<path d="M173.716 482.413L223.999 508.994L173.716 535.574L122.992 508.993L173.716 482.413Z" fill="#393254"/>
<path d="M173.716 810.413L223.999 836.994L173.716 863.574L122.992 836.993L173.716 810.413Z" fill="#393254"/>
<path d="M234.715 515.413L284.998 541.994L234.715 568.574L183.991 541.993L234.715 515.413Z" fill="#393254"/>
<path d="M51.7207 744.413L102.003 770.994L51.7207 797.574L0.995993 770.993L51.7207 744.413Z" fill="#393254"/>
<path d="M112.72 777.413L163.003 803.994L112.72 830.574L61.9957 803.993L112.72 777.413Z" fill="#393254"/>
<path d="M234.715 777.413L284.998 803.994L234.715 830.574L183.991 803.993L234.715 777.413Z" fill="#393254"/>
<path d="M234.715 842.413L284.998 868.994L234.715 895.574L183.991 868.993L234.715 842.413Z" fill="#393254"/>
<path d="M173.715 1071.41L223.997 1097.99L173.715 1124.57L122.99 1097.99L173.715 1071.41Z" fill="#393254"/>
<path d="M234.715 1104.41L284.998 1130.99L234.715 1157.57L183.991 1130.99L234.715 1104.41Z" fill="#393254"/>
<path d="M172.714 1399.41L222.996 1425.99L172.714 1452.57L121.989 1425.99L172.714 1399.41Z" fill="#393254"/>
<path d="M112.714 1366.41L162.996 1392.99L112.714 1419.57L61.9889 1392.99L112.714 1366.41Z" fill="#393254"/>
<path d="M234.715 1431.41L284.998 1457.99L234.715 1484.57L183.991 1457.99L234.715 1431.41Z" fill="#393254"/>
<path d="M295.715 548.413L345.997 574.994L295.715 601.574L244.99 574.993L295.715 548.413Z" fill="#393254"/>
<path d="M295.715 744.413L345.997 770.994L295.715 797.574L244.99 770.993L295.715 744.413Z" fill="#393254"/>
<path d="M295.715 875.413L345.997 901.994L295.715 928.574L244.99 901.993L295.715 875.413Z" fill="#393254"/>
<path d="M295.715 1071.41L345.997 1097.99L295.715 1124.57L244.99 1097.99L295.715 1071.41Z" fill="#393254"/>
<path d="M295.715 1137.41L345.997 1163.99L295.715 1190.57L244.99 1163.99L295.715 1137.41Z" fill="#393254"/>
<path d="M295.715 1399.41L345.997 1425.99L295.715 1452.57L244.99 1425.99L295.715 1399.41Z" fill="#393254"/>
<path d="M295.715 1464.41L345.997 1490.99L295.715 1517.57L244.99 1490.99L295.715 1464.41Z" fill="#393254"/>
<path d="M356.712 581.413L406.995 607.994L356.712 634.574L305.988 607.993L356.712 581.413Z" fill="#393254"/>
<path d="M356.712 711.413L406.995 737.994L356.712 764.574L305.988 737.993L356.712 711.413Z" fill="#393254"/>
<path d="M356.712 908.413L406.995 934.994L356.712 961.574L305.988 934.993L356.712 908.413Z" fill="#393254"/>
<path d="M356.712 1039.41L406.995 1065.99L356.712 1092.57L305.988 1065.99L356.712 1039.41Z" fill="#393254"/>
<path d="M356.712 1169.41L406.995 1195.99L356.712 1222.57L305.988 1195.99L356.712 1169.41Z" fill="#393254"/>
<path d="M356.712 1366.41L406.995 1392.99L356.712 1419.57L305.988 1392.99L356.712 1366.41Z" fill="#393254"/>
<path d="M356.712 1496.41L406.995 1522.99L356.712 1549.57L305.988 1522.99L356.712 1496.41Z" fill="#393254"/>
<path d="M356.71 1759.41L406.992 1785.99L356.71 1812.57L305.985 1785.99L356.71 1759.41Z" fill="#393254"/>
<path d="M418.71 1791.41L468.992 1817.99L418.71 1844.57L367.985 1817.99L418.71 1791.41Z" fill="#393254"/>
<path d="M479.717 1824.41L530 1850.99L479.717 1877.57L428.993 1850.99L479.717 1824.41Z" fill="#393254"/>
<path d="M541.717 1856.41L592 1882.99L541.717 1909.57L490.993 1882.99L541.717 1856.41Z" fill="#393254"/>
<path d="M602.717 1889.41L653 1915.99L602.717 1942.57L551.993 1915.99L602.717 1889.41Z" fill="#393254"/>
<path d="M480.717 1758.41L531 1784.99L480.717 1811.57L429.993 1784.99L480.717 1758.41Z" fill="#393254"/>
<path d="M541.717 1725.41L592 1751.99L541.717 1778.57L490.993 1751.99L541.717 1725.41Z" fill="#393254"/>
<path d="M602.717 1693.41L653 1719.99L602.717 1746.57L551.993 1719.99L602.717 1693.41Z" fill="#393254"/>
<path d="M662.717 1661.41L713 1687.99L662.717 1714.57L611.993 1687.99L662.717 1661.41Z" fill="#393254"/>
<path d="M601.717 1628.41L652 1654.99L601.717 1681.57L550.993 1654.99L601.717 1628.41Z" fill="#393254"/>
<path d="M541.717 1594.41L592 1620.99L541.717 1647.57L490.993 1620.99L541.717 1594.41Z" fill="#393254"/>
<path d="M418.709 548.413L468.992 574.994L418.709 601.574L367.985 574.993L418.709 548.413Z" fill="#393254"/>
<path d="M418.709 613.413L468.992 639.994L418.709 666.574L367.985 639.993L418.709 613.413Z" fill="#393254"/>
<path d="M418.709 679.413L468.992 705.994L418.709 732.574L367.985 705.993L418.709 679.413Z" fill="#393254"/>
<path d="M418.709 940.413L468.992 966.994L418.709 993.574L367.985 966.993L418.709 940.413Z" fill="#393254"/>
<path d="M418.709 1006.41L468.992 1032.99L418.709 1059.57L367.985 1032.99L418.709 1006.41Z" fill="#393254"/>
<path d="M418.709 1202.41L468.992 1228.99L418.709 1255.57L367.985 1228.99L418.709 1202.41Z" fill="#393254"/>
<path d="M418.709 1333.41L468.992 1359.99L418.709 1386.57L367.985 1359.99L418.709 1333.41Z" fill="#393254"/>
<path d="M418.709 1529.41L468.992 1555.99L418.709 1582.57L367.985 1555.99L418.709 1529.41Z" fill="#393254"/>
<path d="M479.709 646.413L529.992 672.994L479.709 699.574L428.985 672.993L479.709 646.413Z" fill="#393254"/>
<path d="M479.709 646.413L529.992 672.994L479.709 699.574L428.985 672.993L479.709 646.413Z" fill="#393254"/>
<path d="M540.714 679.413L590.997 705.994L540.714 732.574L489.99 705.993L540.714 679.413Z" fill="#393254"/>
<path d="M540.714 679.413L590.997 705.994L540.714 732.574L489.99 705.993L540.714 679.413Z" fill="#393254"/>
<path d="M601.72 711.413L652.003 737.994L601.72 764.574L550.996 737.993L601.72 711.413Z" fill="#393254"/>
<path d="M663.72 744.413L714.003 770.994L663.72 797.574L612.996 770.993L663.72 744.413Z" fill="#393254"/>
<path d="M724.721 712.413L775.004 738.994L724.721 765.574L673.996 738.993L724.721 712.413Z" fill="#393254"/>
<path d="M785.721 679.413L836.004 705.994L785.721 732.574L734.996 705.993L785.721 679.413Z" fill="#393254"/>
<path d="M540.714 940.413L590.997 966.994L540.714 993.574L489.99 966.993L540.714 940.413Z" fill="#393254"/>
<path d="M540.714 940.413L590.997 966.994L540.714 993.574L489.99 966.993L540.714 940.413Z" fill="#393254"/>
<path d="M725.721 1235.41L776.003 1261.99L725.721 1288.57L674.996 1261.99L725.721 1235.41Z" fill="#393254"/>
<path d="M540.714 1267.41L590.997 1293.99L540.714 1320.57L489.99 1293.99L540.714 1267.41Z" fill="#393254"/>
<path d="M601.714 1300.41L651.997 1326.99L601.714 1353.57L550.99 1326.99L601.714 1300.41Z" fill="#393254"/>
<path d="M663.714 1268.41L713.997 1294.99L663.714 1321.57L612.99 1294.99L663.714 1268.41Z" fill="#393254"/>
<path d="M663.717 1857.41L714 1883.99L663.717 1910.57L612.993 1883.99L663.717 1857.41Z" fill="#393254"/>
<path d="M540.714 1529.41L590.997 1555.99L540.714 1582.57L489.99 1555.99L540.714 1529.41Z" fill="#393254"/>
<path d="M479.709 973.413L529.992 999.994L479.709 1026.57L428.985 999.993L479.709 973.413Z" fill="#393254"/>
<path d="M479.709 1235.41L529.992 1261.99L479.709 1288.57L428.985 1261.99L479.709 1235.41Z" fill="#393254"/>
<path d="M479.709 1300.41L529.992 1326.99L479.709 1353.57L428.985 1326.99L479.709 1300.41Z" fill="#393254"/>
<path d="M479.709 1562.41L529.992 1588.99L479.709 1615.57L428.985 1588.99L479.709 1562.41Z" fill="#393254"/>
</svg>
