<svg width="19" height="15" viewBox="0 0 19 15" fill="none" xmlns="http://www.w3.org/2000/svg">
<path d="M19 1.73235C18.2875 2.01176 17.5453 2.23529 16.7734 2.31912C17.575 1.87206 18.1984 1.14559 18.4953 0.279412C17.7531 0.698529 16.9219 1.00588 16.0312 1.17353C15.2891 0.447059 14.2797 0 13.1516 0C10.9844 0 9.2625 1.64853 9.2625 3.66029C9.2625 3.93971 9.29219 4.21912 9.35156 4.49853C6.11562 4.35882 3.23594 2.87794 1.33594 0.670588C1.00937 1.20147 0.801562 1.84412 0.801562 2.51471C0.801562 3.8 1.48438 4.91765 2.52344 5.56029C1.87031 5.53235 1.27656 5.36471 0.771875 5.11323C0.771875 5.14118 0.771875 5.14118 0.771875 5.16912C0.771875 6.95735 2.10781 8.43823 3.88906 8.77353C3.5625 8.85735 3.20625 8.91323 2.85 8.91323C2.6125 8.91323 2.34531 8.88529 2.10781 8.85735C2.6125 10.3103 4.0375 11.3721 5.75938 11.4C4.42344 12.3779 2.73125 12.9647 0.920312 12.9647C0.59375 12.9647 0.296875 12.9368 0 12.9088C1.72187 13.9147 3.77031 14.5294 5.96719 14.5294C13.1516 14.5294 17.0703 8.94118 17.0703 4.07941C17.0703 3.91176 17.0703 3.77206 17.0703 3.60441C17.8125 3.10147 18.4656 2.45882 19 1.73235Z" fill="white"/>
</svg>
