<svg width="73" height="84" viewBox="0 0 73 84" fill="none" xmlns="http://www.w3.org/2000/svg">
<path fill-rule="evenodd" clip-rule="evenodd" d="M36.4996 0.223633L0 20.9732V62.4732L36.4996 83.2236L73 62.4732V20.9732L36.4996 0.223633Z" fill="#EFEFE8"/>
<mask id="mask0_777_26" style="mask-type:alpha" maskUnits="userSpaceOnUse" x="0" y="0" width="73" height="84">
<path fill-rule="evenodd" clip-rule="evenodd" d="M36.4996 0.223633L0 20.9732V62.4732L36.4996 83.2236L73 62.4732V20.9732L36.4996 0.223633Z" fill="white"/>
</mask>
<g mask="url(#mask0_777_26)">
<path d="M57.3574 28.8502C55.7931 29.4931 54.1636 30.0074 52.469 30.2003C54.2288 29.1717 55.5975 27.5001 56.2493 25.5072C54.6199 26.4715 52.7949 27.1787 50.8395 27.5644C49.21 25.8929 46.994 24.8643 44.5172 24.8643C39.7591 24.8643 35.9788 28.6573 35.9788 33.2862C35.9788 33.9291 36.044 34.572 36.1743 35.2149C29.0699 34.8934 22.7475 31.4861 18.5761 26.4072C17.8591 27.6287 17.4029 29.1074 17.4029 30.6503C17.4029 33.6076 18.902 36.1792 21.1832 37.6579C19.7493 37.5936 18.4457 37.2078 17.3377 36.6292C17.3377 36.6935 17.3377 36.6935 17.3377 36.7578C17.3377 40.8724 20.2707 44.2797 24.1815 45.0512C23.4645 45.244 22.6824 45.3726 21.9002 45.3726C21.3788 45.3726 20.7922 45.3083 20.2707 45.244C21.3788 48.5871 24.5074 51.0301 28.2877 51.0944C25.3547 53.3445 21.6395 54.6946 17.6636 54.6946C16.9466 54.6946 16.2949 54.6303 15.6431 54.566C19.4234 56.8804 23.9207 58.2948 28.744 58.2948C44.5172 58.2948 53.1207 45.4369 53.1207 34.2505C53.1207 33.8648 53.1207 33.5433 53.1207 33.1576C54.7502 32.0004 56.1841 30.5217 57.3574 28.8502Z" fill="#1C1631"/>
</g>
</svg>
