<svg width="30" height="34" viewBox="0 0 30 34" fill="none" xmlns="http://www.w3.org/2000/svg">
<path fill-rule="evenodd" clip-rule="evenodd" d="M15.4338 0.831055L0.921875 9.08089V25.5809L15.4338 33.8311L29.946 25.5809V9.08089L15.4338 0.831055Z" fill="#393254"/>
<mask id="mask0_144_10369" style="mask-type:alpha" maskUnits="userSpaceOnUse" x="0" y="0" width="30" height="34">
<path fill-rule="evenodd" clip-rule="evenodd" d="M15.4338 0.831055L0.921875 9.08089V25.5809L15.4338 33.8311L29.946 25.5809V9.08089L15.4338 0.831055Z" fill="white"/>
</mask>
<g mask="url(#mask0_144_10369)">
<path d="M23.7258 12.2127C23.1039 12.4683 22.456 12.6728 21.7822 12.7495C22.4819 12.3405 23.0261 11.6759 23.2853 10.8835C22.6374 11.267 21.9118 11.5481 21.1344 11.7015C20.4865 11.0369 19.6054 10.6279 18.6207 10.6279C16.7289 10.6279 15.2259 12.136 15.2259 13.9764C15.2259 14.232 15.2518 14.4876 15.3037 14.7432C12.479 14.6154 9.96529 13.2607 8.30677 11.2414C8.02171 11.727 7.84031 12.3149 7.84031 12.9284C7.84031 14.1042 8.43634 15.1266 9.34335 15.7145C8.77323 15.689 8.25494 15.5356 7.8144 15.3056C7.8144 15.3311 7.8144 15.3311 7.8144 15.3567C7.8144 16.9926 8.98055 18.3473 10.5354 18.6541C10.2503 18.7307 9.93938 18.7819 9.62841 18.7819C9.42109 18.7819 9.18786 18.7563 8.98055 18.7307C9.42109 20.0599 10.665 21.0312 12.168 21.0568C11.0019 21.9514 9.52475 22.4882 7.94397 22.4882C7.65891 22.4882 7.39977 22.4626 7.14062 22.4371C8.64366 23.3573 10.4318 23.9196 12.3494 23.9196C18.6207 23.9196 22.0414 18.8074 22.0414 14.3598C22.0414 14.2065 22.0414 14.0787 22.0414 13.9253C22.6892 13.4652 23.2594 12.8773 23.7258 12.2127Z" fill="white"/>
</g>
</svg>
